<?xml version="1.0" standalone="no"?>
<!DOCTYPE svg PUBLIC "-//W3C//DTD SVG 1.1//EN" "http://www.w3.org/Graphics/SVG/1.1/DTD/svg11.dtd" >
<svg xmlns="http://www.w3.org/2000/svg" xmlns:xlink="http://www.w3.org/1999/xlink" version="1.1">
<metadata>
Created by FontForge 20190801 at Sat Mar  3 20:35:19 2018
 By Jimmy Wärting
Copyright (c) 2018 by Billy Argel. All rights reserved.
</metadata>
<defs>
<font id="CassandraPersonalUse-Regular" horiz-adv-x="666" >
  <font-face 
    font-family="Cassandra Personal Use"
    font-weight="400"
    font-stretch="normal"
    units-per-em="1000"
    panose-1="0 0 0 0 0 0 0 0 0 0"
    ascent="750"
    descent="-250"
    x-height="565"
    cap-height="1200"
    bbox="-2636.53 -1269.2 3586.61 1597.5"
    underline-thickness="50"
    underline-position="-100"
    unicode-range="U+000D-FB05"
  />
<missing-glyph horiz-adv-x="489" 
 />
    <glyph glyph-name=".notdef" horiz-adv-x="489" 
 />
    <glyph glyph-name="b" unicode="b" 
d="M487 564q45 -7 72.5 -36t36.5 -86q2 -12 1.5 -31.5t-4.5 -43.5q44 18 85 34.5t75.5 32t61.5 31.5t42 32q5 5 16 4t19 -7.5t9.5 -18.5t-11.5 -29t-43.5 -35.5t-73 -38.5t-93.5 -41t-104 -43q-15 -53 -41 -110t-65.5 -104.5t-93.5 -78.5t-124 -32q-30 0 -49.5 10.5t-30 26
t-13.5 32.5t-1 28q7 37 31 70t60 62.5t81.5 55.5t95.5 49q14 39 23 75.5t9 64t-9 44t-31 16.5q-20 -1 -50 -21.5t-63 -50.5t-65 -64.5t-56 -61.5q-51 -114 -66.5 -187.5t9.5 -90.5q7 -5 3.5 -12t-14.5 -13t-27 -10.5t-33 -4.5q-12 0 -24 5t-21.5 14t-15.5 23t-6 32
q1 61 22 137t52 156t68 158t71 143t59.5 111.5t34.5 64.5q13 26 26.5 38t27 16.5t26.5 3.5t24 -1q22 0 38.5 -7.5t27 -18t13.5 -21.5t-1 -17q-67 -102 -122.5 -195t-99.5 -176q26 24 56 46.5t60.5 39.5t60 26t54.5 5zM258 34q12 1 28 15.5t33 37.5t34.5 53.5t33.5 64.5
q-71 -35 -117 -71t-48 -72q0 -18 7 -24.5t29 -3.5z" />
    <glyph glyph-name="space" unicode=" " horiz-adv-x="489" 
 />
    <glyph glyph-name="c" unicode="c" horiz-adv-x="558" 
d="M406 575q30 1 50.5 -6t34 -17.5t21.5 -23t12 -22.5q17 -42 8.5 -80t-38.5 -66q-15 -14 -29 -14.5t-22 6.5t-6.5 19t18.5 24q10 7 17 26.5t6 39t-13.5 34t-42.5 11.5q-39 -4 -74 -24.5t-64.5 -50t-53 -64.5t-40.5 -68.5t-26.5 -61.5t-11.5 -43q-3 -29 2 -50t16 -35t25 -21
t29 -7q62 0 118 22.5t105 58t91.5 79.5t78 88.5t65 84.5t52.5 67q7 9 17.5 9.5t18 -4t10.5 -13.5t-4 -20q-8 -14 -32.5 -52.5t-63 -89.5t-90 -106.5t-115 -102.5t-138 -78.5t-157.5 -33.5q-36 -1 -66.5 13.5t-52.5 40t-34.5 59.5t-12.5 72q0 36 11 79.5t32.5 87.5t54 85
t76 73t98 52.5t120.5 22.5z" />
    <glyph glyph-name="d" unicode="d" horiz-adv-x="698" 
d="M799 862q5 -1 18.5 -3t25.5 -10t17.5 -24t-3.5 -44q-2 -5 -24.5 -43t-56 -96t-74 -128t-77 -140t-65.5 -132t-40 -103q-2 -4 -1.5 -12.5t4 -16t11.5 -11.5t23 1q43 13 84 46.5t78 76.5t69 90.5t56.5 88t41 68t23.5 31.5q19 12 34.5 5.5t15.5 -26.5q0 -7 -14 -30
t-35 -54.5t-45.5 -67t-47 -66.5t-39 -53t-20.5 -27t-22.5 -23.5t-46 -43.5t-62 -51.5t-71.5 -46.5t-74 -28.5t-68 2.5q-48 17 -53.5 70.5t15.5 128.5q-23 -29 -58 -63.5t-77.5 -64t-89 -48.5t-91.5 -16q-30 1 -47 11t-27.5 25.5t-17.5 36t-17 44.5q-11 26 -4 69.5t29 94
t57 102t81 92.5t101 66t117 23q76 -3 113 -29t48 -68q32 61 64.5 116.5t59.5 100t46.5 73.5t24.5 37q9 13 22.5 26t29.5 23.5t31.5 16t27.5 4.5zM120 72q22 -2 62 17t84 52t84.5 74.5t64.5 84.5q9 23 19.5 46t21.5 46q3 17 1 37t-10 36.5t-22 26.5t-35 9q-20 -1 -46 -20
t-54 -48.5t-56.5 -67.5t-53 -77.5t-43.5 -77.5t-28.5 -68t-7.5 -49t19 -21z" />
    <glyph glyph-name="e" unicode="e" horiz-adv-x="511" 
d="M379 575q30 1 51.5 -4.5t36.5 -14.5t24 -20t13 -21q11 -29 9.5 -50.5t-8.5 -40.5q-17 -46 -49.5 -82t-72 -63.5t-81.5 -47t-79 -32t-64 -19t-36 -6.5q-2 -25 -0.5 -46t9 -36.5t21 -24t35.5 -7.5q62 2 118.5 27t106.5 62.5t93.5 84t80.5 92.5t67 87t53 68q7 9 17 9.5
t17.5 -4t10.5 -13.5t-3 -20q-6 -10 -22 -36.5t-40.5 -63t-57.5 -79t-73 -85.5t-86.5 -83.5t-98.5 -71t-109 -48t-118 -16.5q-48 1 -81.5 14.5t-55.5 37t-32 56t-10 70.5q0 36 12.5 81.5t36.5 92.5t59.5 91.5t81.5 79.5t102 57.5t122 24.5zM395 506q-49 -5 -91 -34.5t-75 -70
t-56.5 -85t-35.5 -78.5q32 7 75.5 24t86.5 42t81 56.5t59 69.5q7 12 8.5 25.5t-3.5 25.5t-17 19t-32 6z" />
    <glyph glyph-name="f" unicode="f" horiz-adv-x="500" 
d="M427 846q16 1 27.5 -6.5t17.5 -19.5t5 -26.5t-8 -26.5q-43 -69 -93 -158.5t-101 -191.5q57 -8 117.5 -12t113 1t91.5 21.5t54 49.5q9 19 22.5 25t24.5 1.5t16.5 -16.5t-0.5 -28q-18 -44 -52 -71.5t-76.5 -43t-91 -20.5t-96 -3.5t-89.5 7t-73 11.5q-8 -17 -15.5 -33.5
t-15.5 -33.5q10 -38 21.5 -90t18.5 -114t8 -131t-9 -141q-15 -104 -40 -176.5t-55 -119t-62 -72t-61 -37t-52.5 -13t-36.5 0.5q-40 6 -70 31t-48 64t-23 89t5 106q12 65 38 144.5t61.5 166.5t76.5 176.5t83 173.5q-35 39 -60 41q-16 1 -14 14.5t14 29.5t28.5 29.5t28.5 13.5
q2 0 18.5 -4t42.5 -9q30 59 57.5 110.5t49.5 91.5t37 67l20 36q13 24 33 41.5t41.5 29t40.5 17.5t30 8zM186 -184q10 99 -1 185t-34 156q-39 -87 -74.5 -172t-63 -162t-46 -142.5t-25 -114t1 -77t32.5 -31.5q55 -6 90 26t57.5 85.5t36.5 119t26 127.5z" />
    <glyph glyph-name="g" unicode="g" horiz-adv-x="734" 
d="M575 564q33 -2 53.5 -10t30.5 -20t10.5 -26.5t-6.5 -29.5q-33 -74 -67 -162.5t-69 -185.5q61 37 117 75t104.5 78.5t87.5 83.5t65 91q6 12 17.5 16t21.5 1t15 -12.5t-1 -24.5q-24 -60 -69.5 -113.5t-106 -102.5t-133.5 -94t-151 -88q-36 -99 -75.5 -198t-83 -190
t-91 -169.5t-101 -136.5t-113.5 -91.5t-127 -32.5q-27 0 -58.5 8t-58 29.5t-43 59t-13.5 96.5q5 97 56.5 178.5t132.5 153t184 135t211 125.5q21 52 39 102q-18 -22 -41 -44t-52 -39.5t-66 -28.5t-83 -11q-50 0 -77.5 17t-41 41t-16.5 49.5t-3 42.5q0 21 8.5 60.5t27.5 85.5
t49 95t73.5 89t101 67t131.5 31q27 1 46.5 -6.5t33.5 -21t23 -30.5t15 -35l17 49q7 18 14.5 27.5t16 13.5t19.5 4t26 -1zM-88 -698q37 2 82 56t93.5 141.5t98 198t95.5 225.5q-93 -53 -178 -109t-150 -119t-104.5 -135.5t-42.5 -157.5q-1 -30 7 -49.5t22.5 -31t34 -16
t42.5 -3.5zM171 59q37 0 70.5 17t62.5 44t54.5 60.5t45.5 65.5l48 138q-2 3 0 9q2 10 -0.5 26t-11 30.5t-24 24t-40.5 7.5q-50 -5 -88 -40.5t-65.5 -82.5t-47 -96.5t-31.5 -83.5q-3 -9 -6 -28.5t-2 -39.5t9 -35.5t26 -15.5z" />
    <glyph glyph-name="h" unicode="h" 
d="M589 1125q48 5 79 -8t49 -36t25 -52t8 -56.5t-2.5 -50t-6.5 -31.5q-23 -65 -58 -122.5t-89 -101.5t-129.5 -70t-179.5 -28q-19 -42 -36.5 -84t-34.5 -84q39 36 81 64.5t80.5 46.5t69 24t45.5 -2q30 -17 34.5 -55t-6.5 -84.5t-32.5 -97t-43 -94t-38 -74.5t-17.5 -39
q-4 -23 -2 -30t11 -6q35 3 82 34.5t97 78.5t99.5 102t91.5 104t71.5 85.5t39.5 47.5q6 6 14.5 7.5t15 -2.5t9.5 -12.5t-2 -22.5q-3 -7 -20.5 -33.5t-46 -64.5t-66.5 -84.5t-81.5 -93t-91.5 -89t-95.5 -74t-94 -48t-87.5 -10.5q-46 7 -67.5 29t-25.5 52.5t6 68t26.5 76.5
t35.5 77t34 70t22 55t-2 32q-13 13 -37 0t-51.5 -38.5t-54.5 -56t-45 -51.5q-34 -87 -56.5 -151t-30.5 -85q-10 -25 -27.5 -27t-34.5 10t-29.5 32.5t-12.5 41.5q0 10 12.5 58t36 119t56.5 159t74.5 178.5t90.5 177t103.5 155.5t113.5 113.5t121 50.5zM607 1019
q-35 -4 -73 -38t-76 -88.5t-76 -125t-74 -147.5q67 4 120.5 24t96.5 55.5t77 84.5t61 112q8 18 9.5 40.5t-5 41.5t-21 31.5t-39.5 9.5z" />
    <glyph glyph-name="i" unicode="i" horiz-adv-x="422" 
d="M262 530q18 -1 30 -8t18 -17t7.5 -20.5t0.5 -17.5q-6 -27 -30 -72.5t-53 -97t-55.5 -104.5t-37.5 -95q-6 -23 6.5 -24t32.5 12q34 23 79 61.5t92 83t92.5 89.5t81.5 82.5t59.5 62t26.5 26.5q4 3 11.5 3t14 -3.5t10 -9.5t-0.5 -15q-3 -6 -25 -32.5t-57 -66t-81 -88
t-96 -97.5t-102 -95.5t-99 -82.5q-7 -5 -23 -15.5t-36.5 -20t-44.5 -15.5t-48 -3q-37 5 -45.5 40.5t1.5 87t33.5 112.5t49.5 117t49.5 100t34.5 63q16 27 33 40t31.5 17.5t25 3.5t14.5 -1zM275 698q9 18 21.5 31t26.5 20t29 8t28 -5q13 -7 21.5 -19.5t11.5 -28t0.5 -33.5
t-11.5 -36t-21.5 -31t-26.5 -20t-29 -8t-28 5q-26 13 -32.5 47t10.5 70z" />
    <glyph glyph-name="j" unicode="j" horiz-adv-x="479" 
d="M245 518q21 0 35 -6t21.5 -15.5t9.5 -20.5t-1 -21q-29 -80 -56.5 -151.5t-54.5 -137.5q68 34 131.5 70.5t120 75.5t103.5 81t81 89q7 9 16.5 9.5t18 -4.5t12.5 -13.5t0 -18.5q-23 -49 -73.5 -96.5t-119.5 -94t-152.5 -92t-172.5 -90.5q-64 -148 -123.5 -258.5
t-115 -189.5t-107 -131t-99 -82t-92 -42t-85.5 -12q-60 0 -93.5 19.5t-50.5 46t-21.5 55t-4.5 46.5q-1 58 22.5 109.5t66 98t102 89t129.5 82.5t148 78.5t159 76.5q27 63 52 122t46.5 111.5t39.5 95t32 72.5q3 7 7.5 16t13 16t21.5 12t34 5zM-448 -585q46 0 97.5 48.5
t104 127.5t104.5 180t100 206q-98 -51 -187.5 -102.5t-160.5 -105.5t-117.5 -110.5t-56.5 -116.5q-4 -21 2.5 -43.5t21.5 -41t38.5 -30.5t53.5 -12zM262 720q17 35 47.5 51t56.5 3q13 -6 22 -18.5t12 -28.5t0.5 -33.5t-11.5 -35.5t-21.5 -31t-27 -20.5t-29.5 -8.5t-28 5
q-26 14 -32.5 47.5t11.5 69.5z" />
    <glyph glyph-name="k" unicode="k" horiz-adv-x="777" 
d="M676 1116q48 5 79 -8t49 -36t25.5 -52t8.5 -56.5t-2.5 -50t-6.5 -31.5q-25 -71 -60.5 -121t-89.5 -84.5t-130.5 -57.5t-183.5 -40q-17 -33 -32 -66t-30 -65q16 22 36 43.5t43 39.5t50 29.5t57 13.5q19 1 41 -7t39 -25.5t26.5 -45.5t4.5 -66q-4 -36 -23 -72.5t-45 -70.5
t-55 -63t-53.5 -50.5t-41.5 -34t-19 -12.5q-3 0 1.5 -7.5t21 -15t48.5 -10.5t84 6q53 9 101.5 34.5t91.5 59.5t80 73t66 76t49.5 67.5t31.5 47.5q7 10 17.5 12.5t19 -1t13.5 -10.5t2 -16q-2 -4 -16.5 -31.5t-41.5 -68t-67 -88.5t-92 -93t-116.5 -81t-141.5 -53q-7 -2 -30 -5
t-53.5 -3.5t-64 3.5t-61.5 16t-46.5 34t-18.5 59q0 25 15.5 49.5t39.5 48t52.5 47.5t54.5 49t46 52t26 57q5 23 -10.5 38.5t-39.5 12.5q-19 -3 -40 -19.5t-42 -39.5t-40.5 -49t-35 -48.5t-25.5 -38t-12 -16.5q-1 -1 -2 -1q-18 -44 -33.5 -83t-27.5 -70t-20.5 -53.5
t-12.5 -32.5q-9 -25 -26.5 -27t-35 10t-30 33t-12.5 42q0 10 14 58t40.5 120t63 161t81.5 181t97.5 179.5t109.5 157.5t117.5 115t122.5 51zM695 1010q-34 -3 -71 -34.5t-76 -82.5t-78.5 -118t-76.5 -140q74 18 132 40t102.5 52t75 69t48.5 91q6 18 4.5 40.5t-9 41t-21 30.5
t-30.5 11z" />
    <glyph glyph-name="l" unicode="l" horiz-adv-x="533" 
d="M646 1116q27 -1 47 -12t33 -29t19.5 -40.5t6.5 -47.5q1 -54 -21 -122t-60 -140t-90.5 -142t-113 -128t-126.5 -99.5t-131 -54.5q-16 -65 -23 -121t-3.5 -99t19.5 -68.5t46 -28.5q32 -3 68 15t74 49.5t76 73t72.5 86t65.5 87.5t54 78t37.5 57.5t16.5 26.5q9 14 21 17.5
t21 -1.5t13 -17t-2 -29q-2 -5 -17 -30.5t-40 -63.5t-59.5 -85.5t-75.5 -95.5t-86.5 -93.5t-93 -80t-95.5 -54t-94 -16.5q-13 1 -38.5 6t-53 23t-50.5 53.5t-32 98.5q-7 50 0.5 122t28 154.5t52.5 171.5t73.5 173.5t92.5 160t109.5 131t123.5 87t135 27.5zM634 1010
q-34 -3 -72 -32t-76 -77t-75 -110.5t-71 -133t-62.5 -145.5t-49.5 -146q57 16 109.5 55.5t99 92.5t86 115t69.5 122.5t50 115t28 92.5q4 19 0.5 29.5t-10.5 15.5t-14.5 5.5t-11.5 0.5z" />
    <glyph glyph-name="m" unicode="m" horiz-adv-x="1074" 
d="M490 478q36 0 52.5 -10t22.5 -22.5t5 -25t0 -16.5t-8.5 -30.5t-23.5 -62.5q30 38 69 81t82 80t88 61.5t87 25.5q34 1 57.5 -7t37.5 -20.5t19.5 -26t5.5 -23.5q-1 -31 -15 -71t-34.5 -81t-44.5 -80t-43.5 -69t-31 -48.5t-8.5 -17.5q29 6 71.5 34t89.5 67t94.5 83.5
t86 83.5t64 67t29.5 33q6 8 15 10.5t16 -1t9 -15t-5 -31.5q-4 -10 -34 -46.5t-77 -86t-105.5 -104.5t-117.5 -102.5t-114.5 -80t-96.5 -35.5q-21 -2 -41.5 1.5t-37 14t-26 29t-8.5 47.5q1 14 15 47.5t35.5 76t46 89t46 86t36 67t15.5 32.5q1 7 -2.5 8.5t-8 0t-9.5 -4
t-8 -4.5q-43 -30 -91 -76t-90.5 -93t-76 -87t-47.5 -59l-14 -34q-11 -31 -37.5 -46.5t-52.5 -15.5t-45 15t-15 45q2 15 14 42.5t29 59.5t35 65.5t31 60.5t17.5 44.5t-4.5 18.5q-4 0 -27 -20.5t-56 -52t-72.5 -71t-77 -76t-68 -67t-46.5 -45.5q-21 -39 -43 -54q-11 -8 -28 -9
t-32.5 5t-26 20.5t-7.5 38.5q3 33 20.5 81t42.5 100t55.5 104t61 93t57 66.5t44.5 24.5q27 -1 43.5 -7.5t25 -17t9.5 -24.5t-3 -29q-2 -7 -14.5 -29t-31.5 -54t-42 -71t-47 -80l-10 -17q35 37 79.5 80t90 80.5t86.5 62.5t69 25zM471 153v1v-1z" />
    <glyph glyph-name="n" unicode="n" horiz-adv-x="778" 
d="M220 559q53 -2 68 -24.5t6 -53.5q-2 -7 -14.5 -29t-31 -54t-42 -71t-46.5 -80l-29 -52q33 36 72.5 77t81 81t84.5 77t83.5 65.5t77 45.5t65.5 18q34 1 57.5 -7t37.5 -20.5t19.5 -26t5.5 -23.5q-1 -32 -17.5 -73.5t-41 -85t-52.5 -86t-51.5 -76t-38 -53.5t-11.5 -19
q29 6 74.5 36t96.5 72t102.5 90t94 89.5t71 71.5t32.5 35q6 8 14.5 10.5t15.5 -1t9 -15t-5 -31.5q-4 -10 -37 -48.5t-84.5 -90.5t-115 -110.5t-127 -109t-122 -84.5t-99.5 -38q-21 -2 -41.5 2t-36.5 15t-26 29.5t-10 46.5q0 25 17 64.5t43 85t56.5 92t56.5 85.5t43.5 65
t18.5 31q1 7 -2.5 8.5t-8 0t-9.5 -4t-8 -4.5q-31 -22 -75.5 -61t-94.5 -86.5t-100.5 -98.5t-94.5 -95.5t-76 -78.5t-44 -47q-11 -14 -21 -21q-11 -8 -28 -9t-32.5 5t-25.5 20.5t-8 37.5q3 33 22 84t47 108t61.5 114.5t66 103.5t61 74.5t46.5 27.5z" />
    <glyph glyph-name="o" unicode="o" horiz-adv-x="584" 
d="M369 570q17 -2 28 -8t17 -13.5t7 -13.5t-1 -6q-27 -2 -59.5 -21.5t-66 -50t-66 -69t-58.5 -79t-43.5 -80t-22.5 -70.5q-2 -9 -3 -23.5t1.5 -28t11 -24t27.5 -13.5q24 -3 56 16.5t67.5 52.5t70 74t63.5 80q-19 10 -31 25t-19.5 33.5t-10 38.5t-2.5 40q1 30 18.5 52.5
t43 33.5t54 10.5t51 -15t34 -44t4.5 -76.5q-2 -11 -4.5 -22t-5.5 -22q34 3 69.5 13.5t66.5 27t54.5 37t34.5 41.5q13 26 26.5 38.5t23 10.5t12 -18t-5.5 -46q-8 -31 -39 -61t-74.5 -54.5t-94.5 -40t-100 -18.5q-28 -61 -72 -117.5t-96.5 -98.5t-109.5 -65t-111 -16
q-56 7 -87.5 31t-47 55t-19.5 64t-5 58q0 18 10 55.5t31.5 81.5t54.5 90t79 82.5t105.5 57.5t133.5 15zM409 409q-1 -17 1 -26t7 -13.5t11.5 -6t14.5 -4.5q7 11 12.5 20t9.5 17q15 31 9 46.5t-20 17t-29 -11.5t-16 -39z" />
    <glyph glyph-name="p" unicode="p" horiz-adv-x="738" 
d="M546 573q31 -3 50 -14t29.5 -25.5t14 -30.5t3.5 -29q1 -20 -7 -52.5t-25 -74.5q72 21 139.5 53.5t127.5 84.5q13 12 23.5 10.5t16 -9t5.5 -17.5t-8 -16q-27 -30 -63 -53.5t-78.5 -42.5t-89.5 -34.5t-96 -28.5q-26 -56 -64 -114t-85.5 -105t-104.5 -76.5t-122 -28.5
q-54 1 -82.5 21t-41.5 48q-22 -55 -41 -107.5t-32.5 -99.5t-21.5 -87.5t-8 -70.5q0 -17 2.5 -26t5 -15t4 -11t-0.5 -12q-5 -24 -30 -34t-52.5 -5.5t-50.5 23.5t-24 52q-2 34 10.5 87t34 118t49.5 138t58.5 146t61 142t57 126.5t46 99.5t27.5 61q26 60 64.5 87.5t74.5 25.5
q18 -1 29.5 -9.5t16.5 -19.5t3.5 -22.5t-8.5 -19.5q-6 -7 -24.5 -39.5t-44.5 -83.5q27 21 61.5 38t69 29.5t66.5 18.5t55 4zM230 355q-14 -29 -28.5 -59t-28.5 -62q52 27 124 42t154 32q15 30 25.5 58.5t15.5 53.5t4 45t-10 34q-3 4 -19 1t-39 -12t-51 -23t-55.5 -31.5
t-52 -37.5t-39.5 -41zM214 44q20 1 46 18.5t53.5 46t55 66t51.5 77.5q-58 -14 -109 -29t-89 -32.5t-59.5 -40t-21.5 -51.5q0 -21 17 -39t56 -16z" />
    <glyph glyph-name="q" unicode="q" horiz-adv-x="734" 
d="M118 -187q-17 -9 -28 0.5t-11.5 26.5t10.5 37.5t40 34.5q29 19 58 36.5t58 35.5q5 12 10.5 24.5t10.5 25.5q-35 -18 -86.5 -29t-119.5 -3q-41 6 -63.5 23.5t-33 40t-12 46t-0.5 40.5q1 26 11.5 65t32 82.5t54.5 88t79 82t106.5 63.5t136.5 33q74 6 117 -11.5t54 -62.5
q17 17 35 30q6 4 17 12.5t28 17.5t39.5 15.5t51.5 7.5q11 0 14.5 -9t1.5 -22.5t-8 -27.5t-13 -24q-66 -86 -120 -174.5t-96 -177.5q113 76 212.5 162.5t180.5 197.5q6 9 16 9.5t18 -4.5t12 -14t0 -18q-27 -59 -76 -115t-113 -109.5t-139.5 -106t-155.5 -105.5
q-31 -77 -52 -150t-32 -139t-12 -122.5t8 -101.5q5 -23 -14.5 -38t-47.5 -15q-14 0 -34 6.5t-39.5 17.5t-34.5 27t-19 36q-13 64 -2 146.5t40 173.5q-23 -16 -45.5 -32t-44.5 -33zM148 60q29 -1 53.5 5.5t44.5 16.5t35 22t26 22q45 94 94.5 176t95.5 139q0 4 1 7
q3 26 -8.5 39.5t-27.5 19t-32.5 5t-23.5 -1.5q-37 -4 -72.5 -28.5t-68.5 -59t-61 -76t-49 -81t-34 -72t-15 -50.5q-3 -26 0.5 -42t10 -25t15 -12.5t16.5 -3.5z" />
    <glyph glyph-name="r" unicode="r" horiz-adv-x="600" 
d="M217 680q21 1 34.5 -9t13.5 -33q0 -11 -7.5 -31t-15.5 -40q-11 -23 -23 -49q7 -11 35 -10.5t64 6.5t74 13t65 9q21 1 32 -8.5t15 -23.5t1.5 -29.5t-9.5 -25.5q-4 -6 -20 -34.5t-36.5 -69t-41 -86.5t-32.5 -85.5t-11.5 -67.5t22.5 -31q12 -2 41 18t67.5 54t81.5 79
t83.5 92t74 93t52.5 83q5 10 15.5 13.5t21 0.5t17 -13t3.5 -28q-1 -5 -16.5 -30.5t-41.5 -63.5t-62 -84.5t-77.5 -93.5t-87.5 -90t-93 -73.5t-93.5 -45t-89.5 -4.5q-41 10 -62.5 33t-27.5 55t0 70t18.5 76t29.5 74.5t33 65.5t27.5 47.5t14.5 22.5q11 14 2.5 21t-22.5 2
q-15 -6 -41.5 -10t-53 3t-46.5 30t-21 71q-1 15 4.5 38t17.5 44.5t29.5 37.5t41.5 17z" />
    <glyph glyph-name="s" unicode="s" horiz-adv-x="466" 
d="M338 626q13 4 31.5 4t33.5 -3.5t21.5 -11t-2.5 -18.5q-39 -44 -60 -87.5t-31 -84t-10.5 -78.5t2.5 -71q48 18 96 38t92 43.5t82 52t66 63.5q10 13 22.5 16t21 -2t10.5 -17.5t-7 -31.5q-15 -30 -53 -57.5t-89.5 -54t-112 -51.5t-121.5 -50q2 -21 4 -39t0 -32
q-5 -53 -25.5 -97.5t-55 -76.5t-82 -50t-105.5 -17q-35 0 -56.5 14.5t-33 35t-14.5 42t0 35.5q13 59 66 99.5t128 72.5q-5 60 -7 119.5t10 110.5q16 64 41.5 100.5t52 54.5t50 22.5t35.5 6.5zM75 -25q30 1 47.5 15.5t26.5 38t11 55t0 67.5q-54 -26 -89 -53t-39 -54
q-5 -38 8 -54t35 -15z" />
    <glyph glyph-name="t" unicode="t" horiz-adv-x="417" 
d="M937 936q2 1 9 3.5t15.5 6t17 6t14.5 3.5q16 1 26 -10t8.5 -27.5t-16.5 -34t-50 -28.5q-31 -10 -78.5 -13.5t-105.5 -3t-123 3.5t-130 7q-29 -46 -69.5 -108.5t-84 -132.5t-87 -142.5t-80 -137.5t-63 -118.5t-34.5 -85.5q-1 -4 -1.5 -10.5t2 -11.5t9.5 -7.5t22 2.5
q43 13 91.5 46t96.5 75.5t92 89t79.5 86t59.5 66.5t30 31q10 6 20.5 6t19.5 -4t14.5 -11.5t5.5 -17.5q0 -6 -18 -28.5t-46 -52t-60.5 -63t-61.5 -62.5l-50 -50t-25 -26t-22 -23t-45 -41.5t-61 -49t-70 -44.5t-71.5 -27.5t-66.5 1.5q-48 16 -68 52t-18 86t22.5 111.5
t52.5 128t72 134.5t81.5 131.5t81 119t70.5 97.5q-73 2 -127.5 0t-74.5 -13q-5 -5 -11 -9q-5 -4 -12.5 -7t-17.5 -2q-11 1 -21.5 9.5t-10.5 22.5q0 17 12.5 27t20.5 13q21 8 51.5 13t68.5 8t81 3.5t90 0.5q6 8 11 15t7 10q9 13 22.5 26t29.5 23.5t31.5 16t27.5 3.5
q5 -1 18.5 -3t25.5 -9.5t18 -23.5t-4 -44l-10 -17q60 -2 117 -2.5t105.5 0.5t86 5t58.5 12z" />
    <glyph glyph-name="u" unicode="u" 
d="M614 574q18 -1 30 -8t18 -17t7.5 -20.5t0.5 -17.5q-4 -18 -17 -44.5t-31 -58t-38.5 -66.5t-39.5 -69.5t-34.5 -68t-22.5 -61.5q-6 -23 2 -25.5t28 11.5q34 23 74 59t79.5 76.5t76.5 81t66 74t47.5 55t21.5 23.5q4 3 11.5 3t14 -3.5t10 -9.5t-0.5 -15q-3 -6 -20 -29.5
t-45 -59t-65 -79.5t-80 -89.5t-90 -89.5t-94 -80q-7 -5 -23 -15.5t-36.5 -20t-44.5 -15t-48 -2.5q-21 3 -32 16.5t-14 34.5t1.5 48.5t13.5 59.5q-33 -37 -68 -67t-71 -50t-71 -27t-68 2q-42 12 -52.5 52t-0.5 94t34.5 116t52 118.5t52.5 100.5t36 63q16 27 33 40t31.5 17.5
t25 3.5t14.5 -1q18 -1 29.5 -8t17.5 -17t7.5 -20.5t0.5 -17.5q-4 -18 -18.5 -46t-35 -62t-44 -71.5t-45 -74.5t-38.5 -72t-24 -63q-6 -23 0 -40t29 -12q16 3 45 21.5t64.5 51t74.5 77.5t76 101q26 53 49 94t34 59q16 27 33 40t31.5 17.5t25 3.5t14.5 -1z" />
    <glyph glyph-name="v" unicode="v" horiz-adv-x="566" 
d="M288 563q28 1 40 -5.5t14.5 -17t-1 -22t-5.5 -20.5q-3 -11 -20 -52t-39.5 -96t-48 -116.5t-45 -113t-30 -85t-3.5 -33.5q14 0 38 18.5t54 49.5t64.5 72t68 86t64 91t54.5 88q-22 20 -34 52.5t-4 71.5q4 24 14 41t22.5 28t26 16.5t24.5 5.5q13 1 26.5 -2t24 -10.5
t16.5 -20.5t4 -34q-6 -51 -35 -120q29 -5 61.5 0.5t61.5 16t51.5 24t30.5 25.5t18 13t18.5 -4t12.5 -15.5t1 -21.5q-14 -21 -45.5 -40.5t-71 -33t-82.5 -18.5t-80 1q-26 -52 -60.5 -106.5t-74 -105.5t-81.5 -96t-83 -79t-79 -53.5t-70 -19.5q-16 0 -36 7t-37.5 22t-29 39
t-9.5 58q1 7 11 48t29 97.5t45.5 121t59 119t70 91t79.5 38.5zM530 541q-3 -1 -5.5 -9t-4 -18.5t-0.5 -23t4 -22.5q15 33 21 57q2 8 -2.5 13t-12.5 3z" />
    <glyph glyph-name="w" unicode="w" horiz-adv-x="906" 
d="M296 587q18 0 29.5 -7.5t17.5 -17t7.5 -20t0.5 -17.5q-6 -28 -32.5 -75t-58.5 -100.5t-61.5 -107.5t-40.5 -96q-6 -23 0.5 -40.5t29.5 -12.5q21 4 57 29.5t79 71.5t88.5 111.5t85.5 149.5q0 1 2 3q23 44 54 73.5t74 31.5q28 1 40 -5.5t14.5 -17t-1 -22t-5.5 -20.5
q-3 -11 -13 -43.5t-22 -75t-25 -89.5t-22 -85.5t-12.5 -64t3.5 -25.5q20 0 51.5 26.5t67 68.5t70.5 93.5t62 101.5q-23 19 -36 52t-5 74q4 24 14 41t22.5 28t26 16.5t24.5 5.5q13 1 26.5 -2t24 -10.5t16.5 -20.5t4 -34q-3 -28 -11 -58.5t-20 -62.5q26 -4 54.5 0.5t53 14
t43.5 21.5t27 24t18 13t18.5 -4t12.5 -15.5t1 -21.5q-14 -21 -41.5 -39.5t-62 -30.5t-73 -16.5t-74.5 1.5q-30 -64 -72.5 -126t-90.5 -110.5t-98.5 -78.5t-96.5 -30q-16 0 -36 7t-37 22t-28.5 39t-9.5 58q0 6 2 29t7 55q-44 -65 -93.5 -122.5t-99 -96.5t-96.5 -54t-87 6
q-26 13 -35.5 41t-8 64.5t13 80t27.5 88t36 88t38.5 80t34 64.5t23.5 42q16 28 33 40.5t31.5 17t25 3.5t14.5 -1zM870 541q-3 -1 -5.5 -9.5t-3.5 -19.5t-0.5 -24t4.5 -23q7 17 12 31.5t8 28.5q2 8 -2.5 13t-12.5 3z" />
    <glyph glyph-name="x" unicode="x" horiz-adv-x="667" 
d="M624 531q21 1 33 -1t18.5 -6t10.5 -8.5t8 -8.5q8 -7 5.5 -20t-15.5 -24q-94 -73 -166.5 -137t-129.5 -121q16 -51 32.5 -83.5t32.5 -31.5q29 1 67.5 25.5t79.5 61.5t81.5 81.5t74 86t56.5 74t29 46.5q5 12 15.5 16.5t20 2t15 -12t1.5 -26.5q-3 -12 -27.5 -50t-64 -87.5
t-89.5 -104.5t-104 -100t-108.5 -74t-101.5 -27q-36 2 -64 27t-50 66q-42 -47 -71 -83t-49.5 -60.5t-34 -36.5t-24.5 -10q-20 3 -34 22.5t-20.5 44.5t-4.5 51t13 43q24 34 69 79.5t102 96.5q-10 39 -17 76.5t-12 69t-7.5 54.5t-3.5 32q-5 37 3 56.5t41 30.5q16 5 33.5 7.5
t31 0t22 -9.5t7.5 -22q-2 -29 5.5 -81t19.5 -111q46 37 90.5 70.5t81 59t62.5 40.5t37 16z" />
    <glyph glyph-name="y" unicode="y" 
d="M560 518q21 0 35 -6t21.5 -15.5t9.5 -20.5t-1 -21q-23 -66 -46 -125.5t-45 -115.5q99 59 183 123t140 141q6 9 16 9.5t18 -4.5t12 -13.5t0 -18.5q-20 -43 -59.5 -84t-92.5 -81.5t-118 -80t-135 -78.5q-66 -159 -127.5 -278.5t-118.5 -205.5t-110 -142.5t-102 -89
t-94.5 -44.5t-87.5 -9q-56 3 -89.5 24.5t-51.5 49t-24 56t-6 46.5q-1 62 23.5 117t69 104.5t105.5 94t133 87t151 83t159 82.5l38 88q-33 -37 -69 -68t-73 -51t-74 -26.5t-72 5.5q-41 13 -53.5 48.5t-6.5 82.5t26.5 100t44.5 101.5t46.5 87.5t33.5 57q16 28 33 40.5t31.5 17
t25 3.5t14.5 -1q18 0 29.5 -7.5t17.5 -17t7.5 -20t0.5 -17.5q-6 -28 -31.5 -67.5t-56 -84.5t-58.5 -92t-39 -89q-3 -11 -3 -21.5t3.5 -18.5t10.5 -11.5t19 -1.5q21 4 59 28t83 68t92 107.5t87 147.5q2 2 3 2q8 11 22.5 18.5t40.5 7.5zM-133 -585q32 0 67 24t71 66t72.5 99.5
t72.5 124t71 138.5t68 145q-100 -54 -193.5 -109.5t-168 -113.5t-122 -119.5t-54.5 -127.5q-2 -20 4.5 -42.5t21 -41t37.5 -31t53 -12.5z" />
    <glyph glyph-name="z" unicode="z" horiz-adv-x="700" 
d="M420 565q66 3 96.5 -13.5t28.5 -41.5q-3 -29 -17.5 -61t-34.5 -63t-43 -59.5t-43.5 -51t-36 -37t-19.5 -18.5q5 2 33 11t89 10q42 0 69.5 -12t46.5 -31q101 69 183 140.5t124 149.5q7 14 19 20.5t23 5t17 -12t2 -31.5q-8 -38 -37.5 -77.5t-74.5 -80.5t-102.5 -83
t-120.5 -85q10 -26 12.5 -49t1.5 -34q-5 -98 -38 -186t-84 -162t-113 -131.5t-123 -94t-116 -49.5t-92 1q-18 7 -35 18t-30 29t-20 45.5t-5 66.5q4 81 50.5 152.5t119.5 137.5t163.5 127.5t182.5 121.5q-5 13 -12 20.5t-15 11.5t-15.5 5t-12.5 2q-15 1 -48 -6.5t-69.5 -19
t-70 -24.5t-48.5 -23q-7 -4 -15 2.5t-15 18t-11 23.5t-3 20q0 5 18.5 25t45.5 48.5t57 63t52.5 69t33 65.5t-1.5 53q-4 7 -25 2.5t-50 -16t-62.5 -26.5t-62.5 -29t-50 -23.5t-25 -8.5q-6 0 -6 11.5t4.5 26t11 29t14.5 21.5q5 4 26 12t51 17.5t65 19.5t67 18t58 13.5t38 6.5z
M78 -467q46 -1 94.5 28.5t94.5 77t87 107t72.5 118.5t51 112t23.5 87q-84 -56 -164.5 -113.5t-145.5 -116t-107.5 -118t-49.5 -119.5q-2 -17 2 -29t11 -19.5t15.5 -11t15.5 -3.5z" />
    <glyph glyph-name="A" unicode="A" horiz-adv-x="1266" 
d="M1303 1268q23 3 38.5 -2.5t25.5 -13.5q11 -10 19 -22q-53 -95 -110 -201q-24 -45 -51.5 -97.5t-57 -109.5t-59 -117.5t-58.5 -121.5q68 -34 113 -94t50 -154q66 31 118.5 67.5t87.5 76.5q12 14 24.5 16.5t21.5 -3t11 -18t-8 -29.5q-13 -23 -37.5 -46.5t-58 -46t-74.5 -44
t-87 -40.5q-3 -29 -9 -61q-15 -75 -52.5 -145.5t-85.5 -124.5t-102 -86.5t-102 -32.5q-65 0 -101.5 28t-51 76t-9.5 112.5t23 138.5q-17 2 -32.5 3.5t-30.5 4.5q-33 5 -78 15.5t-91 26.5q-42 -53 -78.5 -99t-65 -81.5t-47 -57.5t-24.5 -27q-14 -12 -34 -33t-44.5 -42
t-53.5 -38t-60 -22t-63.5 7t-64.5 50q-12 13 -18 35t-3 40t17 24.5t41 -9.5q8 -5 15.5 -13t15.5 -16.5t16 -15.5t16 -10q22 -8 58.5 14.5t83.5 68.5t103.5 111.5t118.5 143.5q-28 15 -51 33t-37.5 40t-18.5 48t6 57q13 43 50.5 78t90.5 61t118.5 42t135.5 22
q60 79 119.5 156t116 146t108.5 128.5t98 103.5t83.5 70t65.5 30zM1143 242q-63 -22 -128.5 -38t-131.5 -24q-18 -57 -29 -104.5t-12 -83.5t9 -58.5t33 -27.5q34 -8 73 18t75 71t65 103t41 116zM527 271q33 -17 67 -26t60 -11q20 -2 41 -3t42 -1q24 81 57.5 167t71.5 168
h-12t-12 1q-21 1 -42.5 1t-42.5 -2zM906 244q64 10 125.5 26.5t118.5 38.5q1 87 -34 139t-92 79q-34 -74 -64 -145.5t-54 -137.5zM649 551q-49 -9 -91.5 -23.5t-74 -33t-50 -40.5t-19.5 -46q-2 -29 12.5 -53t37.5 -44zM1084 986q-5 -7 -28.5 -37t-59.5 -77t-83 -107.5
t-100 -128.5q39 -2 76 -6q2 -1 7 -1q33 70 65 132t58 109.5t43.5 77.5t21.5 38z" />
    <glyph glyph-name="B" unicode="B" horiz-adv-x="1118" 
d="M611 1215q15 -4 27 -5.5t20 -4.5t10.5 -9t-2.5 -19q-3 -7 -6.5 -20t-8 -29.5t-9.5 -36t-10 -38.5q-11 -45 -24 -97q55 73 117 129q27 24 57.5 46.5t64 40t69 27t71.5 7.5q64 -4 89 -54t17 -131q-5 -44 -23 -99t-50 -115t-80 -120.5t-112 -115.5q31 -10 58 -30t43.5 -53
t19 -82t-13.5 -117q57 7 109 19t99 34t89 57t80 89q9 13 22.5 18.5t23.5 3.5t13.5 -13.5t-6.5 -32.5q-33 -67 -80 -110.5t-105 -70.5t-125.5 -41t-140.5 -22q-31 -89 -77.5 -157.5t-103 -118t-120.5 -82.5t-128.5 -51.5t-128 -24t-118.5 -0.5q-33 3 -75.5 13.5t-79.5 32.5
t-61.5 56.5t-21.5 85.5q2 45 17 80t40 61.5t59 45t74 32.5q7 72 28.5 170.5t58.5 214.5t90 245.5t123 263.5q-59 -47 -107 -83q-21 -16 -41.5 -31t-38 -26.5t-31 -18.5t-19.5 -7q-12 0 -23 6t-15 14.5t2 17.5t28 15q14 3 44 23t67.5 48t78.5 59t77 56.5t62.5 41.5t36.5 13z
M566 810q-49 -93 -84.5 -175.5t-60.5 -155t-40.5 -135.5t-24.5 -116q72 10 145.5 16t143.5 16q34 5 66 8l64 6q4 14 9.5 34t9 43t3.5 46.5t-6 44.5t-20 36.5t-38 22.5q-20 -13 -40.5 -24t-42.5 -22q-46 -22 -78.5 -23.5t-49.5 10t-18.5 31.5t13.5 41t48 39.5t85 25.5
q12 2 28.5 3.5t36.5 1.5q33 37 65 85t60 102t48.5 112.5t29.5 118.5q6 44 -6.5 61t-45.5 23q-23 4 -53.5 -13.5t-62.5 -46.5t-64 -64t-57.5 -67t-42.5 -55.5t-20 -29.5zM189 96q-1 4 -1 12q-41 -22 -66.5 -55t-28.5 -82q-2 -24 12 -45t38.5 -36t57.5 -22.5t69 -3.5
q110 12 190 48.5t137 85.5t93 103t57 102q-24 -2 -48.5 -5t-48.5 -6q-35 -5 -72.5 -8.5t-76.5 -7t-78.5 -8t-76.5 -10.5q-6 -53 -8 -93t-3.5 -67t-5 -42t-12.5 -17q-27 -5 -50.5 3.5t-41 28.5t-27.5 52t-9 73zM574 480q17 -1 45 17q-16 -3 -29 -5.5t-20.5 -5t-7 -4.5
t11.5 -2z" />
    <glyph glyph-name="C" unicode="C" horiz-adv-x="801" 
d="M815 1187q58 4 95 -13.5t57 -47t25.5 -66.5t-0.5 -72q-6 -39 -20.5 -72.5t-31.5 -61.5t-33.5 -50t-27.5 -37q-19 -27 -37.5 -30.5t-29.5 5.5t-12.5 26t14.5 31q5 5 20.5 24.5t32.5 46t31.5 55.5t18.5 53q2 15 5 37t-3.5 41.5t-28.5 30.5t-70 4q-23 -4 -71.5 -36.5
t-110 -92t-130 -144.5t-132 -192.5t-116 -236.5t-81.5 -276q-2 -12 -3 -32.5t1 -45t7.5 -49.5t16.5 -45t28 -32.5t41 -11.5q51 2 108 28t115.5 68t116 94.5t110 107.5t98.5 108t80.5 95t56.5 69.5t26 30.5q8 6 20 8.5t22 -0.5t14.5 -11.5t-1.5 -24.5q-3 -8 -26 -41.5
t-61 -82t-88.5 -107.5t-110.5 -119t-126.5 -115.5t-135.5 -97.5t-138.5 -64.5t-135.5 -16.5q-29 3 -67.5 19t-72.5 51t-56.5 92.5t-18.5 142.5q2 42 20.5 108.5t50.5 146.5t77.5 169t101.5 176t121 167t137 142t149.5 101.5t158.5 45.5z" />
    <glyph glyph-name="D" unicode="D" horiz-adv-x="1156" 
d="M438 1198q19 8 39 6t36.5 -10.5t29.5 -22.5t19 -30q9 -24 15.5 -49.5t11.5 -52.5q85 96 162.5 154.5t137.5 63.5q86 6 143 -19.5t90.5 -68.5t46 -97t9.5 -105q-2 -28 -15 -98.5t-42 -164t-76 -200.5t-116 -209q64 12 123.5 27t111 35.5t94 47t72.5 60.5q7 7 15.5 3.5
t15 -12.5t9.5 -20t-1 -17q-33 -45 -84.5 -78.5t-116.5 -57.5t-141 -40.5t-157 -27.5q-47 -58 -103.5 -109t-123.5 -91t-144 -66.5t-166 -36.5q-32 -48 -64.5 -80t-64 -45t-60.5 -4t-54 43q-17 23 -25 54t-10 69q-38 22 -63.5 57.5t-19.5 92.5q4 33 37 55.5t90 38.5
q24 76 60 159t79.5 167t94 166.5t103.5 158.5q13 130 15 272q0 26 -5.5 40.5t-11 22.5t-6.5 11.5t10 7.5zM914 1202q-38 -3 -77 -20t-79 -45.5t-80.5 -68t-79.5 -86.5q9 -83 5 -175.5t-18.5 -188t-38.5 -190.5t-55 -183q58 5 117.5 10t119.5 11q50 74 90 156t70.5 163
t52.5 157t36.5 138.5t22.5 107.5t10 64q6 45 -5.5 74.5t-28.5 46.5t-35.5 23t-26.5 6zM316 229q32 104 60.5 231.5t47.5 273.5q-39 -65 -75.5 -132.5t-68 -135t-59 -132.5t-48.5 -125q32 6 68 10.5t75 9.5zM375 -20q91 27 164.5 82.5t134.5 130.5q-53 -5 -104.5 -8
t-102.5 -7q-21 -55 -44 -105t-48 -93zM209 -41q20 37 41.5 88.5t44.5 116.5q-42 -4 -78 -9t-67 -11q-30 -96 -38 -161q29 -11 55.5 -16.5t41.5 -7.5zM22 64q-2 -17 8.5 -30.5t27.5 -24.5q4 52 21 114q-26 -11 -41 -25.5t-16 -33.5zM139 -125q14 -1 40 35q-14 2 -32 5.5
t-38 10.5q2 -22 9 -35.5t21 -15.5z" />
    <glyph glyph-name="E" unicode="E" horiz-adv-x="834" 
d="M790 1259q54 -2 85.5 -14t46.5 -30.5t16.5 -42.5t-4.5 -50q-15 -65 -59 -113.5t-105.5 -81t-135.5 -48.5t-148 -15q-9 -27 -12 -54v-12.5t1.5 -24.5t5.5 -30.5t13 -31.5q78 15 113 9q24 -5 35.5 -21.5t8 -34t-25 -31.5t-63.5 -12q-47 2 -86 9q-39 -30 -82.5 -73.5
t-82.5 -95t-69.5 -108t-43.5 -112t-4 -108t48 -96.5q31 -35 76.5 -42t99 6.5t113 44t118.5 72t115 89.5t103.5 96.5t83.5 94t55 80.5q9 17 19 21t17.5 -1t10 -17t-2.5 -28q-4 -11 -25 -42t-56 -74.5t-82.5 -95.5t-104 -105t-120.5 -103t-132 -89t-138 -63t-139 -26
q-49 -1 -96.5 13t-86.5 43t-65.5 72.5t-32.5 101.5q-9 82 2.5 152.5t39 129t67.5 106t87.5 85.5t98.5 66t101 48q-39 26 -60 62t-19 84q0 21 2 40.5t6 38.5q-44 16 -80.5 41t-61.5 58.5t-36 75.5t-4 93q3 21 12.5 32.5t19.5 11.5t16.5 -11.5t2.5 -35.5q-6 -40 2.5 -73
t28.5 -59.5t49.5 -46t65.5 -32.5q22 64 62 111.5t87.5 82t98.5 56.5t96.5 35.5t81 18t52.5 4.5zM782 1186q-25 -4 -61.5 -27t-75 -59t-74.5 -82.5t-61 -95.5q63 2 124.5 16t111.5 38.5t83 60t40 80.5q4 27 -3 42t-20.5 21.5t-30.5 7t-33 -1.5zM579 684q-14 0 -38 -11
q16 -5 33 -4q27 1 24.5 7t-19.5 8z" />
    <glyph glyph-name="G" unicode="G" horiz-adv-x="1311" 
d="M1013 520q9 -1 27.5 -16t35.5 -36.5t28.5 -46t7.5 -43.5q-32 -137 -66 -255q62 35 120.5 73.5t111.5 81.5t99 91t84 103q9 13 25.5 15.5t29.5 -5t16 -24t-15 -40.5q-44 -60 -99.5 -113.5t-120 -102t-135.5 -92t-146 -83.5q-57 -173 -122 -306.5t-134.5 -232
t-141.5 -165.5t-144 -108t-141 -58.5t-133 -17.5q-82 0 -133 23t-79.5 55.5t-37.5 68t-6 61.5q9 83 49 151t103.5 125.5t147 107.5t178.5 96.5t198 91.5t206 93q29 81 53 155.5t42 137.5q-36 -44 -80 -92t-94.5 -94t-106 -87t-114 -71t-119 -45t-119.5 -10q-29 3 -69 19.5
t-76 51.5t-62 92.5t-27 142.5q-1 42 12 105t38.5 137.5t62.5 156t84.5 161t105 152t123.5 129t139.5 92.5t154.5 42q57 4 95.5 -13.5t60.5 -47t29.5 -66.5t3.5 -72q-4 -39 -16.5 -72.5t-27.5 -61.5t-30.5 -50t-25.5 -37q-17 -27 -35 -30.5t-30 5.5t-14.5 26t12.5 31
q5 5 19 24.5t29.5 46t28 55.5t15.5 53q1 15 3 37t-6 41.5t-30.5 30.5t-69.5 4q-23 -4 -67 -30.5t-98.5 -77t-113.5 -125t-112.5 -173t-96 -221.5t-62.5 -270q-1 -12 -1 -32.5t3.5 -45t10.5 -49.5t19 -45t29.5 -32.5t41.5 -11.5q62 2 128.5 34.5t130.5 81.5t123.5 107.5
t108.5 114t85 100t53 66.5l6 27q1 7 8.5 11t31.5 0zM192 -778q64 -2 124 25t115.5 75.5t105.5 115t94.5 144t84 162.5t73.5 170q-96 -46 -189.5 -88.5t-177.5 -85.5t-155.5 -86.5t-124.5 -89.5t-83.5 -96.5t-32.5 -107.5q-1 -23 7 -47t27.5 -44t52 -33t79.5 -14z" />
    <glyph glyph-name="H" unicode="H" horiz-adv-x="1511" 
d="M874 1216q21 1 44.5 -1.5t40.5 -13.5t23.5 -33.5t-5.5 -61.5q-56 -171 -123 -332t-138 -307q86 42 173 84t173 84q65 129 142 250t156.5 215.5t156.5 151.5t141 58q42 0 71.5 -17.5t46 -45.5t21 -62t-3.5 -67q-18 -72 -69 -138t-127 -127.5t-171.5 -119.5t-202.5 -113
q-50 -116 -89.5 -229.5t-61 -208t-22 -161.5t27.5 -89q11 -9 47 2.5t88 41t114 75.5t125.5 106t122.5 133t105 156q16 29 29.5 38t22.5 4.5t12 -19t-2 -33.5q-13 -49 -54 -114t-100 -133.5t-131.5 -135t-148 -118.5t-149.5 -84t-137 -32q-51 0 -82.5 25t-48 65t-20 88.5
t2.5 96.5q11 88 45 195.5t86 223.5q-89 -42 -176 -82t-172 -81q-76 -148 -146.5 -267.5t-124.5 -204.5q-28 -44 -69 -73.5t-85.5 -44t-87.5 -13.5t-75.5 18t-50.5 50t-11 83q7 60 45.5 117t100.5 112t143.5 108t175.5 105q41 87 82.5 177t78.5 174.5t68.5 159t54.5 131.5
t35.5 93t11.5 42q-3 15 -33 8t-74 -26.5t-95 -47t-95.5 -53.5t-75.5 -46.5t-36 -25.5q-8 -9 -19.5 -9t-18.5 7.5t-4.5 22.5t21.5 36q36 41 82.5 73.5t96.5 58.5t100.5 44.5t94 30.5t77 18.5t50.5 7.5zM1658 1239q-36 2 -81.5 -37t-95 -106.5t-101 -158t-99.5 -190.5
q87 47 162.5 95t133.5 96.5t96 99t49 102.5q3 13 5 29.5t-3 31.5t-20 25.5t-46 12.5zM231 -118q35 54 83.5 144t102.5 201q-70 -39 -128.5 -78.5t-101.5 -79.5t-69 -81t-30 -84q-3 -25 12 -42.5t38 -22.5t48.5 4.5t44.5 38.5z" />
    <glyph glyph-name="I" unicode="I" horiz-adv-x="820" 
d="M993 1200q21 1 39.5 -6t30.5 -20.5t15 -32t-6 -40.5q-7 -18 -29 -67.5t-56 -121.5t-78.5 -161t-96 -185.5t-108.5 -195.5t-116.5 -191t-120 -171.5t-118.5 -138t-112.5 -90t-102.5 -26.5q-15 1 -37.5 7.5t-43.5 21t-36.5 39.5t-16.5 65q0 8 2.5 27t11.5 41.5t27 46
t49 41.5q17 10 28 7t16 -12t4 -20t-7 -16q-24 -21 -37.5 -46.5t-17 -49.5t2 -44t18.5 -31.5t33.5 -11t47.5 18.5q13 8 40.5 48t65.5 102t83.5 141.5t95 167.5t99.5 180t97 179t88 164t71 135.5t48 93t18 36.5q2 10 -6 15.5t-21 1.5q-77 -24 -154.5 -56t-145 -80
t-120.5 -115.5t-83 -162.5q-9 -29 -12.5 -55t-7 -45t-10.5 -29.5t-25 -8.5q-12 1 -17 14.5t-5.5 32.5t2 40t5.5 38q10 67 46 131.5t90 122.5t122.5 107t143.5 85t153.5 57t153.5 23z" />
    <glyph glyph-name="J" unicode="J" horiz-adv-x="1074" 
d="M174 503q14 75 42 160t71.5 169.5t102.5 162t134.5 136t166.5 92t200 30.5q89 -2 149 -44.5t74 -133.5q1 -7 -7 -44.5t-25 -98t-42.5 -139.5t-59.5 -169t-76 -187t-92 -193q77 19 148 42.5t129.5 54.5t102 71t67.5 91q5 10 15.5 17t20 8t15.5 -6t1 -24
q-19 -66 -68.5 -114.5t-119.5 -84t-157 -60.5t-181 -45q-63 -114 -136.5 -218.5t-157.5 -184.5t-178 -128.5t-197 -51.5q-62 -2 -102.5 19.5t-65.5 54t-35.5 69.5t-10.5 67q-1 62 27 109t77 83.5t117 63t147 48t166 39t175 35.5q48 84 91.5 172.5t80 174.5t66 166.5
t49 149.5t29.5 122.5t8 85.5q-1 13 -1 31.5t-4.5 34.5t-16 27t-35.5 11q-103 -2 -200.5 -50.5t-181.5 -137.5t-151 -215t-110 -281q-6 -24 -18 -34t-23 -7.5t-18 16.5t-2 38zM114 -297q60 7 121 45.5t121 99t117.5 139.5t111.5 168q-76 -14 -150 -29.5t-140.5 -34t-123 -42
t-99 -54.5t-68 -70.5t-29.5 -90.5q-1 -12 5 -36t21.5 -47t43 -38t69.5 -10z" />
    <glyph glyph-name="K" unicode="K" horiz-adv-x="1134" 
d="M602 1222q37 -1 57 -13.5t29.5 -31t11.5 -40t2 -39.5q-2 -120 -12 -228.5t-26 -208.5q93 59 186 122t178.5 132t160.5 146t132 165q8 13 21.5 16.5t24.5 -1t16.5 -16t-1.5 -28.5q-30 -70 -90 -138t-140 -135t-175 -132.5t-195 -130.5q-5 -25 -12 -68.5t-14.5 -98
t-13.5 -116t-9.5 -122.5t-2 -117t9.5 -99.5t24.5 -71t43.5 -30.5q39 -5 81.5 15.5t85.5 57.5t86 85.5t81.5 100t72 102t58.5 91t40 67t17 29.5q4 6 14 11.5t19 4.5t13.5 -10t-1.5 -31q-4 -13 -21.5 -46.5t-46 -79.5t-66.5 -100.5t-82 -109.5t-93 -106.5t-99.5 -91.5
t-101 -64.5t-97.5 -25.5q-51 -1 -83 31t-50.5 84t-25 119.5t-5.5 138t7.5 138t13.5 121.5q-42 -171 -101.5 -303t-126 -222t-137 -136.5t-134.5 -47.5q-52 -1 -84 17.5t-49 47.5t-22 63t-3 65q6 90 48 169t110.5 150.5t158.5 137.5t192 132q30 111 50.5 213.5t33 182
t17.5 128.5t4 52q-5 11 -10 17.5t-22 4.5q-23 -2 -49 -19t-48.5 -38t-39 -42t-22.5 -30q-3 -6 -10.5 -2.5t-14 10.5t-11 15.5t-1.5 13.5q2 3 11 17.5t24.5 34t37.5 41.5t48.5 40t58.5 29.5t68 11.5zM136 -138q52 43 97.5 105.5t84.5 138t71 160.5t59 172
q-84 -60 -158.5 -121t-132 -123.5t-94 -127t-45.5 -131.5q-3 -23 6 -44.5t26 -34.5t39.5 -13.5t46.5 19.5z" />
    <glyph glyph-name="L" unicode="L" horiz-adv-x="1045" 
d="M1066 1230q52 -1 78.5 -20.5t36.5 -44.5t9 -50t-3 -37q-11 -62 -51 -117t-98.5 -100.5t-131 -80.5t-150.5 -56q-39 -85 -77.5 -176t-78.5 -180t-83 -172.5t-89 -152.5q77 -23 140.5 -46.5t122 -30.5t115 9t118.5 72t134 158.5t161 268.5q4 9 14 11t19 -2t13 -14.5
t-3 -27.5q-77 -183 -156 -299.5t-158.5 -182t-159 -88.5t-157.5 -20t-154 24t-148 45q-45 -44 -92 -69.5t-101 -28.5q-17 -1 -40 3.5t-44 17.5t-36 36t-15 59q0 13 4 39t18.5 52t42 45t75.5 18q37 -2 70.5 -5t65.5 -8q30 59 63 132t69 153t75 164t81 166q-94 -3 -174.5 19.5
t-129.5 76.5q-10 11 -14.5 25t-1.5 23.5t14.5 11t32.5 -11.5q27 -17 63.5 -26t80 -11.5t93 1t100.5 12.5q49 87 100.5 163.5t106.5 132.5t112.5 88.5t117.5 31.5zM1088 1153q-37 -5 -71.5 -28t-67 -61t-64 -88.5t-61.5 -109.5q57 21 109 47t93 55.5t69 62t38 67.5
q3 10 0.5 20t-8.5 18.5t-15.5 13t-21.5 3.5zM144 -99q27 5 63 56q-17 4 -33 7.5t-32 5.5q-36 6 -58.5 -7t-25 -29t17.5 -28t68 -5z" />
    <glyph glyph-name="M" unicode="M" horiz-adv-x="1420" 
d="M1493 1006q10 1 19.5 -5t14 -19t1.5 -34t-18 -51q-6 -11 -34 -59.5t-68.5 -120t-88 -158.5t-92.5 -176t-82 -173t-56.5 -148.5t-16 -102.5t40.5 -36q26 2 59.5 24.5t70 58.5t75 82t75 93.5t69 93.5t58 83t42 61t20.5 28q7 7 18 10t19 0.5t11 -11t-5 -24.5q-9 -17 -30 -53
t-51.5 -83t-68.5 -101t-81 -106.5t-89.5 -99t-93 -79.5t-92 -48t-86.5 -3q-67 19 -92 67t-20.5 114t32 144.5t66.5 158.5t82 155t79 133.5t58.5 95.5t18.5 41t-28 -13t-62 -49.5t-86 -77.5t-99.5 -98t-102 -110t-93.5 -114t-75 -110.5t-45 -98.5l-6 -37q-5 -32 -27 -39.5
t-45 5t-39.5 43t-10.5 75.5q16 121 47 224t67.5 186.5t74.5 147.5t68 106.5t47.5 63t14.5 18.5q-95 -65 -182 -136t-163 -143.5t-138.5 -144t-107.5 -136.5t-71 -121t-29 -97q0 -3 -1 -4q2 -24 5.5 -44t4.5 -35.5t-3.5 -26.5t-18.5 -17q-23 -9 -55.5 -7t-58 26t-36.5 75.5
t7 140.5q3 15 24.5 75.5t77 171.5t153.5 275.5t254 387.5q4 5 -3 3t-20.5 -8t-30.5 -15t-33 -17.5t-28.5 -15.5t-17.5 -9q-11 -5 -20 -3.5t-13.5 7.5t-2 16t16.5 24q7 7 35.5 26t67.5 39t82.5 35.5t81.5 14.5q37 -1 55 -13.5t23.5 -29.5t3 -36t-6.5 -32q-10 -31 -34.5 -72.5
t-58.5 -93t-76 -110.5t-86 -123.5t-88 -133.5t-83 -140q52 68 114.5 136t128 129.5t131.5 114.5t124.5 91.5t106 59t76.5 18.5q25 -2 41 -13t24 -27t8 -36t-7 -39q-11 -28 -43 -75.5t-74 -114t-88.5 -151t-85.5 -186.5q49 64 114.5 138t138 147t147.5 141t142.5 120.5
t122.5 85t89 34.5z" />
    <glyph glyph-name="N" unicode="N" horiz-adv-x="941" 
d="M1016 1006q10 1 19.5 -5t13.5 -19t0.5 -34t-18.5 -51q-5 -9 -25 -42t-50 -83.5t-67 -114t-76.5 -133t-77.5 -142t-70.5 -140t-56 -126.5t-33 -102.5t-2 -68t36.5 -22.5q26 2 60 24.5t71.5 58.5t77 82t77 93.5t71.5 93.5t60.5 83t43.5 61t21 28q8 7 18.5 10t19 0.5t11 -11
t-6.5 -24.5q-9 -17 -31 -53t-53.5 -83t-71 -101t-83.5 -106.5t-91.5 -99t-95 -79.5t-93.5 -48t-87 -3q-66 19 -90 67t-18 114t35.5 144.5t70 158.5t86 155t83 133.5t60.5 95.5t19 41q-3 4 -28 -13.5t-64.5 -50.5t-89.5 -79t-102.5 -99t-105 -111t-96.5 -115.5t-76.5 -111
t-45.5 -98.5q2 -20 4.5 -37t2.5 -30t-5 -22.5t-18 -15.5q-24 -9 -56 -7t-57 26t-35 75.5t10 140.5q4 15 26.5 75.5t81 171.5t160.5 275.5t264 387.5q3 5 -4 3t-20.5 -8t-30.5 -15t-33 -17.5t-29 -15.5t-18 -9q-12 -4 -20.5 -1.5t-12 9t-0.5 16t15 20.5q7 6 36 25t68.5 39.5
t83.5 36t81 14.5t54.5 -13.5t23 -29.5t2.5 -36t-7 -32q-12 -35 -43 -84t-74 -109.5t-94 -130.5t-102.5 -146t-101 -156.5t-88.5 -161.5q36 48 83.5 102.5t101.5 111.5t112.5 113.5t117 108.5t114 97.5t104 79t88 53.5t65.5 22z" />
    <glyph glyph-name="O" unicode="O" horiz-adv-x="1111" 
d="M574 1202q14 5 24.5 1t16 -12t6 -17.5t-4.5 -14.5q-67 -67 -126 -146t-108 -164t-88 -174t-66 -176.5t-41.5 -170.5t-15.5 -157q0 -86 19 -137t46 -78.5t55.5 -36t46.5 -9.5q42 -1 86 17.5t87.5 52.5t86.5 80.5t83 101.5q-51 21 -96.5 58t-81.5 90t-58.5 122t-26.5 155
q-1 16 3 50.5t13.5 80.5t26 100t41 108.5t58.5 106.5t78.5 93.5t100 69t124.5 34.5q20 2 49.5 -1.5t62.5 -18t65 -42t57 -73.5t38.5 -113.5t9.5 -161.5q-3 -62 -20 -135.5t-46.5 -151t-70 -157t-90.5 -153.5q53 11 105 34t97.5 57t82.5 77.5t61 96.5q4 8 16 10t23 -1.5
t17.5 -13t-1.5 -25.5q-41 -81 -101 -139.5t-125 -97t-128.5 -59t-110.5 -26.5q-55 -68 -117 -125.5t-130 -98t-140.5 -60.5t-148.5 -14q-18 1 -45.5 8t-58.5 23t-63 43.5t-59 70t-46.5 102.5t-24.5 141q-4 49 7 129.5t38.5 176t71.5 197t106.5 194t144.5 166t185 113.5z
M518 594q-6 -81 7.5 -143t42 -107t69.5 -73.5t89 -42.5q51 76 94 158.5t75 159t50.5 142.5t20.5 110q5 116 -5.5 187t-27.5 110t-37 51.5t-33 12.5q-74 -2 -128.5 -40t-92.5 -95.5t-61.5 -125.5t-37 -130.5t-19 -110t-6.5 -63.5z" />
    <glyph glyph-name="P" unicode="P" horiz-adv-x="945" 
d="M482 1253q15 -4 31.5 -9.5t29.5 -18t20 -35t3 -59.5l-17 -145q50 54 99 98.5t95 76t88.5 49.5t78.5 18q65 0 98.5 -25.5t47 -63.5t13 -80.5t-2.5 -76.5q-6 -100 -26.5 -188t-50 -164.5t-67 -141t-78.5 -117.5q69 4 128 23.5t101 69.5q18 22 30.5 26.5t19 -1t5.5 -18
t-10 -25.5q-26 -37 -61.5 -60.5t-76.5 -37t-86 -18.5t-90 -6q-42 -47 -83.5 -82t-80 -59t-71 -36t-54.5 -12q-36 -1 -69.5 11t-55.5 35q-29 -92 -63.5 -171t-75 -134t-87.5 -82t-101 -16q-54 12 -74.5 58t-14 117t37.5 161.5t79 191t110 205.5t132 205q15 84 27 158.5
t19 130t9 88.5t-3 35q-13 5 -32 -8.5t-38 -33.5t-34.5 -41t-22.5 -31q-10 -14 -21 -17t-18.5 0.5t-10.5 13.5t3 23q9 19 37.5 56t67.5 74t83 63.5t83 25.5zM857 1134q-30 0 -66.5 -20.5t-78.5 -56.5t-87.5 -86t-92.5 -110q-16 -109 -38.5 -239.5t-54.5 -261.5q25 10 57.5 14
t69 4t77 -2t81.5 -4q41 67 72.5 150t53 167.5t33 164.5t12.5 142.5t-8.5 100t-29.5 37.5zM86 -170q13 0 28.5 26.5t33 74.5t36.5 113.5t37.5 141.5t37 159.5t35.5 167.5q-50 -83 -93.5 -165.5t-77 -158t-55.5 -140.5t-28.5 -113t4 -76.5t42.5 -29.5zM528 205q48 10 89 41.5
t77 79.5q-55 3 -100.5 5.5t-73.5 -2.5q-53 -11 -74 -34.5t-16.5 -46.5t31 -37.5t67.5 -5.5z" />
    <glyph glyph-name="Q" unicode="Q" horiz-adv-x="1045" 
d="M757 1202q34 13 54.5 7.5t29 -19t5.5 -29.5t-16 -23q-143 -83 -252.5 -180.5t-189.5 -200.5t-131.5 -207.5t-78.5 -201t-31 -180.5t11.5 -146.5t49 -98.5t81.5 -36q53 0 103 12q-53 72 -72.5 162t-12 187.5t40 198t83.5 195t117 178.5t142 147.5t158 102t165 42.5
q46 2 80.5 -8.5t59 -30.5t39 -47t22 -57.5t8 -62t-3.5 -60.5q-34 -224 -106 -393t-166.5 -289t-203 -195t-215.5 -112q41 -44 95.5 -70t123.5 -29q13 -1 17 -9.5t-0.5 -18t-17 -15.5t-33.5 -2q-85 17 -150 48.5t-113 74.5q-59 -14 -113 -16.5t-102 4.5q-40 6 -82 25t-77 54
t-58.5 87t-24.5 124q-1 80 20.5 178.5t65 204t108.5 211t150.5 200t191 171t229.5 123.5zM1024 1036q-133 -21 -238.5 -88.5t-181.5 -163.5t-123 -211t-63 -231.5t-1.5 -224.5t60.5 -190q76 33 142.5 89t124 126t105.5 150.5t86.5 161.5t68 159t48.5 144t29 115.5t10 73.5
q0 9 -0.5 25.5t-6.5 32t-20 26t-40 6.5z" />
    <glyph glyph-name="R" unicode="R" horiz-adv-x="1165" 
d="M575 1246q15 -1 24.5 -6.5t15 -14.5t9 -21t7.5 -24q14 -38 18.5 -85.5t2.5 -102.5q59 52 115.5 93.5t108 71.5t96.5 46.5t80 17.5q87 2 136.5 -27t70 -76t16 -104t-23.5 -111q-35 -98 -81 -174.5t-98.5 -135t-108.5 -100.5t-111.5 -70.5t-108 -44.5t-96.5 -23
q-2 -41 -3 -91t1 -101.5t7.5 -100t16.5 -86t29 -60t44 -21.5q37 1 81 26.5t91 66.5t95.5 93t93.5 107.5t84.5 109t70 97.5t49.5 73.5t23 37.5q3 6 14 9.5t21.5 1.5t15 -10.5t-5.5 -26.5q-6 -11 -27.5 -45t-55 -82.5t-77.5 -106.5t-93.5 -116.5t-104 -113t-109 -97t-108 -67
t-102.5 -23.5q-49 2 -80 28.5t-49 69.5t-25.5 97.5t-7.5 112t4 112.5t8 99q-24 2 -37 6q-21 -62 -41.5 -116t-38 -97.5t-32 -74t-23.5 -44.5q-51 -83 -92.5 -126t-75 -62t-60.5 -19.5t-49 2.5q-44 6 -64 30t-26.5 54t-3.5 59.5t6 46.5q22 105 67.5 212.5t107 211.5
t135.5 201.5t153 184.5q13 85 17 167.5t-4 161.5q0 7 -7 5t-16 -8.5t-18.5 -13.5t-15.5 -8q-6 -2 -12.5 -0.5t-11 6.5t-5.5 13.5t5 21.5q5 12 23 27.5t42.5 28.5t52 21t51.5 7zM1026 1150q-27 -2 -67.5 -20.5t-90 -51t-106.5 -78t-118 -100.5q-10 -84 -29 -173t-44 -178
q35 -2 58 -23t23 -74v-10q51 18 110.5 57.5t118.5 100.5t112.5 144.5t93.5 191.5q10 26 20 64t8.5 73t-21 58t-68.5 19zM111 -105q13 1 37.5 33t55.5 87.5t66 131.5t69 165.5t64 189.5t52 204q-69 -78 -133 -163.5t-117 -176t-93 -184t-61 -186.5q-5 -21 -4 -40t7.5 -33.5
t20.5 -22t36 -5.5zM535 429q9 -3 20 -3q2 21 0 26q-2 4 -4 7.5t-4 5.5z" />
    <glyph glyph-name="S" unicode="S" horiz-adv-x="766" 
d="M948 1198q21 0 36.5 -5t22 -13t4 -18.5t-17.5 -22.5q-35 -27 -61.5 -52.5t-48 -52t-39 -56t-33.5 -63.5q-7 -16 -17.5 -48.5t-22.5 -77t-26 -98t-28 -110t-28 -113.5t-27 -109q78 15 153.5 43t145.5 84q17 13 29 16t16.5 -2.5t-0.5 -18.5t-23 -31q-32 -33 -70.5 -57
t-81.5 -41.5t-89.5 -30t-94.5 -21.5q-14 -55 -24.5 -95.5t-16.5 -58.5q-35 -95 -91 -165t-120 -114t-129.5 -63t-119.5 -13q-73 9 -112.5 39.5t-51 73.5t1 94t44.5 100q45 70 99 112.5t115.5 67t128 36.5t135.5 21q15 67 29 138.5t29.5 144t35 144.5t45.5 140
q35 92 79 149.5t86.5 90t79.5 44.5t58 12zM178 -121q70 13 120.5 47.5t87 86.5t61.5 118t44 141q-66 -12 -129 -27t-118.5 -39t-101.5 -60.5t-78 -91.5q-9 -14 -16 -35t-8.5 -43t3.5 -43t20.5 -35.5t43.5 -20.5t71 2z" />
    <glyph glyph-name="T" unicode="T" horiz-adv-x="678" 
d="M1191 1360q49 2 88 -6.5t65.5 -25t39 -39t6.5 -49.5q-6 -26 -26 -46.5t-53 -35.5t-77 -22.5t-96 -6.5q-38 1 -79 6t-85 13q-19 -29 -35.5 -58.5t-29.5 -57.5t-22.5 -51.5t-15.5 -40.5q-83 -238 -159.5 -414.5t-147 -302.5t-133.5 -206.5t-118 -127t-102 -65t-85 -20.5
q-21 -2 -52.5 4t-66.5 29q-14 9 -18 22t0.5 23t15 14.5t24.5 -2.5q6 -3 18 -2.5t27 3.5t32.5 7.5t34.5 10.5q47 16 92.5 69t89.5 130.5t87 172.5t84.5 196.5t81.5 202.5t79 189q16 36 33.5 74.5t38.5 78t45.5 78t54.5 73.5q-85 17 -163 27.5t-135 -0.5q-41 -8 -69.5 -28
t-48 -45t-31 -49.5t-17.5 -40.5q-5 -16 -16 -22t-21 -2t-16 16.5t0 33.5q3 13 13.5 43t33.5 63t61.5 62t99.5 41q25 5 65.5 3t89 -9t102 -17t106.5 -20q58 54 133.5 88t176.5 39zM1177 1300q-45 -4 -84.5 -30t-73.5 -64q39 -8 70.5 -12.5t48.5 -4.5q40 0 70 7t48 18
t24.5 24.5t1.5 25.5q-6 12 -17.5 19.5t-26 12t-30.5 5t-31 -0.5z" />
    <glyph glyph-name="U" unicode="U" horiz-adv-x="1153" 
d="M18 969q5 11 31 36t65.5 51t88.5 45.5t101 19.5q64 0 103.5 -18.5t61.5 -47.5t29.5 -64.5t7 -69.5t-5.5 -62.5t-9 -43.5q-12 -48 -40 -111t-63.5 -133.5t-74 -145t-72 -145.5t-57.5 -135t-30 -112.5t10 -78.5t62 -34q29 -2 71 21t91.5 64.5t103 97.5t105 119.5t98 131
t82.5 131.5q32 99 67.5 192.5t67 169t55 126t31.5 64.5q13 23 35 38t46.5 23t48.5 10t42.5 -0.5t28 -9t4.5 -14.5q-21 -36 -51.5 -105t-65 -158t-70.5 -191t-69 -203t-59 -194t-41 -164.5t-15.5 -114.5t18.5 -44q42 -2 84 20t82 59.5t77 86.5t70 100.5t61 102t49 91.5
t34.5 67.5t17.5 30.5q8 8 17.5 13.5t17.5 5.5t13.5 -7.5t5.5 -25.5q0 -9 -13.5 -42t-37.5 -80.5t-58.5 -105t-76 -115.5t-89.5 -111t-100.5 -92.5t-107.5 -60.5t-110 -13q-36 5 -58.5 27t-34 57.5t-13 82.5t5 102.5t19 117t30.5 125.5q-26 -46 -63 -100.5t-81.5 -109.5
t-94.5 -106t-101 -90.5t-101.5 -63.5t-95.5 -24q-53 0 -91 13.5t-63 36t-39.5 51t-20 59t-5 60t5.5 54.5q9 46 34.5 109.5t59.5 137t72 152t72 154t59 142.5t33 118.5t-5.5 82t-56.5 31.5q-30 1 -62.5 -16.5t-61 -39.5t-50.5 -42t-31 -25t-17 -3t-12.5 7.5t-5 14.5t4.5 20z
M839 622l-2 -4q2 4 2.5 6t-0.5 -2z" />
    <glyph glyph-name="V" unicode="V" horiz-adv-x="810" 
d="M409 1150q3 3 10.5 14t21.5 22.5t35.5 20.5t52.5 7q49 -3 67 -23t10 -41q-1 -4 -19 -39t-47 -91t-65.5 -130t-75 -157t-76.5 -171t-69 -172t-52 -160.5t-27 -137t6 -100t49 -50.5q20 -6 65 28t105.5 100.5t132.5 161.5t146.5 212t147 251t135.5 279q-26 10 -47.5 25.5
t-35 38t-16.5 51.5t8 65q13 43 34.5 68.5t45 38.5t46.5 15.5t38 -0.5q25 -5 39 -20t20.5 -36.5t6.5 -46.5t-2.5 -49.5t-7 -46t-6.5 -35.5l-2 -7q33 1 84.5 13t122.5 55q9 5 20.5 2t19.5 -10.5t10 -18t-8 -20.5q-25 -25 -61 -42.5t-75.5 -28.5t-78 -17t-67.5 -7
q-25 -53 -66 -133t-94 -173.5t-115.5 -194t-130 -195.5t-138 -177.5t-140 -140t-135.5 -83.5t-124 -8q-55 17 -81 64t-29.5 114.5t12 151t43.5 174t65 184t76 181t77 164.5t68.5 134.5t50 91.5t20.5 35zM929 1150q-4 -7 -3 -22.5t8 -33t20 -34t34 -23.5q8 20 16 40.5
t16 40.5q3 8 4.5 24t-2 32.5t-13 29t-28.5 14.5q-13 1 -21.5 -6t-14 -18.5t-9 -23.5t-7.5 -20z" />
    <glyph glyph-name="W" unicode="W" horiz-adv-x="1322" 
d="M1610 1035q34 1 85.5 13t122.5 55q8 5 19.5 2t19.5 -10.5t10 -18t-8 -20.5q-24 -24 -58 -40.5t-71.5 -28t-74.5 -17.5t-66 -8q-22 -63 -59.5 -144.5t-86.5 -172.5t-107.5 -186.5t-121.5 -185t-128.5 -168.5t-129.5 -137.5t-124.5 -91.5t-112.5 -31q-63 3 -97 27t-47.5 58
t-12 74t9 74.5t17.5 59.5l12 30q-5 -6 -33.5 -38.5t-72.5 -76.5t-99 -91.5t-112.5 -81.5t-113.5 -47.5t-102 9.5q-42 21 -54.5 70.5t-3 119.5t38.5 155.5t70 178t91 187.5t101.5 184.5t102 168.5t92.5 139.5t72.5 98t42.5 42.5q18 12 44.5 17.5t54 5t51.5 -8t37 -20.5
t11.5 -32t-25.5 -44q-70 -75 -135.5 -164.5t-124 -185.5t-108.5 -193t-89 -187.5t-65.5 -169t-37.5 -136.5t-5.5 -91t30.5 -33q31 0 75.5 33t95.5 84.5t104 115t99.5 125.5t83 116.5t54.5 87.5q10 19 27 32.5t38 19.5t44 2t46 -19q15 -11 19 -20.5t1.5 -19t-9.5 -19.5
t-13 -20q-3 -5 -16.5 -30t-32 -61.5t-39.5 -82t-40.5 -91.5t-34 -89.5t-20 -76.5t1 -53t29.5 -19q40 2 85.5 32t94 81t99 119t100 145.5t97.5 162t91.5 167.5t81 162t67.5 146q-26 10 -47 26t-34.5 38t-16.5 51t8 65q13 43 34.5 68.5t45 38.5t46.5 15.5t38 -0.5
q25 -5 39 -20t20.5 -36.5t6.5 -46.5t-2.5 -49.5t-7 -46t-6.5 -35.5zM1456 1150q-4 -7 -3 -22.5t8 -33t20 -34t34 -23.5l32 81q3 8 4.5 24t-2 32.5t-13 29t-28.5 14.5q-13 1 -21.5 -6t-14 -18.5t-9 -23.5t-7.5 -20z" />
    <glyph glyph-name="X" unicode="X" horiz-adv-x="1502" 
d="M1577 1325q13 26 27 36t27 7.5t23.5 -14t17.5 -27t9 -33t-3 -30.5q-39 -107 -114 -217t-172.5 -218t-213 -212t-235.5 -200q29 -101 58 -193t58 -162.5t57.5 -114t57.5 -48.5q34 -6 72 13t76.5 54.5t76 84t72.5 101t65.5 105.5t54.5 97.5t40 77t21 43.5q8 18 22.5 25
t26.5 4.5t17 -15.5t-4 -35q-39 -91 -88 -181t-104 -170t-115 -144.5t-121 -105.5t-121.5 -52.5t-116.5 14.5q-44 20 -80 66t-67 110.5t-58 143.5t-51 166q-133 -98 -257 -180t-223 -141.5t-165 -93.5t-82 -37q-34 -6 -46 1.5t-11.5 20t11 26t21.5 20.5q203 126 381 258.5
t333 264.5q-30 117 -60.5 233t-65 215.5t-75.5 175t-92 110.5q-21 14 -25.5 31.5t4.5 33t29 27.5t47.5 16t60.5 -3t68 -29q31 -20 62.5 -85t63.5 -158.5t64 -207.5t65 -231q147 133 265 255.5t204 222t138.5 172t69.5 107.5z" />
    <glyph glyph-name="Y" unicode="Y" horiz-adv-x="1400" 
d="M1382 1159q9 9 29 17t43.5 14.5t48.5 11t44.5 5.5t30 -1.5t6.5 -10.5q-72 -131 -136.5 -267.5t-124 -274t-115 -273.5t-109.5 -266q127 70 244 157.5t217 202.5q15 17 29.5 19t23 -6t9 -23.5t-12.5 -33.5q-49 -65 -110.5 -122.5t-132 -108t-148.5 -95.5t-159 -86
q-57 -135 -115 -259t-119.5 -229.5t-127.5 -190.5t-139.5 -142.5t-156.5 -84.5t-178 -18q-65 6 -109.5 26t-73.5 47t-44.5 58.5t-22 59.5t-7 50.5t0.5 31.5q9 79 49 142t103.5 116.5t147.5 99.5t181.5 89.5t205 88.5t218.5 96q42 103 82.5 206t78.5 204q-31 -41 -70 -84.5
t-82.5 -85t-89.5 -78.5t-92.5 -64.5t-91 -43.5t-84.5 -16q-53 0 -91 13.5t-63.5 35.5t-39.5 51t-20 59t-5 60t6 54q9 46 33.5 107t57 130.5t68.5 142.5t67.5 142.5t54.5 131.5t29 109t-8.5 75t-57.5 30q-30 1 -62.5 -16.5t-61 -39.5t-50.5 -42t-31 -25t-17 -3.5t-12.5 7.5
t-5.5 15t4 20q5 10 31 35.5t65.5 51t89 45.5t101.5 20q64 0 103.5 -18.5t61.5 -47.5t29.5 -64.5t7 -69.5t-5.5 -62.5t-9 -43.5q-12 -48 -39 -108t-61 -126.5t-70 -136t-67.5 -135t-53 -123.5t-26 -102.5t12.5 -72t63 -31.5q28 -2 69.5 17.5t91 55t103.5 84t106.5 105
t101 117.5t86.5 121q38 98 74 186.5t70 160.5t66.5 125t62.5 82zM234 -830q84 -6 163.5 51.5t154.5 160t146 240t137 291.5q-98 -44 -193 -85t-180.5 -82t-159.5 -83.5t-130 -89.5t-90.5 -98.5t-41.5 -110.5q-2 -15 2 -45t24 -61.5t59.5 -57t108.5 -30.5z" />
    <glyph glyph-name="Z" unicode="Z" horiz-adv-x="1200" 
d="M882 1242q49 2 82.5 -8t55.5 -30t35 -48.5t22 -61.5q18 -68 8 -155t-40.5 -179.5t-78 -185.5t-103.5 -173q91 -30 140.5 -95.5t48.5 -178.5q58 36 109.5 73.5t94 77t75 81.5t52.5 87q4 9 13.5 12t18.5 0t14 -11.5t1 -21.5q-20 -57 -57 -107.5t-87 -97.5t-111.5 -90.5
t-129.5 -85.5q-1 -3 -1 -8q-28 -176 -74.5 -316.5t-105 -249.5t-126 -189t-136 -135.5t-135.5 -89t-125 -50t-104 -18.5t-72 7q-47 15 -77.5 40t-47.5 57t-22.5 69.5t-0.5 78.5q9 90 49.5 168.5t103.5 147.5t144.5 130.5t172.5 118t187.5 109.5t190.5 105l2 14
q7 54 1.5 94.5t-19.5 70.5t-35.5 50.5t-46.5 32.5q-60 -64 -119 -101.5t-112 -38.5q-55 -1 -88.5 26.5t-30.5 84.5q1 28 24.5 60t61 58.5t86 43.5t101.5 15l24 -2q35 70 69 150.5t60.5 160t42 152.5t14.5 128.5t-22.5 87t-68.5 28.5q-53 -4 -102.5 -20.5t-93 -39.5
t-80.5 -49.5t-65 -50t-47 -40t-26 -20.5q-11 -5 -22.5 -0.5t-19 14t-9 23t7.5 25.5q6 8 31 30.5t63 51t88 60t107 58t118 45t122 21.5zM180 -933q88 11 166 60.5t145.5 123.5t124.5 164t101.5 182.5t76.5 179t51 153.5q-86 -47 -172.5 -95.5t-168 -100t-153.5 -106.5
t-128.5 -117t-95 -132t-51.5 -149q-5 -27 -0.5 -57.5t17.5 -55t34.5 -39.5t52.5 -11zM554 202q16 2 40.5 29.5t53.5 74.5q-38 0 -68 -6.5t-43 -14.5q-20 -12 -29.5 -28t-7.5 -29.5t15 -21.5t39 -4z" />
    <glyph glyph-name="F" unicode="F" horiz-adv-x="875" 
d="M1190 1306q49 2 88 -6.5t65.5 -25t39 -39t6.5 -49.5q-6 -26 -26 -46.5t-53 -35.5t-77 -22.5t-96 -6.5q-38 1 -79 6t-85 13q-32 -42 -61 -87t-51.5 -86.5t-38.5 -76t-23 -54.5l-34 -95h43q25 37 63.5 64.5t97.5 32.5q23 2 39.5 -7.5t24.5 -24.5t8 -34t-9.5 -36.5
t-29.5 -31.5t-50 -19q-23 -4 -52 -5t-63 -1q-18 -35 -29 -66.5t-12 -44.5q-2 -16 -14.5 -30t-25.5 -17.5t-21 8.5t0 47q8 18 17 45.5t23 58.5h-32q-74 -200 -139 -339t-121.5 -230.5t-106 -143t-93 -77t-82.5 -32t-75 -8.5q-21 -2 -52.5 4t-66.5 29q-14 9 -18 22t0.5 23
t15 14.5t24.5 -2.5q6 -3 18 -2.5t27 3.5t32.5 7.5t34.5 10.5q63 22 115 90t99 165t92 214.5t95 238.5q-64 -10 -127 -29t-123 -54q-15 -9 -23.5 -6t-10 12.5t5 23t21.5 24.5q54 42 128.5 62.5t154.5 29.5l19 43q18 40 42 89t54.5 101.5t67.5 105t81 99.5q-87 17 -166 28
t-138 0q-41 -8 -69.5 -28t-48 -45t-31 -49.5t-17.5 -40.5q-5 -16 -16 -22t-21 -2t-16 16.5t0 33.5q3 13 13.5 43t33.5 63t61.5 62t99.5 41q26 5 67.5 2.5t91.5 -9.5t105 -17.5t108 -20.5q63 54 138 89t163 40zM1176 1246q-38 -4 -77 -29.5t-77 -65.5q38 -7 68 -11.5t47 -4.5
q40 0 70 7t48 18t24.5 24.5t1.5 25.5q-6 12 -17.5 19.5t-26 12t-30.5 5t-31 -0.5zM955 708q16 8 19.5 15t-2.5 10.5t-20.5 2t-33.5 -8.5t-39 -30q27 1 46.5 3.5t29.5 7.5z" />
    <glyph glyph-name="germandbls" unicode="&#xdf;" horiz-adv-x="710" 
d="M666 1072q66 -1 107.5 -21.5t63.5 -52t29 -70.5t4 -76q-3 -53 -22.5 -105t-48.5 -99.5t-64 -89t-70 -73t-66.5 -51.5t-52.5 -25q27 -19 44 -50q14 -26 19 -67t-14 -98q-21 -64 -56 -106t-76.5 -66.5t-85 -33.5t-82 -8t-68 11t-41.5 23q-7 7 -9 17t1 18t12 11.5t24 -3.5
q39 -18 81.5 -7.5t80.5 39t68.5 69t44.5 82.5t9 80t-37 61q-40 -9 -69 -7q-25 1 -41.5 13.5t-5.5 44.5q6 17 28 22.5t46 4.5q28 -1 63 -8q14 0 39 22.5t54.5 60t59.5 85t55.5 98t42 99.5t18 89.5t-15 67.5t-57.5 33q-33 5 -75.5 -36.5t-89.5 -113.5t-96 -166t-96.5 -194
t-89.5 -197.5t-75.5 -175.5t-55 -129.5t-26.5 -59.5q-11 -16 -39 -33.5t-58 -29t-54 -13t-27 14.5q-1 6 12 43.5t38 97.5t59.5 137t76.5 163t90 175.5t98.5 174t102.5 159t103 130t99 87.5t91 32z" />
    <glyph glyph-name="circumflex" unicode="&#x2c6;" 
d="M406 808q0 2 17.5 3.5t38.5 2.5q25 1 56 0l56 -141l-99 -7l-19 76l-96 -79l-112 -3q44 39 79 71q15 13 29 26.5t25 24t18 17.5t7 9z" />
    <glyph glyph-name="macron" unicode="&#xaf;" 
d="M314 751q6 1 30.5 1.5t57.5 1t70.5 1t69 0.5h53h23.5q7 -1 7 -14t-4.5 -28t-13 -27.5t-18.5 -12.5h-22t-52.5 -0.5t-68 -1t-68 -1t-52.5 -0.5h-22q-14 -1 -17 11.5t0.5 28t11 28.5t15.5 13z" />
    <glyph glyph-name="tilde" unicode="&#x2dc;" 
d="M282 738q24 33 47.5 41.5t48 5t50.5 -13.5t55 -14.5t61.5 2.5t70.5 38q8 6 12.5 -0.5t4 -20.5t-7.5 -32t-23 -35t-42 -29.5t-65 -14.5q-32 -1 -61 9.5t-55.5 20t-51.5 12.5t-50 -13q-4 -3 -4 3t1.5 14t4 16.5t4.5 10.5z" />
    <glyph glyph-name="breve" unicode="&#x2d8;" 
d="M422 649q-51 1 -71.5 20.5t-25 44t0.5 46.5t7 28q4 -1 17.5 1t28.5 4q18 3 39 7q-8 -23 -8 -41q0 -16 7 -28.5t28 -12.5q16 0 28 12t20 27q9 18 15 40l72 -7q-11 -40 -32 -72q-9 -14 -21 -26.5t-27.5 -22.5t-35 -15.5t-42.5 -4.5zM333 790v-2q-1 1 0 2z" />
    <glyph glyph-name="dotaccent" unicode="&#x2d9;" 
d="M378 713q0 25 17.5 42t43.5 17t44 -17t18 -42t-18 -42t-44 -17t-43.5 17t-17.5 42z" />
    <glyph glyph-name="acute" unicode="&#xb4;" 
d="M475 790q3 -1 14.5 -1h26t30.5 0.5t29 1t20.5 0.5t5.5 -1q-3 -1 -13.5 -10t-25 -21.5t-31.5 -27t-32 -27t-26 -21t-14 -9.5q-5 -2 -19.5 -2.5t-30 0t-27.5 2t-12 4.5t14.5 21t33 38.5t35.5 37t22 15.5z" />
    <glyph glyph-name="grave" unicode="`" 
d="M414 796q-2 -2 9.5 -21.5t25.5 -42.5l38 -62q-25 -4 -44 -7q-17 -2 -32 -2.5t-17 3.5q-2 2 -10 12.5t-19.5 24.5t-24 29.5t-22 29t-13.5 22t1 8.5q7 0 25.5 1.5t37.5 3t32.5 2t12.5 -0.5z" />
    <glyph glyph-name="ring" unicode="&#x2da;" 
d="M489 867q18 0 30 -7t18.5 -18.5t9.5 -26t3 -28.5t-2.5 -26.5t-4.5 -19.5q-11 -28 -27 -46t-32.5 -28.5t-31 -14.5t-22.5 -4q-18 0 -31 7t-21 19t-12 27.5t-4 31.5q0 26 12 50t30.5 43t41 30t43.5 11zM489 816q-13 0 -26.5 -7t-24.5 -18.5t-18 -26.5t-7 -31q0 -13 4 -23.5
t13 -10.5q4 0 12.5 2t18 8t18.5 17.5t16 31.5q2 3 2.5 11t0.5 18q0 11 -1.5 20t-7.5 9z" />
    <glyph glyph-name="cedilla" unicode="&#xb8;" 
d="M158 50q3 -2 17.5 0t30.5 3.5t28 2t10 -2.5q-5 -8 -12.5 -23.5t-7.5 -26.5q0 -5 6.5 -21t13 -36.5t10.5 -41t0 -33.5q-5 -16 -14 -35t-25.5 -37t-41.5 -32.5t-61 -20.5t-56.5 2t-30 21.5t-11.5 28t-1 20.5q2 12 6.5 16.5t23.5 -12.5q16 -15 33.5 -14.5t33.5 9.5t28 22.5
t17 25.5q4 9 1 21.5t-8 27t-10 28.5t-6 25t2 26t7.5 28t9.5 21.5t7 7.5z" />
    <glyph glyph-name="ogonek" unicode="&#x2db;" 
d="M246 -251q-27 13 -38 45.5t-8 72.5t19 83.5t43 79.5q3 4 21 7.5t37.5 4.5t34.5 -1t12 -8q-2 -6 -20 -31t-37.5 -60t-34.5 -75.5t-12 -77.5q1 -9 4 -19t3 -17.5t-4.5 -9.5t-19.5 6z" />
    <glyph glyph-name="caron" unicode="&#x2c7;" 
d="M416 667q0 -3 -17.5 -4t-38.5 -2q-25 -1 -56 0l-56 141l99 8l19 -76l96 78l112 3q-45 -39 -79 -71q-15 -14 -29 -27t-25.5 -24t-18 -18t-6.5 -8z" />
    <glyph glyph-name="hungarumlaut" unicode="&#x2dd;" horiz-adv-x="953" 
d="M410 789q5 -1 26.5 -1t45 1t41 1t13.5 -1q-3 -1 -13.5 -9.5t-25 -21t-31.5 -27.5t-32 -27.5t-26 -21t-14 -9.5q-5 -1 -19 -1.5t-30 0t-28 1.5t-12 4t14.5 21t33.5 38.5t35.5 37t21.5 15.5zM594 785q5 -1 26.5 -1t45 1t41 1t13.5 -1q-3 -1 -13.5 -9.5t-25 -21t-31.5 -27.5
t-32 -27.5t-26 -21t-14 -9.5q-5 -1 -19 -1.5t-30 0t-28 1.5t-12 4t14.5 21t33.5 38.5t35.5 37t21.5 15.5z" />
    <glyph glyph-name="dotlessi" unicode="&#x131;" horiz-adv-x="422" 
d="M262 530q18 -1 30 -8t18 -17t7.5 -20.5t0.5 -17.5q-6 -27 -30 -72.5t-53 -97t-55.5 -104.5t-37.5 -95q-6 -23 6.5 -24t32.5 12q34 23 79 61.5t92 83t92.5 89.5t81.5 82.5t59.5 62t26.5 26.5q4 3 11.5 3t14 -3.5t10 -9.5t-0.5 -15q-3 -6 -25 -32.5t-57 -66t-81 -88
t-96 -97.5t-102 -95.5t-99 -82.5q-7 -5 -23 -15.5t-36.5 -20t-44.5 -15.5t-48 -3q-37 5 -45.5 40.5t1.5 87t33.5 112.5t49.5 117t49.5 100t34.5 63q16 27 33 40t31.5 17.5t25 3.5t14.5 -1z" />
    <glyph glyph-name="dieresis" unicode="&#xa8;" horiz-adv-x="839" 
d="M562 713q0 25 17 42t43 17t44 -17t18 -42t-18 -42t-44 -17t-43 17t-17 42zM378 713q0 25 17.5 42t43.5 17t44 -17t18 -42t-18 -42t-44 -17t-43.5 17t-17.5 42z" />
    <glyph glyph-name="Adieresis" unicode="&#xc4;" horiz-adv-x="1266" 
d="M1303 1268q23 3 38.5 -2.5t25.5 -13.5q11 -10 19 -22q-53 -95 -110 -201q-24 -45 -51.5 -97.5t-57 -109.5t-59 -117.5t-58.5 -121.5q68 -34 113 -94t50 -154q66 31 118.5 67.5t87.5 76.5q12 14 24.5 16.5t21.5 -3t11 -18t-8 -29.5q-13 -23 -37.5 -46.5t-58 -46t-74.5 -44
t-87 -40.5q-3 -29 -9 -61q-15 -75 -52.5 -145.5t-85.5 -124.5t-102 -86.5t-102 -32.5q-65 0 -101.5 28t-51 76t-9.5 112.5t23 138.5q-17 2 -32.5 3.5t-30.5 4.5q-33 5 -78 15.5t-91 26.5q-42 -53 -78.5 -99t-65 -81.5t-47 -57.5t-24.5 -27q-14 -12 -34 -33t-44.5 -42
t-53.5 -38t-60 -22t-63.5 7t-64.5 50q-12 13 -18 35t-3 40t17 24.5t41 -9.5q8 -5 15.5 -13t15.5 -16.5t16 -15.5t16 -10q22 -8 58.5 14.5t83.5 68.5t103.5 111.5t118.5 143.5q-28 15 -51 33t-37.5 40t-18.5 48t6 57q13 43 50.5 78t90.5 61t118.5 42t135.5 22
q60 79 119.5 156t116 146t108.5 128.5t98 103.5t83.5 70t65.5 30zM1143 242q-63 -22 -128.5 -38t-131.5 -24q-18 -57 -29 -104.5t-12 -83.5t9 -58.5t33 -27.5q34 -8 73 18t75 71t65 103t41 116zM527 271q33 -17 67 -26t60 -11q20 -2 41 -3t42 -1q24 81 57.5 167t71.5 168
h-12t-12 1q-21 1 -42.5 1t-42.5 -2zM906 244q64 10 125.5 26.5t118.5 38.5q1 87 -34 139t-92 79q-34 -74 -64 -145.5t-54 -137.5zM649 551q-49 -9 -91.5 -23.5t-74 -33t-50 -40.5t-19.5 -46q-2 -29 12.5 -53t37.5 -44zM1084 986q-5 -7 -28.5 -37t-59.5 -77t-83 -107.5
t-100 -128.5q39 -2 76 -6q2 -1 7 -1q33 70 65 132t58 109.5t43.5 77.5t21.5 38zM1188 1427q0 25 17.5 42t43.5 17t44 -17t18 -42t-18 -42t-44 -17t-43.5 17t-17.5 42zM1372 1427q0 25 17 42t43 17t44 -17t18 -42t-18 -42t-44 -17t-43 17t-17 42z" />
    <glyph glyph-name="Aring" unicode="&#xc5;" horiz-adv-x="1266" 
d="M1303 1268q23 3 38.5 -2.5t25.5 -13.5q11 -10 19 -22q-53 -95 -110 -201q-24 -45 -51.5 -97.5t-57 -109.5t-59 -117.5t-58.5 -121.5q68 -34 113 -94t50 -154q66 31 118.5 67.5t87.5 76.5q12 14 24.5 16.5t21.5 -3t11 -18t-8 -29.5q-13 -23 -37.5 -46.5t-58 -46t-74.5 -44
t-87 -40.5q-3 -29 -9 -61q-15 -75 -52.5 -145.5t-85.5 -124.5t-102 -86.5t-102 -32.5q-65 0 -101.5 28t-51 76t-9.5 112.5t23 138.5q-17 2 -32.5 3.5t-30.5 4.5q-33 5 -78 15.5t-91 26.5q-42 -53 -78.5 -99t-65 -81.5t-47 -57.5t-24.5 -27q-14 -12 -34 -33t-44.5 -42
t-53.5 -38t-60 -22t-63.5 7t-64.5 50q-12 13 -18 35t-3 40t17 24.5t41 -9.5q8 -5 15.5 -13t15.5 -16.5t16 -15.5t16 -10q22 -8 58.5 14.5t83.5 68.5t103.5 111.5t118.5 143.5q-28 15 -51 33t-37.5 40t-18.5 48t6 57q13 43 50.5 78t90.5 61t118.5 42t135.5 22
q60 79 119.5 156t116 146t108.5 128.5t98 103.5t83.5 70t65.5 30zM1143 242q-63 -22 -128.5 -38t-131.5 -24q-18 -57 -29 -104.5t-12 -83.5t9 -58.5t33 -27.5q34 -8 73 18t75 71t65 103t41 116zM527 271q33 -17 67 -26t60 -11q20 -2 41 -3t42 -1q24 81 57.5 167t71.5 168
h-12t-12 1q-21 1 -42.5 1t-42.5 -2zM906 244q64 10 125.5 26.5t118.5 38.5q1 87 -34 139t-92 79q-34 -74 -64 -145.5t-54 -137.5zM1443 1581q18 0 30 -7t18.5 -18.5t9.5 -26t3 -28.5t-2.5 -26.5t-4.5 -19.5q-11 -28 -27 -46t-32.5 -28.5t-31 -14.5t-22.5 -4q-18 0 -31 7
t-21 19t-12 27.5t-4 31.5q0 26 12 50t30.5 43t41 30t43.5 11zM649 551q-49 -9 -91.5 -23.5t-74 -33t-50 -40.5t-19.5 -46q-2 -29 12.5 -53t37.5 -44zM1084 986q-5 -7 -28.5 -37t-59.5 -77t-83 -107.5t-100 -128.5q39 -2 76 -6q2 -1 7 -1q33 70 65 132t58 109.5t43.5 77.5
t21.5 38zM1443 1530q-13 0 -26.5 -7t-24.5 -18.5t-18 -26.5t-7 -31q0 -13 4 -23.5t13 -10.5q4 0 12.5 2t18 8t18.5 17.5t16 31.5q2 3 2.5 11t0.5 18q0 11 -1.5 20t-7.5 9z" />
    <glyph glyph-name="Ccedilla" unicode="&#xc7;" horiz-adv-x="801" 
d="M815 1187q58 4 95 -13.5t57 -47t25.5 -66.5t-0.5 -72q-6 -39 -20.5 -72.5t-31.5 -61.5t-33.5 -50t-27.5 -37q-19 -27 -37.5 -30.5t-29.5 5.5t-12.5 26t14.5 31q5 5 20.5 24.5t32.5 46t31.5 55.5t18.5 53q2 15 5 37t-3.5 41.5t-28.5 30.5t-70 4q-23 -4 -71.5 -36.5
t-110 -92t-130 -144.5t-132 -192.5t-116 -236.5t-81.5 -276q-2 -12 -3 -32.5t1 -45t7.5 -49.5t16.5 -45t28 -32.5t41 -11.5q51 2 108 28t115.5 68t116 94.5t110 107.5t98.5 108t80.5 95t56.5 69.5t26 30.5q8 6 20 8.5t22 -0.5t14.5 -11.5t-1.5 -24.5q-3 -8 -25 -40
t-58.5 -79.5t-86 -105t-107.5 -116t-122.5 -114t-132 -98t-136 -68t-133.5 -24.5q-2 -4 -2 -12q0 -5 6.5 -21t13 -36.5t10.5 -41t0 -33.5q-5 -16 -14 -35t-25.5 -37t-41.5 -32.5t-61 -20.5t-56.5 2t-30 21.5t-11.5 28t-1 20.5q2 12 6.5 16.5t23.5 -12.5q16 -15 33.5 -14.5
t33.5 9.5t28 22.5t17 25.5q4 9 1 21.5t-8 27t-10 28.5t-6 25q-2 14 3 32t10 32q-28 12 -57 34t-51.5 57t-36 84t-10.5 115q2 42 20.5 108.5t50.5 146.5t77.5 169t101.5 176t121 167t137 142t149.5 101.5t158.5 45.5z" />
    <glyph glyph-name="Eacute" unicode="&#xc9;" horiz-adv-x="834" 
d="M790 1259q54 -2 85.5 -14t46.5 -30.5t16.5 -42.5t-4.5 -50q-15 -65 -59 -113.5t-105.5 -81t-135.5 -48.5t-148 -15q-9 -27 -12 -54v-12.5t1.5 -24.5t5.5 -30.5t13 -31.5q78 15 113 9q24 -5 35.5 -21.5t8 -34t-25 -31.5t-63.5 -12q-47 2 -86 9q-39 -30 -82.5 -73.5
t-82.5 -95t-69.5 -108t-43.5 -112t-4 -108t48 -96.5q31 -35 76.5 -42t99 6.5t113 44t118.5 72t115 89.5t103.5 96.5t83.5 94t55 80.5q9 17 19 21t17.5 -1t10 -17t-2.5 -28q-4 -11 -25 -42t-56 -74.5t-82.5 -95.5t-104 -105t-120.5 -103t-132 -89t-138 -63t-139 -26
q-49 -1 -96.5 13t-86.5 43t-65.5 72.5t-32.5 101.5q-9 82 2.5 152.5t39 129t67.5 106t87.5 85.5t98.5 66t101 48q-39 26 -60 62t-19 84q0 21 2 40.5t6 38.5q-44 16 -80.5 41t-61.5 58.5t-36 75.5t-4 93q3 21 12.5 32.5t19.5 11.5t16.5 -11.5t2.5 -35.5q-6 -40 2.5 -73
t28.5 -59.5t49.5 -46t65.5 -32.5q22 64 62 111.5t87.5 82t98.5 56.5t96.5 35.5t81 18t52.5 4.5zM782 1186q-25 -4 -61.5 -27t-75 -59t-74.5 -82.5t-61 -95.5q63 2 124.5 16t111.5 38.5t83 60t40 80.5q4 27 -3 42t-20.5 21.5t-30.5 7t-33 -1.5zM890 1504q3 -1 14.5 -1h26
t30.5 0.5t29 1t20.5 0.5t5.5 -1q-3 -1 -13.5 -10t-25 -21.5t-31.5 -27t-32 -27t-26 -21t-14 -9.5q-5 -2 -19.5 -2.5t-30 0t-27.5 2t-12 4.5t14.5 21t33 38.5t35.5 37t22 15.5zM579 684q-14 0 -38 -11q16 -5 33 -4q27 1 24.5 7t-19.5 8z" />
    <glyph glyph-name="Ntilde" unicode="&#xd1;" horiz-adv-x="941" 
d="M1016 1006q10 1 19.5 -5t13.5 -19t0.5 -34t-18.5 -51q-5 -9 -25 -42t-50 -83.5t-67 -114t-76.5 -133t-77.5 -142t-70.5 -140t-56 -126.5t-33 -102.5t-2 -68t36.5 -22.5q26 2 60 24.5t71.5 58.5t77 82t77 93.5t71.5 93.5t60.5 83t43.5 61t21 28q8 7 18.5 10t19 0.5t11 -11
t-6.5 -24.5q-9 -17 -31 -53t-53.5 -83t-71 -101t-83.5 -106.5t-91.5 -99t-95 -79.5t-93.5 -48t-87 -3q-66 19 -90 67t-18 114t35.5 144.5t70 158.5t86 155t83 133.5t60.5 95.5t19 41q-3 4 -28 -13.5t-64.5 -50.5t-89.5 -79t-102.5 -99t-105 -111t-96.5 -115.5t-76.5 -111
t-45.5 -98.5q2 -20 4.5 -37t2.5 -30t-5 -22.5t-18 -15.5q-24 -9 -56 -7t-57 26t-35 75.5t10 140.5q4 15 26.5 75.5t81 171.5t160.5 275.5t264 387.5q3 5 -4 3t-20.5 -8t-30.5 -15t-33 -17.5t-29 -15.5t-18 -9q-12 -4 -20.5 -1.5t-12 9t-0.5 16t15 20.5q7 6 36 25t68.5 39.5
t83.5 36t81 14.5t54.5 -13.5t23 -29.5t2.5 -36t-7 -32q-12 -35 -43 -84t-74 -109.5t-94 -130.5t-102.5 -146t-101 -156.5t-88.5 -161.5q36 48 83.5 102.5t101.5 111.5t112.5 113.5t117 108.5t114 97.5t104 79t88 53.5t65.5 22zM715 1452q24 33 47.5 41.5t48 5t50.5 -13.5
t55 -14.5t61.5 2.5t70.5 38q8 6 12.5 -0.5t4 -20.5t-7.5 -32t-23 -35t-42 -29.5t-65 -14.5q-32 -1 -61 9.5t-55.5 20t-51.5 12.5t-50 -13q-4 -3 -4 3t1.5 14t4 16.5t4.5 10.5z" />
    <glyph glyph-name="Odieresis" unicode="&#xd6;" horiz-adv-x="1111" 
d="M574 1202q14 5 24.5 1t16 -12t6 -17.5t-4.5 -14.5q-67 -67 -126 -146t-108 -164t-88 -174t-66 -176.5t-41.5 -170.5t-15.5 -157q0 -86 19 -137t46 -78.5t55.5 -36t46.5 -9.5q42 -1 86 17.5t87.5 52.5t86.5 80.5t83 101.5q-51 21 -96.5 58t-81.5 90t-58.5 122t-26.5 155
q-1 16 3 50.5t13.5 80.5t26 100t41 108.5t58.5 106.5t78.5 93.5t100 69t124.5 34.5q20 2 49.5 -1.5t62.5 -18t65 -42t57 -73.5t38.5 -113.5t9.5 -161.5q-3 -62 -20 -135.5t-46.5 -151t-70 -157t-90.5 -153.5q53 11 105 34t97.5 57t82.5 77.5t61 96.5q4 8 16 10t23 -1.5
t17.5 -13t-1.5 -25.5q-41 -81 -101 -139.5t-125 -97t-128.5 -59t-110.5 -26.5q-55 -68 -117 -125.5t-130 -98t-140.5 -60.5t-148.5 -14q-18 1 -45.5 8t-58.5 23t-63 43.5t-59 70t-46.5 102.5t-24.5 141q-4 49 7 129.5t38.5 176t71.5 197t106.5 194t144.5 166t185 113.5z
M518 594q-6 -81 7.5 -143t42 -107t69.5 -73.5t89 -42.5q51 76 94 158.5t75 159t50.5 142.5t20.5 110q5 116 -5.5 187t-27.5 110t-37 51.5t-33 12.5q-74 -2 -128.5 -40t-92.5 -95.5t-61.5 -125.5t-37 -130.5t-19 -110t-6.5 -63.5zM769 1427q0 25 17.5 42t43.5 17t44 -17
t18 -42t-18 -42t-44 -17t-43.5 17t-17.5 42zM953 1427q0 25 17 42t43 17t44 -17t18 -42t-18 -42t-44 -17t-43 17t-17 42z" />
    <glyph glyph-name="Udieresis" unicode="&#xdc;" horiz-adv-x="1153" 
d="M18 969q5 11 31 36t65.5 51t88.5 45.5t101 19.5q64 0 103.5 -18.5t61.5 -47.5t29.5 -64.5t7 -69.5t-5.5 -62.5t-9 -43.5q-12 -48 -40 -111t-63.5 -133.5t-74 -145t-72 -145.5t-57.5 -135t-30 -112.5t10 -78.5t62 -34q29 -2 71 21t91.5 64.5t103 97.5t105 119.5t98 131
t82.5 131.5q32 99 67.5 192.5t67 169t55 126t31.5 64.5q13 23 35 38t46.5 23t48.5 10t42.5 -0.5t28 -9t4.5 -14.5q-21 -36 -51.5 -105t-65 -158t-70.5 -191t-69 -203t-59 -194t-41 -164.5t-15.5 -114.5t18.5 -44q42 -2 84 20t82 59.5t77 86.5t70 100.5t61 102t49 91.5
t34.5 67.5t17.5 30.5q8 8 17.5 13.5t17.5 5.5t13.5 -7.5t5.5 -25.5q0 -9 -13.5 -42t-37.5 -80.5t-58.5 -105t-76 -115.5t-89.5 -111t-100.5 -92.5t-107.5 -60.5t-110 -13q-36 5 -58.5 27t-34 57.5t-13 82.5t5 102.5t19 117t30.5 125.5q-26 -46 -63 -100.5t-81.5 -109.5
t-94.5 -106t-101 -90.5t-101.5 -63.5t-95.5 -24q-53 0 -91 13.5t-63 36t-39.5 51t-20 59t-5 60t5.5 54.5q9 46 34.5 109.5t59.5 137t72 152t72 154t59 142.5t33 118.5t-5.5 82t-56.5 31.5q-30 1 -62.5 -16.5t-61 -39.5t-50.5 -42t-31 -25t-17 -3t-12.5 7.5t-5 14.5t4.5 20z
M741 1427q0 25 17.5 42t43.5 17t44 -17t18 -42t-18 -42t-44 -17t-43.5 17t-17.5 42zM925 1427q0 25 17 42t43 17t44 -17t18 -42t-18 -42t-44 -17t-43 17t-17 42zM839 622l-2 -4q2 4 2.5 6t-0.5 -2z" />
    <glyph glyph-name="aacute" unicode="&#xe1;" horiz-adv-x="645" 
d="M607 607q18 0 29.5 -7.5t17.5 -17t7.5 -20t0.5 -17.5q-4 -19 -18 -48t-32.5 -64t-40.5 -74.5t-42 -77.5t-36 -74t-23 -64q-6 -23 1.5 -25.5t27.5 11.5q35 23 74 60.5t77.5 80t74 86t63 79t45.5 59t21 25.5q4 3 11.5 3t14 -3.5t10 -9.5t-0.5 -15q-3 -6 -19 -31.5
t-43 -63.5t-63 -84t-77.5 -94t-87.5 -93.5t-93 -81.5q-8 -5 -23.5 -15.5t-36.5 -20t-45 -15t-47 -2.5q-18 3 -28.5 14t-14.5 29t-2 41.5t8 50.5q-22 -23 -54 -46.5t-66.5 -42t-67 -31t-55.5 -13.5q-36 -1 -62 10t-42.5 29.5t-24 41.5t-7.5 46q0 32 10 73.5t29.5 86t49 88
t69 81t88.5 65t109 38.5q37 7 66 4t50.5 -13.5t35.5 -27.5t21 -36q12 23 21.5 40t15.5 26q16 28 33 40.5t31.5 17t25 3.5t14.5 -1zM152 80q17 1 43.5 13.5t55 34t55.5 50t46 61.5q15 38 32.5 77t34.5 75q6 30 1 47t-14.5 26t-21.5 11.5t-19 2.5q-18 1 -43 -15.5t-53 -44.5
t-56 -64t-51 -74t-39 -74.5t-19.5 -64.5t7 -45t41.5 -16zM450 790q3 -1 14.5 -1h26t30.5 0.5t29 1t20.5 0.5t5.5 -1q-3 -1 -13.5 -10t-25 -21.5t-31.5 -27t-32 -27t-26 -21t-14 -9.5q-5 -2 -19.5 -2.5t-30 0t-27.5 2t-12 4.5t14.5 21t33 38.5t35.5 37t22 15.5z" />
    <glyph glyph-name="agrave" unicode="&#xe0;" horiz-adv-x="645" 
d="M607 607q18 0 29.5 -7.5t17.5 -17t7.5 -20t0.5 -17.5q-4 -19 -18 -48t-32.5 -64t-40.5 -74.5t-42 -77.5t-36 -74t-23 -64q-6 -23 1.5 -25.5t27.5 11.5q35 23 74 60.5t77.5 80t74 86t63 79t45.5 59t21 25.5q4 3 11.5 3t14 -3.5t10 -9.5t-0.5 -15q-3 -6 -19 -31.5
t-43 -63.5t-63 -84t-77.5 -94t-87.5 -93.5t-93 -81.5q-8 -5 -23.5 -15.5t-36.5 -20t-45 -15t-47 -2.5q-18 3 -28.5 14t-14.5 29t-2 41.5t8 50.5q-22 -23 -54 -46.5t-66.5 -42t-67 -31t-55.5 -13.5q-36 -1 -62 10t-42.5 29.5t-24 41.5t-7.5 46q0 32 10 73.5t29.5 86t49 88
t69 81t88.5 65t109 38.5q37 7 66 4t50.5 -13.5t35.5 -27.5t21 -36q12 23 21.5 40t15.5 26q16 28 33 40.5t31.5 17t25 3.5t14.5 -1zM152 80q17 1 43.5 13.5t55 34t55.5 50t46 61.5q15 38 32.5 77t34.5 75q6 30 1 47t-14.5 26t-21.5 11.5t-19 2.5q-18 1 -43 -15.5t-53 -44.5
t-56 -64t-51 -74t-39 -74.5t-19.5 -64.5t7 -45t41.5 -16zM350 796q-2 -2 9.5 -21.5t25.5 -42.5l38 -62q-25 -4 -44 -7q-17 -2 -32 -2.5t-17 3.5q-2 2 -10 12.5t-19.5 24.5t-24 29.5t-22 29t-13.5 22t1 8.5q7 0 25.5 1.5t37.5 3t32.5 2t12.5 -0.5z" />
    <glyph glyph-name="acircumflex" unicode="&#xe2;" horiz-adv-x="645" 
d="M607 607q18 0 29.5 -7.5t17.5 -17t7.5 -20t0.5 -17.5q-4 -19 -18 -48t-32.5 -64t-40.5 -74.5t-42 -77.5t-36 -74t-23 -64q-6 -23 1.5 -25.5t27.5 11.5q35 23 74 60.5t77.5 80t74 86t63 79t45.5 59t21 25.5q4 3 11.5 3t14 -3.5t10 -9.5t-0.5 -15q-3 -6 -19 -31.5
t-43 -63.5t-63 -84t-77.5 -94t-87.5 -93.5t-93 -81.5q-8 -5 -23.5 -15.5t-36.5 -20t-45 -15t-47 -2.5q-18 3 -28.5 14t-14.5 29t-2 41.5t8 50.5q-22 -23 -54 -46.5t-66.5 -42t-67 -31t-55.5 -13.5q-36 -1 -62 10t-42.5 29.5t-24 41.5t-7.5 46q0 32 10 73.5t29.5 86t49 88
t69 81t88.5 65t109 38.5q37 7 66 4t50.5 -13.5t35.5 -27.5t21 -36q12 23 21.5 40t15.5 26q16 28 33 40.5t31.5 17t25 3.5t14.5 -1zM152 80q17 1 43.5 13.5t55 34t55.5 50t46 61.5q15 38 32.5 77t34.5 75q6 30 1 47t-14.5 26t-21.5 11.5t-19 2.5q-18 1 -43 -15.5t-53 -44.5
t-56 -64t-51 -74t-39 -74.5t-19.5 -64.5t7 -45t41.5 -16zM402 808q0 2 17.5 3.5t38.5 2.5q25 1 56 0l56 -141l-99 -7l-19 76l-96 -79l-112 -3q44 39 79 71q15 13 29 26.5t25 24t18 17.5t7 9z" />
    <glyph glyph-name="adieresis" unicode="&#xe4;" horiz-adv-x="645" 
d="M607 607q18 0 29.5 -7.5t17.5 -17t7.5 -20t0.5 -17.5q-4 -19 -18 -48t-32.5 -64t-40.5 -74.5t-42 -77.5t-36 -74t-23 -64q-6 -23 1.5 -25.5t27.5 11.5q35 23 74 60.5t77.5 80t74 86t63 79t45.5 59t21 25.5q4 3 11.5 3t14 -3.5t10 -9.5t-0.5 -15q-3 -6 -19 -31.5
t-43 -63.5t-63 -84t-77.5 -94t-87.5 -93.5t-93 -81.5q-8 -5 -23.5 -15.5t-36.5 -20t-45 -15t-47 -2.5q-18 3 -28.5 14t-14.5 29t-2 41.5t8 50.5q-22 -23 -54 -46.5t-66.5 -42t-67 -31t-55.5 -13.5q-36 -1 -62 10t-42.5 29.5t-24 41.5t-7.5 46q0 32 10 73.5t29.5 86t49 88
t69 81t88.5 65t109 38.5q37 7 66 4t50.5 -13.5t35.5 -27.5t21 -36q12 23 21.5 40t15.5 26q16 28 33 40.5t31.5 17t25 3.5t14.5 -1zM152 80q17 1 43.5 13.5t55 34t55.5 50t46 61.5q15 38 32.5 77t34.5 75q6 30 1 47t-14.5 26t-21.5 11.5t-19 2.5q-18 1 -43 -15.5t-53 -44.5
t-56 -64t-51 -74t-39 -74.5t-19.5 -64.5t7 -45t41.5 -16zM277 713q0 25 17.5 42t43.5 17t44 -17t18 -42t-18 -42t-44 -17t-43.5 17t-17.5 42zM461 713q0 25 17 42t43 17t44 -17t18 -42t-18 -42t-44 -17t-43 17t-17 42z" />
    <glyph glyph-name="atilde" unicode="&#xe3;" horiz-adv-x="645" 
d="M607 607q18 0 29.5 -7.5t17.5 -17t7.5 -20t0.5 -17.5q-4 -19 -18 -48t-32.5 -64t-40.5 -74.5t-42 -77.5t-36 -74t-23 -64q-6 -23 1.5 -25.5t27.5 11.5q35 23 74 60.5t77.5 80t74 86t63 79t45.5 59t21 25.5q4 3 11.5 3t14 -3.5t10 -9.5t-0.5 -15q-3 -6 -19 -31.5
t-43 -63.5t-63 -84t-77.5 -94t-87.5 -93.5t-93 -81.5q-8 -5 -23.5 -15.5t-36.5 -20t-45 -15t-47 -2.5q-18 3 -28.5 14t-14.5 29t-2 41.5t8 50.5q-22 -23 -54 -46.5t-66.5 -42t-67 -31t-55.5 -13.5q-36 -1 -62 10t-42.5 29.5t-24 41.5t-7.5 46q0 32 10 73.5t29.5 86t49 88
t69 81t88.5 65t109 38.5q37 7 66 4t50.5 -13.5t35.5 -27.5t21 -36q12 23 21.5 40t15.5 26q16 28 33 40.5t31.5 17t25 3.5t14.5 -1zM152 80q17 1 43.5 13.5t55 34t55.5 50t46 61.5q15 38 32.5 77t34.5 75q6 30 1 47t-14.5 26t-21.5 11.5t-19 2.5q-18 1 -43 -15.5t-53 -44.5
t-56 -64t-51 -74t-39 -74.5t-19.5 -64.5t7 -45t41.5 -16zM296 738q24 33 47.5 41.5t48 5t50.5 -13.5t55 -14.5t61.5 2.5t70.5 38q8 6 12.5 -0.5t4 -20.5t-7.5 -32t-23 -35t-42 -29.5t-65 -14.5q-32 -1 -61 9.5t-55.5 20t-51.5 12.5t-50 -13q-4 -3 -4 3t1.5 14t4 16.5
t4.5 10.5z" />
    <glyph glyph-name="aring" unicode="&#xe5;" horiz-adv-x="645" 
d="M607 607q18 0 29.5 -7.5t17.5 -17t7.5 -20t0.5 -17.5q-4 -19 -18 -48t-32.5 -64t-40.5 -74.5t-42 -77.5t-36 -74t-23 -64q-6 -23 1.5 -25.5t27.5 11.5q35 23 74 60.5t77.5 80t74 86t63 79t45.5 59t21 25.5q4 3 11.5 3t14 -3.5t10 -9.5t-0.5 -15q-3 -6 -19 -31.5
t-43 -63.5t-63 -84t-77.5 -94t-87.5 -93.5t-93 -81.5q-8 -5 -23.5 -15.5t-36.5 -20t-45 -15t-47 -2.5q-18 3 -28.5 14t-14.5 29t-2 41.5t8 50.5q-22 -23 -54 -46.5t-66.5 -42t-67 -31t-55.5 -13.5q-36 -1 -62 10t-42.5 29.5t-24 41.5t-7.5 46q0 32 10 73.5t29.5 86t49 88
t69 81t88.5 65t109 38.5q37 7 66 4t50.5 -13.5t35.5 -27.5t21 -36q12 23 21.5 40t15.5 26q16 28 33 40.5t31.5 17t25 3.5t14.5 -1zM152 80q17 1 43.5 13.5t55 34t55.5 50t46 61.5q15 38 32.5 77t34.5 75q6 30 1 47t-14.5 26t-21.5 11.5t-19 2.5q-18 1 -43 -15.5t-53 -44.5
t-56 -64t-51 -74t-39 -74.5t-19.5 -64.5t7 -45t41.5 -16zM531 867q18 0 30 -7t18.5 -18.5t9.5 -26t3 -28.5t-2.5 -26.5t-4.5 -19.5q-11 -28 -27 -46t-32.5 -28.5t-31 -14.5t-22.5 -4q-18 0 -31 7t-21 19t-12 27.5t-4 31.5q0 26 12 50t30.5 43t41 30t43.5 11zM531 816
q-13 0 -26.5 -7t-24.5 -18.5t-18 -26.5t-7 -31q0 -13 4 -23.5t13 -10.5q4 0 12.5 2t18 8t18.5 17.5t16 31.5q2 3 2.5 11t0.5 18q0 11 -1.5 20t-7.5 9z" />
    <glyph glyph-name="ccedilla" unicode="&#xe7;" horiz-adv-x="558" 
d="M406 575q30 1 50.5 -6t34 -17.5t21.5 -23t12 -22.5q17 -42 8.5 -80t-38.5 -66q-15 -14 -29 -14.5t-22 6.5t-6.5 19t18.5 24q10 7 17 26.5t6 39t-13.5 34t-42.5 11.5q-39 -4 -74 -24.5t-64.5 -50t-53 -64.5t-40.5 -68.5t-26.5 -61.5t-11.5 -43q-3 -29 2 -50t16 -35t25 -21
t29 -7q62 0 118 22.5t105 58t91.5 79.5t78 88.5t65 84.5t52.5 67q7 9 17.5 9.5t18 -4t10.5 -13.5t-4 -20q-8 -14 -32 -52t-62 -88.5t-89 -105.5t-113.5 -101.5t-135.5 -78.5t-155 -36q-1 -4 -1 -10q0 -5 6.5 -21t13 -36.5t10.5 -41t0 -33.5q-5 -16 -14 -35t-25.5 -37
t-41.5 -32.5t-61 -20.5t-56.5 2t-30 21.5t-11.5 28t-1 20.5q2 12 6.5 16.5t23.5 -12.5q16 -15 33.5 -14.5t33.5 9.5t28 22.5t17 25.5q4 9 1 21.5t-8 27t-10 28.5t-6 25q-2 13 2.5 30t9.5 31q-43 23 -68.5 68t-25.5 101q0 36 11 79.5t32.5 87.5t54 85t76 73t98 52.5
t120.5 22.5z" />
    <glyph glyph-name="eacute" unicode="&#xe9;" horiz-adv-x="511" 
d="M379 575q30 1 51.5 -4.5t36.5 -14.5t24 -20t13 -21q11 -29 9.5 -50.5t-8.5 -40.5q-17 -46 -49.5 -82t-72 -63.5t-81.5 -47t-79 -32t-64 -19t-36 -6.5q-2 -25 -0.5 -46t9 -36.5t21 -24t35.5 -7.5q62 2 118.5 27t106.5 62.5t93.5 84t80.5 92.5t67 87t53 68q7 9 17 9.5
t17.5 -4t10.5 -13.5t-3 -20q-6 -10 -22 -36.5t-40.5 -63t-57.5 -79t-73 -85.5t-86.5 -83.5t-98.5 -71t-109 -48t-118 -16.5q-48 1 -81.5 14.5t-55.5 37t-32 56t-10 70.5q0 36 12.5 81.5t36.5 92.5t59.5 91.5t81.5 79.5t102 57.5t122 24.5zM395 506q-49 -5 -91 -34.5t-75 -70
t-56.5 -85t-35.5 -78.5q32 7 75.5 24t86.5 42t81 56.5t59 69.5q7 12 8.5 25.5t-3.5 25.5t-17 19t-32 6zM447 790q3 -1 14.5 -1h26t30.5 0.5t29 1t20.5 0.5t5.5 -1t-13 -10t-25.5 -21.5t-31.5 -27t-32 -27t-26 -21t-14 -9.5q-5 -2 -19.5 -2.5t-30 0t-27.5 2t-12 4.5t14.5 21
t33 38.5t35.5 37t22 15.5z" />
    <glyph glyph-name="egrave" unicode="&#xe8;" horiz-adv-x="511" 
d="M379 575q30 1 51.5 -4.5t36.5 -14.5t24 -20t13 -21q11 -29 9.5 -50.5t-8.5 -40.5q-17 -46 -49.5 -82t-72 -63.5t-81.5 -47t-79 -32t-64 -19t-36 -6.5q-2 -25 -0.5 -46t9 -36.5t21 -24t35.5 -7.5q62 2 118.5 27t106.5 62.5t93.5 84t80.5 92.5t67 87t53 68q7 9 17 9.5
t17.5 -4t10.5 -13.5t-3 -20q-6 -10 -22 -36.5t-40.5 -63t-57.5 -79t-73 -85.5t-86.5 -83.5t-98.5 -71t-109 -48t-118 -16.5q-48 1 -81.5 14.5t-55.5 37t-32 56t-10 70.5q0 36 12.5 81.5t36.5 92.5t59.5 91.5t81.5 79.5t102 57.5t122 24.5zM395 506q-49 -5 -91 -34.5t-75 -70
t-56.5 -85t-35.5 -78.5q32 7 75.5 24t86.5 42t81 56.5t59 69.5q7 12 8.5 25.5t-3.5 25.5t-17 19t-32 6zM284 796q-2 -2 9.5 -21.5t25.5 -42.5l38 -62q-25 -4 -44 -7q-17 -2 -32 -2.5t-17 3.5q-2 2 -10 12.5t-19.5 24.5t-24 29.5t-22 29t-13.5 22t1 8.5q7 0 25.5 1.5t37.5 3
t32.5 2t12.5 -0.5z" />
    <glyph glyph-name="ecircumflex" unicode="&#xea;" horiz-adv-x="511" 
d="M379 575q30 1 51.5 -4.5t36.5 -14.5t24 -20t13 -21q11 -29 9.5 -50.5t-8.5 -40.5q-17 -46 -49.5 -82t-72 -63.5t-81.5 -47t-79 -32t-64 -19t-36 -6.5q-2 -25 -0.5 -46t9 -36.5t21 -24t35.5 -7.5q62 2 118.5 27t106.5 62.5t93.5 84t80.5 92.5t67 87t53 68q7 9 17 9.5
t17.5 -4t10.5 -13.5t-3 -20q-6 -10 -22 -36.5t-40.5 -63t-57.5 -79t-73 -85.5t-86.5 -83.5t-98.5 -71t-109 -48t-118 -16.5q-48 1 -81.5 14.5t-55.5 37t-32 56t-10 70.5q0 36 12.5 81.5t36.5 92.5t59.5 91.5t81.5 79.5t102 57.5t122 24.5zM395 506q-49 -5 -91 -34.5t-75 -70
t-56.5 -85t-35.5 -78.5q32 7 75.5 24t86.5 42t81 56.5t59 69.5q7 12 8.5 25.5t-3.5 25.5t-17 19t-32 6zM431 808q0 2 17.5 3.5t38.5 2.5q25 1 56 0l56 -141l-99 -7l-19 76l-96 -79l-112 -3q44 39 79 71q15 13 29 26.5t25 24t18 17.5t7 9z" />
    <glyph glyph-name="edieresis" unicode="&#xeb;" horiz-adv-x="511" 
d="M379 575q30 1 51.5 -4.5t36.5 -14.5t24 -20t13 -21q11 -29 9.5 -50.5t-8.5 -40.5q-17 -46 -49.5 -82t-72 -63.5t-81.5 -47t-79 -32t-64 -19t-36 -6.5q-2 -25 -0.5 -46t9 -36.5t21 -24t35.5 -7.5q62 2 118.5 27t106.5 62.5t93.5 84t80.5 92.5t67 87t53 68q7 9 17 9.5
t17.5 -4t10.5 -13.5t-3 -20q-6 -10 -22 -36.5t-40.5 -63t-57.5 -79t-73 -85.5t-86.5 -83.5t-98.5 -71t-109 -48t-118 -16.5q-48 1 -81.5 14.5t-55.5 37t-32 56t-10 70.5q0 36 12.5 81.5t36.5 92.5t59.5 91.5t81.5 79.5t102 57.5t122 24.5zM395 506q-49 -5 -91 -34.5t-75 -70
t-56.5 -85t-35.5 -78.5q32 7 75.5 24t86.5 42t81 56.5t59 69.5q7 12 8.5 25.5t-3.5 25.5t-17 19t-32 6zM272 713q0 25 17.5 42t43.5 17t44 -17t18 -42t-18 -42t-44 -17t-43.5 17t-17.5 42zM456 713q0 25 17 42t43 17t44 -17t18 -42t-18 -42t-44 -17t-43 17t-17 42z" />
    <glyph glyph-name="iacute" unicode="&#xed;" horiz-adv-x="422" 
d="M262 530q18 -1 30 -8t18 -17t7.5 -20.5t0.5 -17.5q-6 -27 -30 -72.5t-53 -97t-55.5 -104.5t-37.5 -95q-6 -23 6.5 -24t32.5 12q34 23 79 61.5t92 83t92.5 89.5t81.5 82.5t59.5 62t26.5 26.5q4 3 11.5 3t14 -3.5t10 -9.5t-0.5 -15q-3 -6 -25 -32.5t-57 -66t-81 -88
t-96 -97.5t-102 -95.5t-99 -82.5q-7 -5 -23 -15.5t-36.5 -20t-44.5 -15.5t-48 -3q-37 5 -45.5 40.5t1.5 87t33.5 112.5t49.5 117t49.5 100t34.5 63q16 27 33 40t31.5 17.5t25 3.5t14.5 -1zM353 790q3 -1 14.5 -1h26t30.5 0.5t29 1t20.5 0.5t5.5 -1q-3 -1 -13.5 -10
t-25 -21.5t-31.5 -27t-32 -27t-26 -21t-14 -9.5q-5 -2 -19.5 -2.5t-30 0t-27.5 2t-12 4.5t14.5 21t33 38.5t35.5 37t22 15.5z" />
    <glyph glyph-name="igrave" unicode="&#xec;" horiz-adv-x="422" 
d="M262 530q18 -1 30 -8t18 -17t7.5 -20.5t0.5 -17.5q-6 -27 -30 -72.5t-53 -97t-55.5 -104.5t-37.5 -95q-6 -23 6.5 -24t32.5 12q34 23 79 61.5t92 83t92.5 89.5t81.5 82.5t59.5 62t26.5 26.5q4 3 11.5 3t14 -3.5t10 -9.5t-0.5 -15q-3 -6 -25 -32.5t-57 -66t-81 -88
t-96 -97.5t-102 -95.5t-99 -82.5q-7 -5 -23 -15.5t-36.5 -20t-44.5 -15.5t-48 -3q-37 5 -45.5 40.5t1.5 87t33.5 112.5t49.5 117t49.5 100t34.5 63q16 27 33 40t31.5 17.5t25 3.5t14.5 -1zM239 796q-2 -2 9.5 -21.5t25.5 -42.5l38 -62q-25 -4 -44 -7q-17 -2 -32 -2.5
t-17 3.5q-2 2 -10 12.5t-19.5 24.5t-24 29.5t-22 29t-13.5 22t1 8.5q7 0 25.5 1.5t37.5 3t32.5 2t12.5 -0.5z" />
    <glyph glyph-name="icircumflex" unicode="&#xee;" horiz-adv-x="422" 
d="M262 530q18 -1 30 -8t18 -17t7.5 -20.5t0.5 -17.5q-6 -27 -30 -72.5t-53 -97t-55.5 -104.5t-37.5 -95q-6 -23 6.5 -24t32.5 12q34 23 79 61.5t92 83t92.5 89.5t81.5 82.5t59.5 62t26.5 26.5q4 3 11.5 3t14 -3.5t10 -9.5t-0.5 -15q-3 -6 -25 -32.5t-57 -66t-81 -88
t-96 -97.5t-102 -95.5t-99 -82.5q-7 -5 -23 -15.5t-36.5 -20t-44.5 -15.5t-48 -3q-37 5 -45.5 40.5t1.5 87t33.5 112.5t49.5 117t49.5 100t34.5 63q16 27 33 40t31.5 17.5t25 3.5t14.5 -1zM305 808q0 2 17.5 3.5t38.5 2.5q25 1 56 0l56 -141l-99 -7l-19 76l-96 -79l-112 -3
q44 39 79 71q15 13 29 26.5t25 24t18 17.5t7 9z" />
    <glyph glyph-name="idieresis" unicode="&#xef;" horiz-adv-x="422" 
d="M262 530q18 -1 30 -8t18 -17t7.5 -20.5t0.5 -17.5q-6 -27 -30 -72.5t-53 -97t-55.5 -104.5t-37.5 -95q-6 -23 6.5 -24t32.5 12q34 23 79 61.5t92 83t92.5 89.5t81.5 82.5t59.5 62t26.5 26.5q4 3 11.5 3t14 -3.5t10 -9.5t-0.5 -15q-3 -6 -25 -32.5t-57 -66t-81 -88
t-96 -97.5t-102 -95.5t-99 -82.5q-7 -5 -23 -15.5t-36.5 -20t-44.5 -15.5t-48 -3q-37 5 -45.5 40.5t1.5 87t33.5 112.5t49.5 117t49.5 100t34.5 63q16 27 33 40t31.5 17.5t25 3.5t14.5 -1zM341 713q0 25 17 42t43 17t44 -17t18 -42t-18 -42t-44 -17t-43 17t-17 42zM157 713
q0 25 17.5 42t43.5 17t44 -17t18 -42t-18 -42t-44 -17t-43.5 17t-17.5 42z" />
    <glyph glyph-name="ntilde" unicode="&#xf1;" horiz-adv-x="778" 
d="M220 559q53 -2 68 -24.5t6 -53.5q-2 -7 -14.5 -29t-31 -54t-42 -71t-46.5 -80l-29 -52q33 36 72.5 77t81 81t84.5 77t83.5 65.5t77 45.5t65.5 18q34 1 57.5 -7t37.5 -20.5t19.5 -26t5.5 -23.5q-1 -32 -17.5 -73.5t-41 -85t-52.5 -86t-51.5 -76t-38 -53.5t-11.5 -19
q29 6 74.5 36t96.5 72t102.5 90t94 89.5t71 71.5t32.5 35q6 8 14.5 10.5t15.5 -1t9 -15t-5 -31.5q-4 -10 -37 -48.5t-84.5 -90.5t-115 -110.5t-127 -109t-122 -84.5t-99.5 -38q-21 -2 -41.5 2t-36.5 15t-26 29.5t-10 46.5q0 25 17 64.5t43 85t56.5 92t56.5 85.5t43.5 65
t18.5 31q1 7 -2.5 8.5t-8 0t-9.5 -4t-8 -4.5q-31 -22 -75.5 -61t-94.5 -86.5t-100.5 -98.5t-94.5 -95.5t-76 -78.5t-44 -47q-11 -14 -21 -21q-11 -8 -28 -9t-32.5 5t-25.5 20.5t-8 37.5q3 33 22 84t47 108t61.5 114.5t66 103.5t61 74.5t46.5 27.5zM348 738q24 33 47.5 41.5
t48 5t50.5 -13.5t55 -14.5t61.5 2.5t70.5 38q8 6 12.5 -0.5t4 -20.5t-7.5 -32t-23 -35t-42 -29.5t-65 -14.5q-32 -1 -61 9.5t-55.5 20t-51.5 12.5t-50 -13q-4 -3 -4 3t1.5 14t4 16.5t4.5 10.5z" />
    <glyph glyph-name="oacute" unicode="&#xf3;" horiz-adv-x="584" 
d="M369 570q17 -2 28 -8t17 -13.5t7 -13.5t-1 -6q-27 -2 -59.5 -21.5t-66 -50t-66 -69t-58.5 -79t-43.5 -80t-22.5 -70.5q-2 -9 -3 -23.5t1.5 -28t11 -24t27.5 -13.5q24 -3 56 16.5t67.5 52.5t70 74t63.5 80q-19 10 -31 25t-19.5 33.5t-10 38.5t-2.5 40q1 30 18.5 52.5
t43 33.5t54 10.5t51 -15t34 -44t4.5 -76.5q-2 -11 -4.5 -22t-5.5 -22q34 3 69.5 13.5t66.5 27t54.5 37t34.5 41.5q13 26 26.5 38.5t23 10.5t12 -18t-5.5 -46q-8 -31 -39 -61t-74.5 -54.5t-94.5 -40t-100 -18.5q-28 -61 -72 -117.5t-96.5 -98.5t-109.5 -65t-111 -16
q-56 7 -87.5 31t-47 55t-19.5 64t-5 58q0 18 10 55.5t31.5 81.5t54.5 90t79 82.5t105.5 57.5t133.5 15zM469 790q3 -1 14.5 -1h26t30.5 0.5t29 1t20.5 0.5t5.5 -1q-3 -1 -13.5 -10t-25 -21.5t-31.5 -27t-32 -27t-26 -21t-14 -9.5q-5 -2 -19.5 -2.5t-30 0t-27.5 2t-12 4.5
t14.5 21t33 38.5t35.5 37t22 15.5zM409 409q-1 -17 1 -26t7 -13.5t11.5 -6t14.5 -4.5q7 11 12.5 20t9.5 17q15 31 9 46.5t-20 17t-29 -11.5t-16 -39z" />
    <glyph glyph-name="ograve" unicode="&#xf2;" horiz-adv-x="584" 
d="M369 570q17 -2 28 -8t17 -13.5t7 -13.5t-1 -6q-27 -2 -59.5 -21.5t-66 -50t-66 -69t-58.5 -79t-43.5 -80t-22.5 -70.5q-2 -9 -3 -23.5t1.5 -28t11 -24t27.5 -13.5q24 -3 56 16.5t67.5 52.5t70 74t63.5 80q-19 10 -31 25t-19.5 33.5t-10 38.5t-2.5 40q1 30 18.5 52.5
t43 33.5t54 10.5t51 -15t34 -44t4.5 -76.5q-2 -11 -4.5 -22t-5.5 -22q34 3 69.5 13.5t66.5 27t54.5 37t34.5 41.5q13 26 26.5 38.5t23 10.5t12 -18t-5.5 -46q-8 -31 -39 -61t-74.5 -54.5t-94.5 -40t-100 -18.5q-28 -61 -72 -117.5t-96.5 -98.5t-109.5 -65t-111 -16
q-56 7 -87.5 31t-47 55t-19.5 64t-5 58q0 18 10 55.5t31.5 81.5t54.5 90t79 82.5t105.5 57.5t133.5 15zM320 796q-2 -2 9.5 -21.5t25.5 -42.5l38 -62q-25 -4 -44 -7q-17 -2 -32 -2.5t-17 3.5q-2 2 -10 12.5t-19.5 24.5t-24 29.5t-22 29t-13.5 22t1 8.5q7 0 25.5 1.5t37.5 3
t32.5 2t12.5 -0.5zM409 409q-1 -17 1 -26t7 -13.5t11.5 -6t14.5 -4.5q7 11 12.5 20t9.5 17q15 31 9 46.5t-20 17t-29 -11.5t-16 -39z" />
    <glyph glyph-name="ocircumflex" unicode="&#xf4;" horiz-adv-x="584" 
d="M369 570q17 -2 28 -8t17 -13.5t7 -13.5t-1 -6q-27 -2 -59.5 -21.5t-66 -50t-66 -69t-58.5 -79t-43.5 -80t-22.5 -70.5q-2 -9 -3 -23.5t1.5 -28t11 -24t27.5 -13.5q24 -3 56 16.5t67.5 52.5t70 74t63.5 80q-19 10 -31 25t-19.5 33.5t-10 38.5t-2.5 40q1 30 18.5 52.5
t43 33.5t54 10.5t51 -15t34 -44t4.5 -76.5q-2 -11 -4.5 -22t-5.5 -22q34 3 69.5 13.5t66.5 27t54.5 37t34.5 41.5q13 26 26.5 38.5t23 10.5t12 -18t-5.5 -46q-8 -31 -39 -61t-74.5 -54.5t-94.5 -40t-100 -18.5q-28 -61 -72 -117.5t-96.5 -98.5t-109.5 -65t-111 -16
q-56 7 -87.5 31t-47 55t-19.5 64t-5 58q0 18 10 55.5t31.5 81.5t54.5 90t79 82.5t105.5 57.5t133.5 15zM456 808q0 2 17.5 3.5t38.5 2.5q25 1 56 0l56 -141l-99 -7l-19 76l-96 -79l-112 -3q44 39 79 71q15 13 29 26.5t25 24t18 17.5t7 9zM409 409q-1 -17 1 -26t7 -13.5
t11.5 -6t14.5 -4.5q7 11 12.5 20t9.5 17q15 31 9 46.5t-20 17t-29 -11.5t-16 -39z" />
    <glyph glyph-name="odieresis" unicode="&#xf6;" horiz-adv-x="584" 
d="M369 570q17 -2 28 -8t17 -13.5t7 -13.5t-1 -6q-27 -2 -59.5 -21.5t-66 -50t-66 -69t-58.5 -79t-43.5 -80t-22.5 -70.5q-2 -9 -3 -23.5t1.5 -28t11 -24t27.5 -13.5q24 -3 56 16.5t67.5 52.5t70 74t63.5 80q-19 10 -31 25t-19.5 33.5t-10 38.5t-2.5 40q1 30 18.5 52.5
t43 33.5t54 10.5t51 -15t34 -44t4.5 -76.5q-2 -11 -4.5 -22t-5.5 -22q34 3 69.5 13.5t66.5 27t54.5 37t34.5 41.5q13 26 26.5 38.5t23 10.5t12 -18t-5.5 -46q-8 -31 -39 -61t-74.5 -54.5t-94.5 -40t-100 -18.5q-28 -61 -72 -117.5t-96.5 -98.5t-109.5 -65t-111 -16
q-56 7 -87.5 31t-47 55t-19.5 64t-5 58q0 18 10 55.5t31.5 81.5t54.5 90t79 82.5t105.5 57.5t133.5 15zM295 713q0 25 17.5 42t43.5 17t44 -17t18 -42t-18 -42t-44 -17t-43.5 17t-17.5 42zM479 713q0 25 17 42t43 17t44 -17t18 -42t-18 -42t-44 -17t-43 17t-17 42zM409 409
q-1 -17 1 -26t7 -13.5t11.5 -6t14.5 -4.5q7 11 12.5 20t9.5 17q15 31 9 46.5t-20 17t-29 -11.5t-16 -39z" />
    <glyph glyph-name="otilde" unicode="&#xf5;" horiz-adv-x="584" 
d="M369 570q17 -2 28 -8t17 -13.5t7 -13.5t-1 -6q-27 -2 -59.5 -21.5t-66 -50t-66 -69t-58.5 -79t-43.5 -80t-22.5 -70.5q-2 -9 -3 -23.5t1.5 -28t11 -24t27.5 -13.5q24 -3 56 16.5t67.5 52.5t70 74t63.5 80q-19 10 -31 25t-19.5 33.5t-10 38.5t-2.5 40q1 30 18.5 52.5
t43 33.5t54 10.5t51 -15t34 -44t4.5 -76.5q-2 -11 -4.5 -22t-5.5 -22q34 3 69.5 13.5t66.5 27t54.5 37t34.5 41.5q13 26 26.5 38.5t23 10.5t12 -18t-5.5 -46q-8 -31 -39 -61t-74.5 -54.5t-94.5 -40t-100 -18.5q-28 -61 -72 -117.5t-96.5 -98.5t-109.5 -65t-111 -16
q-56 7 -87.5 31t-47 55t-19.5 64t-5 58q0 18 10 55.5t31.5 81.5t54.5 90t79 82.5t105.5 57.5t133.5 15zM324 738q24 33 47.5 41.5t48 5t50.5 -13.5t55 -14.5t61.5 2.5t70.5 38q8 6 12.5 -0.5t4 -20.5t-7.5 -32t-23 -35t-42 -29.5t-65 -14.5q-32 -1 -61 9.5t-55.5 20
t-51.5 12.5t-50 -13q-4 -3 -4 3t1.5 14t4 16.5t4.5 10.5zM409 409q-1 -17 1 -26t7 -13.5t11.5 -6t14.5 -4.5q7 11 12.5 20t9.5 17q15 31 9 46.5t-20 17t-29 -11.5t-16 -39z" />
    <glyph glyph-name="uacute" unicode="&#xfa;" 
d="M614 574q18 -1 30 -8t18 -17t7.5 -20.5t0.5 -17.5q-4 -18 -17 -44.5t-31 -58t-38.5 -66.5t-39.5 -69.5t-34.5 -68t-22.5 -61.5q-6 -23 2 -25.5t28 11.5q34 23 74 59t79.5 76.5t76.5 81t66 74t47.5 55t21.5 23.5q4 3 11.5 3t14 -3.5t10 -9.5t-0.5 -15q-3 -6 -20 -29.5
t-45 -59t-65 -79.5t-80 -89.5t-90 -89.5t-94 -80q-7 -5 -23 -15.5t-36.5 -20t-44.5 -15t-48 -2.5q-21 3 -32 16.5t-14 34.5t1.5 48.5t13.5 59.5q-33 -37 -68 -67t-71 -50t-71 -27t-68 2q-42 12 -52.5 52t-0.5 94t34.5 116t52 118.5t52.5 100.5t36 63q16 27 33 40t31.5 17.5
t25 3.5t14.5 -1q18 -1 29.5 -8t17.5 -17t7.5 -20.5t0.5 -17.5q-4 -18 -18.5 -46t-35 -62t-44 -71.5t-45 -74.5t-38.5 -72t-24 -63q-6 -23 0 -40t29 -12q16 3 45 21.5t64.5 51t74.5 77.5t76 101q26 53 49 94t34 59q16 27 33 40t31.5 17.5t25 3.5t14.5 -1zM542 790
q3 -1 14.5 -1h26t30.5 0.5t29 1t20.5 0.5t5.5 -1q-3 -1 -13.5 -10t-25 -21.5t-31.5 -27t-32 -27t-26 -21t-14 -9.5q-5 -2 -19.5 -2.5t-30 0t-27.5 2t-12 4.5t14.5 21t33 38.5t35.5 37t22 15.5z" />
    <glyph glyph-name="ugrave" unicode="&#xf9;" 
d="M614 574q18 -1 30 -8t18 -17t7.5 -20.5t0.5 -17.5q-4 -18 -17 -44.5t-31 -58t-38.5 -66.5t-39.5 -69.5t-34.5 -68t-22.5 -61.5q-6 -23 2 -25.5t28 11.5q34 23 74 59t79.5 76.5t76.5 81t66 74t47.5 55t21.5 23.5q4 3 11.5 3t14 -3.5t10 -9.5t-0.5 -15q-3 -6 -20 -29.5
t-45 -59t-65 -79.5t-80 -89.5t-90 -89.5t-94 -80q-7 -5 -23 -15.5t-36.5 -20t-44.5 -15t-48 -2.5q-21 3 -32 16.5t-14 34.5t1.5 48.5t13.5 59.5q-33 -37 -68 -67t-71 -50t-71 -27t-68 2q-42 12 -52.5 52t-0.5 94t34.5 116t52 118.5t52.5 100.5t36 63q16 27 33 40t31.5 17.5
t25 3.5t14.5 -1q18 -1 29.5 -8t17.5 -17t7.5 -20.5t0.5 -17.5q-4 -18 -18.5 -46t-35 -62t-44 -71.5t-45 -74.5t-38.5 -72t-24 -63q-6 -23 0 -40t29 -12q16 3 45 21.5t64.5 51t74.5 77.5t76 101q26 53 49 94t34 59q16 27 33 40t31.5 17.5t25 3.5t14.5 -1zM439 796
q-2 -2 9.5 -21.5t25.5 -42.5l38 -62q-25 -4 -44 -7q-17 -2 -32 -2.5t-17 3.5q-2 2 -10 12.5t-19.5 24.5t-24 29.5t-22 29t-13.5 22t1 8.5q7 0 25.5 1.5t37.5 3t32.5 2t12.5 -0.5z" />
    <glyph glyph-name="ucircumflex" unicode="&#xfb;" 
d="M614 574q18 -1 30 -8t18 -17t7.5 -20.5t0.5 -17.5q-4 -18 -17 -44.5t-31 -58t-38.5 -66.5t-39.5 -69.5t-34.5 -68t-22.5 -61.5q-6 -23 2 -25.5t28 11.5q34 23 74 59t79.5 76.5t76.5 81t66 74t47.5 55t21.5 23.5q4 3 11.5 3t14 -3.5t10 -9.5t-0.5 -15q-3 -6 -20 -29.5
t-45 -59t-65 -79.5t-80 -89.5t-90 -89.5t-94 -80q-7 -5 -23 -15.5t-36.5 -20t-44.5 -15t-48 -2.5q-21 3 -32 16.5t-14 34.5t1.5 48.5t13.5 59.5q-33 -37 -68 -67t-71 -50t-71 -27t-68 2q-42 12 -52.5 52t-0.5 94t34.5 116t52 118.5t52.5 100.5t36 63q16 27 33 40t31.5 17.5
t25 3.5t14.5 -1q18 -1 29.5 -8t17.5 -17t7.5 -20.5t0.5 -17.5q-4 -18 -18.5 -46t-35 -62t-44 -71.5t-45 -74.5t-38.5 -72t-24 -63q-6 -23 0 -40t29 -12q16 3 45 21.5t64.5 51t74.5 77.5t76 101q26 53 49 94t34 59q16 27 33 40t31.5 17.5t25 3.5t14.5 -1zM499 808
q0 2 17.5 3.5t38.5 2.5q25 1 56 0l56 -141l-99 -7l-19 76l-96 -79l-112 -3q44 39 79 71q15 13 29 26.5t25 24t18 17.5t7 9z" />
    <glyph glyph-name="udieresis" unicode="&#xfc;" 
d="M614 574q18 -1 30 -8t18 -17t7.5 -20.5t0.5 -17.5q-4 -18 -17 -44.5t-31 -58t-38.5 -66.5t-39.5 -69.5t-34.5 -68t-22.5 -61.5q-6 -23 2 -25.5t28 11.5q34 23 74 59t79.5 76.5t76.5 81t66 74t47.5 55t21.5 23.5q4 3 11.5 3t14 -3.5t10 -9.5t-0.5 -15q-3 -6 -20 -29.5
t-45 -59t-65 -79.5t-80 -89.5t-90 -89.5t-94 -80q-7 -5 -23 -15.5t-36.5 -20t-44.5 -15t-48 -2.5q-21 3 -32 16.5t-14 34.5t1.5 48.5t13.5 59.5q-33 -37 -68 -67t-71 -50t-71 -27t-68 2q-42 12 -52.5 52t-0.5 94t34.5 116t52 118.5t52.5 100.5t36 63q16 27 33 40t31.5 17.5
t25 3.5t14.5 -1q18 -1 29.5 -8t17.5 -17t7.5 -20.5t0.5 -17.5q-4 -18 -18.5 -46t-35 -62t-44 -71.5t-45 -74.5t-38.5 -72t-24 -63q-6 -23 0 -40t29 -12q16 3 45 21.5t64.5 51t74.5 77.5t76 101q26 53 49 94t34 59q16 27 33 40t31.5 17.5t25 3.5t14.5 -1zM315 713
q0 25 17.5 42t43.5 17t44 -17t18 -42t-18 -42t-44 -17t-43.5 17t-17.5 42zM499 713q0 25 17 42t43 17t44 -17t18 -42t-18 -42t-44 -17t-43 17t-17 42z" />
    <glyph glyph-name="fi" unicode="&#xfb01;" horiz-adv-x="922" 
d="M762 530q18 -1 30 -8t18 -17t7.5 -20.5t0.5 -17.5q-6 -27 -30 -72.5t-53 -97t-55.5 -104.5t-37.5 -95q-6 -23 6.5 -24t32.5 12q34 23 79 61.5t92 83t92.5 89.5t81.5 82.5t59.5 62t26.5 26.5q4 3 11.5 3t14 -3.5t10 -9.5t-0.5 -15q-3 -6 -25 -32.5t-57 -66t-81 -88
t-96 -97.5t-102 -95.5t-99 -82.5q-7 -5 -23 -15.5t-36.5 -20t-44.5 -15.5t-48 -3q-27 4 -38.5 24.5t-11 52t10 71t25 82.5t34.5 86t38 81q-43 -17 -92.5 -22.5t-97.5 -4t-92 7t-75 11.5q-8 -17 -15.5 -33.5t-15.5 -33.5q10 -38 21.5 -90t18.5 -114t8 -131t-9 -141
q-15 -104 -40 -176.5t-55 -119t-62 -72t-61 -37t-52.5 -13t-36.5 0.5q-40 6 -70 31t-48 64t-23 89t5 106q12 65 38 144.5t61.5 166.5t76.5 176.5t83 173.5q-35 39 -60 41q-16 1 -14 14.5t14 29.5t28.5 29.5t28.5 13.5q2 0 18.5 -4t42.5 -9q30 59 57.5 110.5t49.5 91.5t37 67
l20 36q13 24 33 41.5t41.5 29t40.5 17.5t30 8q16 1 27.5 -6.5t17.5 -19.5t5 -26.5t-8 -26.5q-43 -69 -93 -158.5t-101 -191.5q57 -8 117.5 -12t113 1t91.5 21.5t54 49.5q7 14 16 20.5t18 7.5q13 12 25.5 17.5t23 7t18 1t10.5 -0.5zM186 -184q10 99 -1 185t-34 156
q-39 -87 -74.5 -172t-63 -162t-46 -142.5t-25 -114t1 -77t32.5 -31.5q55 -6 90 26t57.5 85.5t36.5 119t26 127.5zM775 698q9 18 21.5 31t26.5 20t29 8t28 -5q13 -7 21.5 -19.5t11.5 -28t0.5 -33.5t-11.5 -36t-21.5 -31t-26.5 -20t-29 -8t-28 5q-26 13 -32.5 47t10.5 70z" />
    <glyph glyph-name="fl" unicode="&#xfb02;" horiz-adv-x="1033" 
d="M1146 1116q27 -1 47 -12t33 -29t19.5 -40.5t6.5 -47.5q1 -54 -21 -122t-60 -140t-90.5 -142t-113 -128t-126.5 -99.5t-131 -54.5q-16 -65 -23 -121t-3.5 -99t19.5 -68.5t46 -28.5q32 -3 68 15t74 49.5t76 73t72.5 86t65.5 87.5t54 78t37.5 57.5t16.5 26.5q9 14 21 17.5
t21 -1.5t13 -17t-2 -29q-2 -5 -17 -30.5t-40 -63.5t-59.5 -85.5t-75.5 -95.5t-86.5 -93.5t-93 -80t-95.5 -54t-94 -16.5q-13 1 -38.5 6t-53 23t-50.5 53.5t-32 98.5q-6 46 -0.5 109t21.5 136q-41 -10 -85 -12.5t-86 -0.5t-79.5 7.5t-65.5 10.5q-8 -17 -15.5 -33.5
t-15.5 -33.5q10 -38 21.5 -90t18.5 -114t8 -131t-9 -141q-15 -104 -40 -176.5t-55 -119t-62 -72t-61 -37t-52.5 -13t-36.5 0.5q-40 6 -70 31t-48 64t-23 89t5 106q12 65 38 144.5t61.5 166.5t76.5 176.5t83 173.5q-35 39 -60 41q-16 1 -14 14.5t14 29.5t28.5 29.5t28.5 13.5
q2 0 18.5 -4t42.5 -9q30 59 57.5 110.5t49.5 91.5t37 67l20 36q13 24 33 41.5t41.5 29t40.5 17.5t30 8q16 1 27.5 -6.5t17.5 -19.5t5 -26.5t-8 -26.5q-43 -69 -93 -158.5t-101 -191.5q39 -5 79.5 -9t79.5 -4.5t74.5 3t64.5 12.5q23 80 56 164t74.5 162.5t91 147.5
t105.5 119.5t118 78.5t128 25zM1134 1010q-35 -3 -72.5 -32t-75.5 -77t-75 -110.5t-71 -133t-62.5 -145.5t-49.5 -146q57 16 109.5 55.5t99 92.5t86 115t69.5 122.5t50 115t28 92.5q4 19 0.5 29.5t-10.5 15.5t-14.5 5.5t-11.5 0.5zM186 -184q10 99 -1 185t-34 156
q-39 -87 -74.5 -172t-63 -162t-46 -142.5t-25 -114t1 -77t32.5 -31.5q55 -6 90 26t57.5 85.5t36.5 119t26 127.5z" />
    <glyph glyph-name="Agrave" unicode="&#xc0;" horiz-adv-x="1266" 
d="M1303 1268q23 3 38.5 -2.5t25.5 -13.5q11 -10 19 -22q-53 -95 -110 -201q-24 -45 -51.5 -97.5t-57 -109.5t-59 -117.5t-58.5 -121.5q68 -34 113 -94t50 -154q66 31 118.5 67.5t87.5 76.5q12 14 24.5 16.5t21.5 -3t11 -18t-8 -29.5q-13 -23 -37.5 -46.5t-58 -46t-74.5 -44
t-87 -40.5q-3 -29 -9 -61q-15 -75 -52.5 -145.5t-85.5 -124.5t-102 -86.5t-102 -32.5q-65 0 -101.5 28t-51 76t-9.5 112.5t23 138.5q-17 2 -32.5 3.5t-30.5 4.5q-33 5 -78 15.5t-91 26.5q-42 -53 -78.5 -99t-65 -81.5t-47 -57.5t-24.5 -27q-14 -12 -34 -33t-44.5 -42
t-53.5 -38t-60 -22t-63.5 7t-64.5 50q-12 13 -18 35t-3 40t17 24.5t41 -9.5q8 -5 15.5 -13t15.5 -16.5t16 -15.5t16 -10q22 -8 58.5 14.5t83.5 68.5t103.5 111.5t118.5 143.5q-28 15 -51 33t-37.5 40t-18.5 48t6 57q13 43 50.5 78t90.5 61t118.5 42t135.5 22
q60 79 119.5 156t116 146t108.5 128.5t98 103.5t83.5 70t65.5 30zM1143 242q-63 -22 -128.5 -38t-131.5 -24q-18 -57 -29 -104.5t-12 -83.5t9 -58.5t33 -27.5q34 -8 73 18t75 71t65 103t41 116zM527 271q33 -17 67 -26t60 -11q20 -2 41 -3t42 -1q24 81 57.5 167t71.5 168
h-12t-12 1q-21 1 -42.5 1t-42.5 -2zM906 244q64 10 125.5 26.5t118.5 38.5q1 87 -34 139t-92 79q-34 -74 -64 -145.5t-54 -137.5zM649 551q-49 -9 -91.5 -23.5t-74 -33t-50 -40.5t-19.5 -46q-2 -29 12.5 -53t37.5 -44zM1084 986q-5 -7 -28.5 -37t-59.5 -77t-83 -107.5
t-100 -128.5q39 -2 76 -6q2 -1 7 -1q33 70 65 132t58 109.5t43.5 77.5t21.5 38zM1380 1468q-2 -2 9.5 -21.5t25.5 -42.5l38 -62q-25 -4 -44 -7q-17 -2 -32 -2.5t-17 3.5q-2 2 -10 12.5t-19.5 24.5t-24 29.5t-22 29t-13.5 22t1 8.5q7 0 25.5 1.5t37.5 3t32.5 2t12.5 -0.5z
" />
    <glyph glyph-name="Atilde" unicode="&#xc3;" horiz-adv-x="1266" 
d="M1303 1268q23 3 38.5 -2.5t25.5 -13.5q11 -10 19 -22q-53 -95 -110 -201q-24 -45 -51.5 -97.5t-57 -109.5t-59 -117.5t-58.5 -121.5q68 -34 113 -94t50 -154q66 31 118.5 67.5t87.5 76.5q12 14 24.5 16.5t21.5 -3t11 -18t-8 -29.5q-13 -23 -37.5 -46.5t-58 -46t-74.5 -44
t-87 -40.5q-3 -29 -9 -61q-15 -75 -52.5 -145.5t-85.5 -124.5t-102 -86.5t-102 -32.5q-65 0 -101.5 28t-51 76t-9.5 112.5t23 138.5q-17 2 -32.5 3.5t-30.5 4.5q-33 5 -78 15.5t-91 26.5q-42 -53 -78.5 -99t-65 -81.5t-47 -57.5t-24.5 -27q-14 -12 -34 -33t-44.5 -42
t-53.5 -38t-60 -22t-63.5 7t-64.5 50q-12 13 -18 35t-3 40t17 24.5t41 -9.5q8 -5 15.5 -13t15.5 -16.5t16 -15.5t16 -10q22 -8 58.5 14.5t83.5 68.5t103.5 111.5t118.5 143.5q-28 15 -51 33t-37.5 40t-18.5 48t6 57q13 43 50.5 78t90.5 61t118.5 42t135.5 22
q60 79 119.5 156t116 146t108.5 128.5t98 103.5t83.5 70t65.5 30zM1143 242q-63 -22 -128.5 -38t-131.5 -24q-18 -57 -29 -104.5t-12 -83.5t9 -58.5t33 -27.5q34 -8 73 18t75 71t65 103t41 116zM527 271q33 -17 67 -26t60 -11q20 -2 41 -3t42 -1q24 81 57.5 167t71.5 168
h-12t-12 1q-21 1 -42.5 1t-42.5 -2zM906 244q64 10 125.5 26.5t118.5 38.5q1 87 -34 139t-92 79q-34 -74 -64 -145.5t-54 -137.5zM1160 1452q24 33 47.5 41.5t48 5t50.5 -13.5t55 -14.5t61.5 2.5t70.5 38q8 6 12.5 -0.5t4 -20.5t-7.5 -32t-23 -35t-42 -29.5t-65 -14.5
q-32 -1 -61 9.5t-55.5 20t-51.5 12.5t-50 -13q-4 -3 -4 3t1.5 14t4 16.5t4.5 10.5zM649 551q-49 -9 -91.5 -23.5t-74 -33t-50 -40.5t-19.5 -46q-2 -29 12.5 -53t37.5 -44zM1084 986q-5 -7 -28.5 -37t-59.5 -77t-83 -107.5t-100 -128.5q39 -2 76 -6q2 -1 7 -1q33 70 65 132
t58 109.5t43.5 77.5t21.5 38z" />
    <glyph glyph-name="Otilde" unicode="&#xd5;" horiz-adv-x="1111" 
d="M574 1202q14 5 24.5 1t16 -12t6 -17.5t-4.5 -14.5q-67 -67 -126 -146t-108 -164t-88 -174t-66 -176.5t-41.5 -170.5t-15.5 -157q0 -86 19 -137t46 -78.5t55.5 -36t46.5 -9.5q42 -1 86 17.5t87.5 52.5t86.5 80.5t83 101.5q-51 21 -96.5 58t-81.5 90t-58.5 122t-26.5 155
q-1 16 3 50.5t13.5 80.5t26 100t41 108.5t58.5 106.5t78.5 93.5t100 69t124.5 34.5q20 2 49.5 -1.5t62.5 -18t65 -42t57 -73.5t38.5 -113.5t9.5 -161.5q-3 -62 -20 -135.5t-46.5 -151t-70 -157t-90.5 -153.5q53 11 105 34t97.5 57t82.5 77.5t61 96.5q4 8 16 10t23 -1.5
t17.5 -13t-1.5 -25.5q-41 -81 -101 -139.5t-125 -97t-128.5 -59t-110.5 -26.5q-55 -68 -117 -125.5t-130 -98t-140.5 -60.5t-148.5 -14q-18 1 -45.5 8t-58.5 23t-63 43.5t-59 70t-46.5 102.5t-24.5 141q-4 49 7 129.5t38.5 176t71.5 197t106.5 194t144.5 166t185 113.5z
M518 594q-6 -81 7.5 -143t42 -107t69.5 -73.5t89 -42.5q51 76 94 158.5t75 159t50.5 142.5t20.5 110q5 116 -5.5 187t-27.5 110t-37 51.5t-33 12.5q-74 -2 -128.5 -40t-92.5 -95.5t-61.5 -125.5t-37 -130.5t-19 -110t-6.5 -63.5zM742 1452q24 33 47.5 41.5t48 5t50.5 -13.5
t55 -14.5t61.5 2.5t70.5 38q8 6 12.5 -0.5t4 -20.5t-7.5 -32t-23 -35t-42 -29.5t-65 -14.5q-32 -1 -61 9.5t-55.5 20t-51.5 12.5t-50 -13q-4 -3 -4 3t1.5 14t4 16.5t4.5 10.5z" />
    <glyph glyph-name="OE" unicode="&#x152;" horiz-adv-x="1945" 
d="M1901 1259q54 -2 85.5 -14t46.5 -30.5t16.5 -42.5t-4.5 -50q-15 -65 -59 -113.5t-105.5 -81t-135.5 -48.5t-148 -15q-9 -27 -12 -54v-12.5t1.5 -24.5t5.5 -30.5t13 -31.5q78 15 113 9q24 -5 35.5 -21.5t8 -34t-25 -31.5t-63.5 -12q-47 2 -86 9q-39 -30 -82.5 -73.5
t-82.5 -95t-69.5 -108t-43.5 -112t-4 -108t48 -96.5q31 -35 76.5 -42t99 6.5t113 44t118.5 72t115 89.5t103.5 96.5t83.5 94t55 80.5q9 17 19 21t17.5 -1t10 -17t-2.5 -28q-4 -11 -25 -42t-56 -74.5t-82.5 -95.5t-104 -105t-120.5 -103t-132 -89t-138 -63t-139 -26
q-49 -1 -96.5 13t-86.5 43t-65.5 72.5t-32.5 101.5q-5 35 -4.5 67.5t3.5 62.5q-63 -35 -123 -54t-105 -25q-55 -68 -117 -125.5t-130 -98t-140.5 -60.5t-148.5 -14q-18 1 -45.5 8t-58.5 23t-63 43.5t-59 70t-46.5 102.5t-24.5 141q-4 49 7 129.5t38.5 176t71.5 197
t106.5 194t144.5 166t185 113.5q14 5 24.5 1t16 -12t6 -17.5t-4.5 -14.5q-67 -67 -126 -146t-108 -164t-88 -174t-66 -176.5t-41.5 -170.5t-15.5 -157q0 -86 19 -137t46 -78.5t55.5 -36t46.5 -9.5q42 -1 86 17.5t87.5 52.5t86.5 80.5t83 101.5q-51 21 -96.5 58t-81.5 90
t-58.5 122t-26.5 155q-1 16 3 50.5t13.5 80.5t26 100t41 108.5t58.5 106.5t78.5 93.5t100 69t124.5 34.5q20 2 49.5 -1.5t62.5 -18t65 -42t57 -73.5t38.5 -113.5t9.5 -161.5q-3 -62 -20 -135.5t-46.5 -151t-70 -157t-90.5 -153.5q96 20 181 76q22 74 62.5 133t92.5 105
t110 79t115 56q-39 26 -60 62t-19 84q0 21 2 40.5t6 38.5q-44 16 -80.5 41t-61.5 58.5t-36 75.5t-4 93q3 21 12.5 32.5t19.5 11.5t16.5 -11.5t2.5 -35.5q-6 -40 2.5 -73t28.5 -59.5t49.5 -46t65.5 -32.5q22 64 62 111.5t87.5 82t98.5 56.5t96.5 35.5t81 18t52.5 4.5z
M518 594q-6 -81 7.5 -143t42 -107t69.5 -73.5t89 -42.5q51 76 94 158.5t75 159t50.5 142.5t20.5 110q5 116 -5.5 187t-27.5 110t-37 51.5t-33 12.5q-74 -2 -128.5 -40t-92.5 -95.5t-61.5 -125.5t-37 -130.5t-19 -110t-6.5 -63.5zM1893 1186q-25 -4 -61.5 -27t-75 -59
t-74.5 -82.5t-61 -95.5q63 2 124.5 16t111.5 38.5t83 60t40 80.5q4 27 -3 42t-20.5 21.5t-30.5 7t-33 -1.5zM1690 684q-14 0 -38 -11q16 -5 33 -4q27 1 24.5 7t-19.5 8z" />
    <glyph glyph-name="AE" unicode="&#xc6;" horiz-adv-x="2100" 
d="M2056 1259q54 -2 85.5 -14t46.5 -30.5t16.5 -42.5t-4.5 -50q-15 -65 -59 -113.5t-105.5 -81t-135.5 -48.5t-148 -15q-9 -27 -12 -54v-12.5t1.5 -24.5t5.5 -30.5t13 -31.5q78 15 113 9q24 -5 35.5 -21.5t8 -34t-25 -31.5t-63.5 -12q-47 2 -86 9q-39 -30 -82.5 -73.5
t-82.5 -95t-69.5 -108t-43.5 -112t-4 -108t48 -96.5q31 -35 76.5 -42t99 6.5t113 44t118.5 72t115 89.5t103.5 96.5t83.5 94t55 80.5q9 17 19 21t17.5 -1t10 -17t-2.5 -28q-4 -11 -25 -42t-56 -74.5t-82.5 -95.5t-104 -105t-120.5 -103t-132 -89t-138 -63t-139 -26
q-49 -1 -96.5 13t-86.5 43t-65.5 72.5t-32.5 101.5q-7 56 -3 105t15 94q-9 -5 -18.5 -8.5t-20.5 -7.5q-3 -29 -9 -61q-15 -75 -52.5 -145.5t-85.5 -124.5t-102 -86.5t-102 -32.5q-65 0 -101.5 28t-51 76t-9.5 112.5t23 138.5q-17 2 -32.5 3.5t-30.5 4.5q-33 5 -78 15.5
t-91 26.5q-42 -53 -78.5 -99t-65 -81.5t-47 -57.5t-24.5 -27q-14 -12 -34 -33t-44.5 -42t-53.5 -38t-60 -22t-63.5 7t-64.5 50q-12 13 -18 35t-3 40t17 24.5t41 -9.5q8 -5 15.5 -13t15.5 -16.5t16 -15.5t16 -10q22 -8 58.5 14.5t83.5 68.5t103.5 111.5t118.5 143.5
q-28 15 -51 33t-37.5 40t-18.5 48t6 57q13 43 50.5 78t90.5 61t118.5 42t135.5 22q60 79 119.5 156t116 146t108.5 128.5t98 103.5t83.5 70t65.5 30q23 3 38.5 -2.5t25.5 -13.5q11 -10 19 -22q-53 -95 -110 -201q-24 -45 -51.5 -97.5t-57 -109.5t-59 -117.5t-58.5 -121.5
q68 -34 113 -94t50 -154q36 16 69 36q28 58 68 105t86.5 84t97.5 64.5t100 47.5q-39 26 -60 62t-19 84q0 21 2 40.5t6 38.5q-44 16 -80.5 41t-61.5 58.5t-36 75.5t-4 93q3 21 12.5 32.5t19.5 11.5t16.5 -11.5t2.5 -35.5q-6 -40 2.5 -73t28.5 -59.5t49.5 -46t65.5 -32.5
q22 64 62 111.5t87.5 82t98.5 56.5t96.5 35.5t81 18t52.5 4.5zM1143 242q-63 -22 -128.5 -38t-131.5 -24q-18 -57 -29 -104.5t-12 -83.5t9 -58.5t33 -27.5q34 -8 73 18t75 71t65 103t41 116zM527 271q33 -17 67 -26t60 -11q20 -2 41 -3t42 -1q24 81 57.5 167t71.5 168h-12
t-12 1q-21 1 -42.5 1t-42.5 -2zM2048 1186q-25 -4 -61.5 -27t-75 -59t-74.5 -82.5t-61 -95.5q63 2 124.5 16t111.5 38.5t83 60t40 80.5q4 27 -3 42t-20.5 21.5t-30.5 7t-33 -1.5zM906 244q64 10 125.5 26.5t118.5 38.5q1 87 -34 139t-92 79q-34 -74 -64 -145.5t-54 -137.5z
M649 551q-49 -9 -91.5 -23.5t-74 -33t-50 -40.5t-19.5 -46q-2 -29 12.5 -53t37.5 -44zM1084 986q-5 -7 -28.5 -37t-59.5 -77t-83 -107.5t-100 -128.5q39 -2 76 -6q2 -1 7 -1q33 70 65 132t58 109.5t43.5 77.5t21.5 38zM1845 684q-14 0 -38 -11q16 -5 33 -4q27 1 24.5 7
t-19.5 8z" />
    <glyph glyph-name="oe" unicode="&#x153;" horiz-adv-x="1095" 
d="M963 575q30 1 51.5 -4.5t36.5 -14.5t24 -20t13 -21q11 -29 9.5 -50.5t-8.5 -40.5q-17 -46 -49.5 -82t-72 -63.5t-81.5 -47t-79 -32t-64 -19t-36 -6.5q-2 -25 -0.5 -46t9 -36.5t21 -24t35.5 -7.5q62 2 118.5 27t106.5 62.5t93.5 84t80.5 92.5t67 87t53 68q7 9 17 9.5
t17.5 -4t10.5 -13.5t-3 -20q-6 -10 -22 -36.5t-40.5 -63t-57.5 -79t-73 -85.5t-86.5 -83.5t-98.5 -71t-109 -48t-118 -16.5q-48 1 -81.5 14.5t-55.5 37t-32 56t-10 70.5q0 30 8 66.5t25 74.5q-39 -10 -79 -12q-28 -61 -72 -117.5t-96.5 -98.5t-109.5 -65t-111 -16
q-56 7 -87.5 31t-47 55t-19.5 64t-5 58q0 18 10 55.5t31.5 81.5t54.5 90t79 82.5t105.5 57.5t133.5 15q17 -2 28 -8t17 -13.5t7 -13.5t-1 -6q-27 -2 -59.5 -21.5t-66 -50t-66 -69t-58.5 -79t-43.5 -80t-22.5 -70.5q-2 -9 -3 -23.5t1.5 -28t11 -24t27.5 -13.5q24 -3 56 16.5
t67.5 52.5t70 74t63.5 80q-19 10 -31 25t-19.5 33.5t-10 38.5t-2.5 40q1 30 18.5 52.5t43 33.5t54 10.5t51 -15t34 -44t4.5 -76.5q-2 -11 -4.5 -22t-5.5 -22q46 3 95 22q26 40 60.5 76.5t77 64.5t93 45.5t107.5 19.5zM979 506q-49 -5 -91 -34.5t-75 -70t-56.5 -85
t-35.5 -78.5q32 7 75.5 24t86.5 42t81 56.5t59 69.5q7 12 8.5 25.5t-3.5 25.5t-17 19t-32 6zM409 409q-1 -17 1 -26t7 -13.5t11.5 -6t14.5 -4.5q7 11 12.5 20t9.5 17q15 31 9 46.5t-20 17t-29 -11.5t-16 -39z" />
    <glyph glyph-name="Ograve" unicode="&#xd2;" horiz-adv-x="1111" 
d="M574 1202q14 5 24.5 1t16 -12t6 -17.5t-4.5 -14.5q-67 -67 -126 -146t-108 -164t-88 -174t-66 -176.5t-41.5 -170.5t-15.5 -157q0 -86 19 -137t46 -78.5t55.5 -36t46.5 -9.5q42 -1 86 17.5t87.5 52.5t86.5 80.5t83 101.5q-51 21 -96.5 58t-81.5 90t-58.5 122t-26.5 155
q-1 16 3 50.5t13.5 80.5t26 100t41 108.5t58.5 106.5t78.5 93.5t100 69t124.5 34.5q20 2 49.5 -1.5t62.5 -18t65 -42t57 -73.5t38.5 -113.5t9.5 -161.5q-3 -62 -20 -135.5t-46.5 -151t-70 -157t-90.5 -153.5q53 11 105 34t97.5 57t82.5 77.5t61 96.5q4 8 16 10t23 -1.5
t17.5 -13t-1.5 -25.5q-41 -81 -101 -139.5t-125 -97t-128.5 -59t-110.5 -26.5q-55 -68 -117 -125.5t-130 -98t-140.5 -60.5t-148.5 -14q-18 1 -45.5 8t-58.5 23t-63 43.5t-59 70t-46.5 102.5t-24.5 141q-4 49 7 129.5t38.5 176t71.5 197t106.5 194t144.5 166t185 113.5z
M518 594q-6 -81 7.5 -143t42 -107t69.5 -73.5t89 -42.5q51 76 94 158.5t75 159t50.5 142.5t20.5 110q5 116 -5.5 187t-27.5 110t-37 51.5t-33 12.5q-74 -2 -128.5 -40t-92.5 -95.5t-61.5 -125.5t-37 -130.5t-19 -110t-6.5 -63.5zM733 1510q-2 -2 9.5 -21.5t25.5 -42.5
l38 -62q-25 -4 -44 -7q-17 -2 -32 -2.5t-17 3.5q-1 3 -9.5 13t-20 24t-24 29.5t-22 29t-13.5 22t1 8.5q7 0 25.5 1.5t37.5 3t32.5 2t12.5 -0.5z" />
    <glyph glyph-name="Uacute" unicode="&#xda;" horiz-adv-x="1153" 
d="M18 969q5 11 31 36t65.5 51t88.5 45.5t101 19.5q64 0 103.5 -18.5t61.5 -47.5t29.5 -64.5t7 -69.5t-5.5 -62.5t-9 -43.5q-12 -48 -40 -111t-63.5 -133.5t-74 -145t-72 -145.5t-57.5 -135t-30 -112.5t10 -78.5t62 -34q29 -2 71 21t91.5 64.5t103 97.5t105 119.5t98 131
t82.5 131.5q32 99 67.5 192.5t67 169t55 126t31.5 64.5q13 23 35 38t46.5 23t48.5 10t42.5 -0.5t28 -9t4.5 -14.5q-21 -36 -51.5 -105t-65 -158t-70.5 -191t-69 -203t-59 -194t-41 -164.5t-15.5 -114.5t18.5 -44q42 -2 84 20t82 59.5t77 86.5t70 100.5t61 102t49 91.5
t34.5 67.5t17.5 30.5q8 8 17.5 13.5t17.5 5.5t13.5 -7.5t5.5 -25.5q0 -9 -13.5 -42t-37.5 -80.5t-58.5 -105t-76 -115.5t-89.5 -111t-100.5 -92.5t-107.5 -60.5t-110 -13q-36 5 -58.5 27t-34 57.5t-13 82.5t5 102.5t19 117t30.5 125.5q-26 -46 -63 -100.5t-81.5 -109.5
t-94.5 -106t-101 -90.5t-101.5 -63.5t-95.5 -24q-53 0 -91 13.5t-63 36t-39.5 51t-20 59t-5 60t5.5 54.5q9 46 34.5 109.5t59.5 137t72 152t72 154t59 142.5t33 118.5t-5.5 82t-56.5 31.5q-30 1 -62.5 -16.5t-61 -39.5t-50.5 -42t-31 -25t-17 -3t-12.5 7.5t-5 14.5t4.5 20z
M914 1504q3 -1 14.5 -1h26t30.5 0.5t29 1t20.5 0.5t5.5 -1q-3 -1 -13.5 -10t-25 -21.5t-31.5 -27t-32 -27t-26 -21t-14 -9.5q-5 -2 -19.5 -2.5t-30 0t-27.5 2t-12 4.5t14.5 21t33 38.5t35.5 37t22 15.5zM839 622l-2 -4q2 4 2.5 6t-0.5 -2z" />
    <glyph glyph-name="Ucircumflex" unicode="&#xdb;" horiz-adv-x="1153" 
d="M18 969q5 11 31 36t65.5 51t88.5 45.5t101 19.5q64 0 103.5 -18.5t61.5 -47.5t29.5 -64.5t7 -69.5t-5.5 -62.5t-9 -43.5q-12 -48 -40 -111t-63.5 -133.5t-74 -145t-72 -145.5t-57.5 -135t-30 -112.5t10 -78.5t62 -34q29 -2 71 21t91.5 64.5t103 97.5t105 119.5t98 131
t82.5 131.5q32 99 67.5 192.5t67 169t55 126t31.5 64.5q13 23 35 38t46.5 23t48.5 10t42.5 -0.5t28 -9t4.5 -14.5q-21 -36 -51.5 -105t-65 -158t-70.5 -191t-69 -203t-59 -194t-41 -164.5t-15.5 -114.5t18.5 -44q42 -2 84 20t82 59.5t77 86.5t70 100.5t61 102t49 91.5
t34.5 67.5t17.5 30.5q8 8 17.5 13.5t17.5 5.5t13.5 -7.5t5.5 -25.5q0 -9 -13.5 -42t-37.5 -80.5t-58.5 -105t-76 -115.5t-89.5 -111t-100.5 -92.5t-107.5 -60.5t-110 -13q-36 5 -58.5 27t-34 57.5t-13 82.5t5 102.5t19 117t30.5 125.5q-26 -46 -63 -100.5t-81.5 -109.5
t-94.5 -106t-101 -90.5t-101.5 -63.5t-95.5 -24q-53 0 -91 13.5t-63 36t-39.5 51t-20 59t-5 60t5.5 54.5q9 46 34.5 109.5t59.5 137t72 152t72 154t59 142.5t33 118.5t-5.5 82t-56.5 31.5q-30 1 -62.5 -16.5t-61 -39.5t-50.5 -42t-31 -25t-17 -3t-12.5 7.5t-5 14.5t4.5 20z
M845 1522q0 2 17.5 3.5t38.5 2.5q25 1 56 0l56 -141l-99 -7l-19 76l-96 -79l-112 -3q44 39 79 71q15 13 29 26.5t25 24t18 17.5t7 9zM839 622l-2 -4q2 4 2.5 6t-0.5 -2z" />
    <glyph glyph-name="Ugrave" unicode="&#xd9;" horiz-adv-x="1153" 
d="M18 969q5 11 31 36t65.5 51t88.5 45.5t101 19.5q64 0 103.5 -18.5t61.5 -47.5t29.5 -64.5t7 -69.5t-5.5 -62.5t-9 -43.5q-12 -48 -40 -111t-63.5 -133.5t-74 -145t-72 -145.5t-57.5 -135t-30 -112.5t10 -78.5t62 -34q29 -2 71 21t91.5 64.5t103 97.5t105 119.5t98 131
t82.5 131.5q32 99 67.5 192.5t67 169t55 126t31.5 64.5q13 23 35 38t46.5 23t48.5 10t42.5 -0.5t28 -9t4.5 -14.5q-21 -36 -51.5 -105t-65 -158t-70.5 -191t-69 -203t-59 -194t-41 -164.5t-15.5 -114.5t18.5 -44q42 -2 84 20t82 59.5t77 86.5t70 100.5t61 102t49 91.5
t34.5 67.5t17.5 30.5q8 8 17.5 13.5t17.5 5.5t13.5 -7.5t5.5 -25.5q0 -9 -13.5 -42t-37.5 -80.5t-58.5 -105t-76 -115.5t-89.5 -111t-100.5 -92.5t-107.5 -60.5t-110 -13q-36 5 -58.5 27t-34 57.5t-13 82.5t5 102.5t19 117t30.5 125.5q-26 -46 -63 -100.5t-81.5 -109.5
t-94.5 -106t-101 -90.5t-101.5 -63.5t-95.5 -24q-53 0 -91 13.5t-63 36t-39.5 51t-20 59t-5 60t5.5 54.5q9 46 34.5 109.5t59.5 137t72 152t72 154t59 142.5t33 118.5t-5.5 82t-56.5 31.5q-30 1 -62.5 -16.5t-61 -39.5t-50.5 -42t-31 -25t-17 -3t-12.5 7.5t-5 14.5t4.5 20z
M604 1510q-2 -2 9.5 -21.5t25.5 -42.5l38 -62q-25 -4 -44 -7q-17 -2 -32 -2.5t-17 3.5q-1 3 -9.5 13t-20 24t-24 29.5t-22 29t-13.5 22t1 8.5q7 0 25.5 1.5t37.5 3t32.5 2t12.5 -0.5zM839 622l-2 -4q2 4 2.5 6t-0.5 -2z" />
    <glyph glyph-name="Ocircumflex" unicode="&#xd4;" horiz-adv-x="1111" 
d="M574 1202q14 5 24.5 1t16 -12t6 -17.5t-4.5 -14.5q-67 -67 -126 -146t-108 -164t-88 -174t-66 -176.5t-41.5 -170.5t-15.5 -157q0 -86 19 -137t46 -78.5t55.5 -36t46.5 -9.5q42 -1 86 17.5t87.5 52.5t86.5 80.5t83 101.5q-51 21 -96.5 58t-81.5 90t-58.5 122t-26.5 155
q-1 16 3 50.5t13.5 80.5t26 100t41 108.5t58.5 106.5t78.5 93.5t100 69t124.5 34.5q20 2 49.5 -1.5t62.5 -18t65 -42t57 -73.5t38.5 -113.5t9.5 -161.5q-3 -62 -20 -135.5t-46.5 -151t-70 -157t-90.5 -153.5q53 11 105 34t97.5 57t82.5 77.5t61 96.5q4 8 16 10t23 -1.5
t17.5 -13t-1.5 -25.5q-41 -81 -101 -139.5t-125 -97t-128.5 -59t-110.5 -26.5q-55 -68 -117 -125.5t-130 -98t-140.5 -60.5t-148.5 -14q-18 1 -45.5 8t-58.5 23t-63 43.5t-59 70t-46.5 102.5t-24.5 141q-4 49 7 129.5t38.5 176t71.5 197t106.5 194t144.5 166t185 113.5z
M518 594q-6 -81 7.5 -143t42 -107t69.5 -73.5t89 -42.5q51 76 94 158.5t75 159t50.5 142.5t20.5 110q5 116 -5.5 187t-27.5 110t-37 51.5t-33 12.5q-74 -2 -128.5 -40t-92.5 -95.5t-61.5 -125.5t-37 -130.5t-19 -110t-6.5 -63.5zM871 1522q0 2 17.5 3.5t38.5 2.5q25 1 56 0
l56 -141l-99 -7l-19 76l-96 -79l-112 -3q44 39 79 71q15 13 29 26.5t25 24t18 17.5t7 9z" />
    <glyph glyph-name="Oacute" unicode="&#xd3;" horiz-adv-x="1111" 
d="M574 1202q14 5 24.5 1t16 -12t6 -17.5t-4.5 -14.5q-67 -67 -126 -146t-108 -164t-88 -174t-66 -176.5t-41.5 -170.5t-15.5 -157q0 -86 19 -137t46 -78.5t55.5 -36t46.5 -9.5q42 -1 86 17.5t87.5 52.5t86.5 80.5t83 101.5q-51 21 -96.5 58t-81.5 90t-58.5 122t-26.5 155
q-1 16 3 50.5t13.5 80.5t26 100t41 108.5t58.5 106.5t78.5 93.5t100 69t124.5 34.5q20 2 49.5 -1.5t62.5 -18t65 -42t57 -73.5t38.5 -113.5t9.5 -161.5q-3 -62 -20 -135.5t-46.5 -151t-70 -157t-90.5 -153.5q53 11 105 34t97.5 57t82.5 77.5t61 96.5q4 8 16 10t23 -1.5
t17.5 -13t-1.5 -25.5q-41 -81 -101 -139.5t-125 -97t-128.5 -59t-110.5 -26.5q-55 -68 -117 -125.5t-130 -98t-140.5 -60.5t-148.5 -14q-18 1 -45.5 8t-58.5 23t-63 43.5t-59 70t-46.5 102.5t-24.5 141q-4 49 7 129.5t38.5 176t71.5 197t106.5 194t144.5 166t185 113.5z
M518 594q-6 -81 7.5 -143t42 -107t69.5 -73.5t89 -42.5q51 76 94 158.5t75 159t50.5 142.5t20.5 110q5 116 -5.5 187t-27.5 110t-37 51.5t-33 12.5q-74 -2 -128.5 -40t-92.5 -95.5t-61.5 -125.5t-37 -130.5t-19 -110t-6.5 -63.5zM857 1504q3 -1 14.5 -1h26t30.5 0.5t29 1
t20.5 0.5t5.5 -1t-13 -10t-25.5 -21.5t-31.5 -27t-32 -27t-26 -21t-14 -9.5q-5 -2 -19.5 -2.5t-30 0t-27.5 2t-12 4.5t14.5 21t33 38.5t35.5 37t22 15.5z" />
    <glyph glyph-name="Igrave" unicode="&#xcc;" horiz-adv-x="820" 
d="M993 1200q21 1 39.5 -6t30.5 -20.5t15 -32t-6 -40.5q-7 -18 -29 -67.5t-56 -121.5t-78.5 -161t-96 -185.5t-108.5 -195.5t-116.5 -191t-120 -171.5t-118.5 -138t-112.5 -90t-102.5 -26.5q-15 1 -37.5 7.5t-43.5 21t-36.5 39.5t-16.5 65q0 8 2.5 27t11.5 41.5t27 46
t49 41.5q17 10 28 7t16 -12t4 -20t-7 -16q-24 -21 -37.5 -46.5t-17 -49.5t2 -44t18.5 -31.5t33.5 -11t47.5 18.5q13 8 40.5 48t65.5 102t83.5 141.5t95 167.5t99.5 180t97 179t88 164t71 135.5t48 93t18 36.5q2 10 -6 15.5t-21 1.5q-77 -24 -154.5 -56t-145 -80
t-120.5 -115.5t-83 -162.5q-9 -29 -12.5 -55t-7 -45t-10.5 -29.5t-25 -8.5q-12 1 -17 14.5t-5.5 32.5t2 40t5.5 38q10 67 46 131.5t90 122.5t122.5 107t143.5 85t153.5 57t153.5 23zM917 1510q-2 -2 9.5 -21.5t25.5 -42.5l38 -62q-25 -4 -44 -7q-17 -2 -32 -2.5t-17 3.5
q-2 3 -10 13t-19.5 24t-24 29.5t-22 29t-13.5 22t1 8.5q7 0 25.5 1.5t37.5 3t32.5 2t12.5 -0.5z" />
    <glyph glyph-name="Idieresis" unicode="&#xcf;" horiz-adv-x="820" 
d="M993 1200q21 1 39.5 -6t30.5 -20.5t15 -32t-6 -40.5q-7 -18 -29 -67.5t-56 -121.5t-78.5 -161t-96 -185.5t-108.5 -195.5t-116.5 -191t-120 -171.5t-118.5 -138t-112.5 -90t-102.5 -26.5q-15 1 -37.5 7.5t-43.5 21t-36.5 39.5t-16.5 65q0 8 2.5 27t11.5 41.5t27 46
t49 41.5q17 10 28 7t16 -12t4 -20t-7 -16q-24 -21 -37.5 -46.5t-17 -49.5t2 -44t18.5 -31.5t33.5 -11t47.5 18.5q13 8 40.5 48t65.5 102t83.5 141.5t95 167.5t99.5 180t97 179t88 164t71 135.5t48 93t18 36.5q2 10 -6 15.5t-21 1.5q-77 -24 -154.5 -56t-145 -80
t-120.5 -115.5t-83 -162.5q-9 -29 -12.5 -55t-7 -45t-10.5 -29.5t-25 -8.5q-12 1 -17 14.5t-5.5 32.5t2 40t5.5 38q10 67 46 131.5t90 122.5t122.5 107t143.5 85t153.5 57t153.5 23zM1119 1427q0 25 17 42t43 17t44 -17t18 -42t-18 -42t-44 -17t-43 17t-17 42zM935 1427
q0 25 17.5 42t43.5 17t44 -17t18 -42t-18 -42t-44 -17t-43.5 17t-17.5 42z" />
    <glyph glyph-name="Icircumflex" unicode="&#xce;" horiz-adv-x="820" 
d="M993 1200q21 1 39.5 -6t30.5 -20.5t15 -32t-6 -40.5q-7 -18 -29 -67.5t-56 -121.5t-78.5 -161t-96 -185.5t-108.5 -195.5t-116.5 -191t-120 -171.5t-118.5 -138t-112.5 -90t-102.5 -26.5q-15 1 -37.5 7.5t-43.5 21t-36.5 39.5t-16.5 65q0 8 2.5 27t11.5 41.5t27 46
t49 41.5q17 10 28 7t16 -12t4 -20t-7 -16q-24 -21 -37.5 -46.5t-17 -49.5t2 -44t18.5 -31.5t33.5 -11t47.5 18.5q13 8 40.5 48t65.5 102t83.5 141.5t95 167.5t99.5 180t97 179t88 164t71 135.5t48 93t18 36.5q2 10 -6 15.5t-21 1.5q-77 -24 -154.5 -56t-145 -80
t-120.5 -115.5t-83 -162.5q-9 -29 -12.5 -55t-7 -45t-10.5 -29.5t-25 -8.5q-12 1 -17 14.5t-5.5 32.5t2 40t5.5 38q10 67 46 131.5t90 122.5t122.5 107t143.5 85t153.5 57t153.5 23zM991 1522q0 2 17.5 3.5t38.5 2.5q25 1 56 0l56 -141l-99 -7l-19 76l-96 -79l-112 -3
q44 39 79 71q15 13 29 26.5t25 24t18 17.5t7 9z" />
    <glyph glyph-name="Iacute" unicode="&#xcd;" horiz-adv-x="820" 
d="M993 1200q21 1 39.5 -6t30.5 -20.5t15 -32t-6 -40.5q-7 -18 -29 -67.5t-56 -121.5t-78.5 -161t-96 -185.5t-108.5 -195.5t-116.5 -191t-120 -171.5t-118.5 -138t-112.5 -90t-102.5 -26.5q-15 1 -37.5 7.5t-43.5 21t-36.5 39.5t-16.5 65q0 8 2.5 27t11.5 41.5t27 46
t49 41.5q17 10 28 7t16 -12t4 -20t-7 -16q-24 -21 -37.5 -46.5t-17 -49.5t2 -44t18.5 -31.5t33.5 -11t47.5 18.5q13 8 40.5 48t65.5 102t83.5 141.5t95 167.5t99.5 180t97 179t88 164t71 135.5t48 93t18 36.5q2 10 -6 15.5t-21 1.5q-77 -24 -154.5 -56t-145 -80
t-120.5 -115.5t-83 -162.5q-9 -29 -12.5 -55t-7 -45t-10.5 -29.5t-25 -8.5q-12 1 -17 14.5t-5.5 32.5t2 40t5.5 38q10 67 46 131.5t90 122.5t122.5 107t143.5 85t153.5 57t153.5 23zM1105 1504q3 -1 14.5 -1h26t30.5 0.5t29 1t20.5 0.5t5.5 -1t-13 -10t-25.5 -21.5
t-31.5 -27t-32 -27t-26 -21t-14 -9.5q-5 -2 -19.5 -2.5t-30 0t-27.5 2t-12 4.5t14.5 21t33 38.5t35.5 37t22 15.5z" />
    <glyph glyph-name="Egrave" unicode="&#xc8;" horiz-adv-x="834" 
d="M790 1259q54 -2 85.5 -14t46.5 -30.5t16.5 -42.5t-4.5 -50q-15 -65 -59 -113.5t-105.5 -81t-135.5 -48.5t-148 -15q-9 -27 -12 -54v-12.5t1.5 -24.5t5.5 -30.5t13 -31.5q78 15 113 9q24 -5 35.5 -21.5t8 -34t-25 -31.5t-63.5 -12q-47 2 -86 9q-39 -30 -82.5 -73.5
t-82.5 -95t-69.5 -108t-43.5 -112t-4 -108t48 -96.5q31 -35 76.5 -42t99 6.5t113 44t118.5 72t115 89.5t103.5 96.5t83.5 94t55 80.5q9 17 19 21t17.5 -1t10 -17t-2.5 -28q-4 -11 -25 -42t-56 -74.5t-82.5 -95.5t-104 -105t-120.5 -103t-132 -89t-138 -63t-139 -26
q-49 -1 -96.5 13t-86.5 43t-65.5 72.5t-32.5 101.5q-9 82 2.5 152.5t39 129t67.5 106t87.5 85.5t98.5 66t101 48q-39 26 -60 62t-19 84q0 21 2 40.5t6 38.5q-44 16 -80.5 41t-61.5 58.5t-36 75.5t-4 93q3 21 12.5 32.5t19.5 11.5t16.5 -11.5t2.5 -35.5q-6 -40 2.5 -73
t28.5 -59.5t49.5 -46t65.5 -32.5q22 64 62 111.5t87.5 82t98.5 56.5t96.5 35.5t81 18t52.5 4.5zM782 1186q-25 -4 -61.5 -27t-75 -59t-74.5 -82.5t-61 -95.5q63 2 124.5 16t111.5 38.5t83 60t40 80.5q4 27 -3 42t-20.5 21.5t-30.5 7t-33 -1.5zM834 1510q-2 -2 9.5 -21.5
t25.5 -42.5l38 -62q-25 -4 -44 -7q-17 -2 -32 -2.5t-17 3.5q-2 3 -10 13t-19.5 24t-24 29.5t-22 29t-13.5 22t1 8.5q7 0 25.5 1.5t37.5 3t32.5 2t12.5 -0.5zM579 684q-14 0 -38 -11q16 -5 33 -4q27 1 24.5 7t-19.5 8z" />
    <glyph glyph-name="Edieresis" unicode="&#xcb;" horiz-adv-x="834" 
d="M790 1259q54 -2 85.5 -14t46.5 -30.5t16.5 -42.5t-4.5 -50q-15 -65 -59 -113.5t-105.5 -81t-135.5 -48.5t-148 -15q-9 -27 -12 -54v-12.5t1.5 -24.5t5.5 -30.5t13 -31.5q78 15 113 9q24 -5 35.5 -21.5t8 -34t-25 -31.5t-63.5 -12q-47 2 -86 9q-39 -30 -82.5 -73.5
t-82.5 -95t-69.5 -108t-43.5 -112t-4 -108t48 -96.5q31 -35 76.5 -42t99 6.5t113 44t118.5 72t115 89.5t103.5 96.5t83.5 94t55 80.5q9 17 19 21t17.5 -1t10 -17t-2.5 -28q-4 -11 -25 -42t-56 -74.5t-82.5 -95.5t-104 -105t-120.5 -103t-132 -89t-138 -63t-139 -26
q-49 -1 -96.5 13t-86.5 43t-65.5 72.5t-32.5 101.5q-9 82 2.5 152.5t39 129t67.5 106t87.5 85.5t98.5 66t101 48q-39 26 -60 62t-19 84q0 21 2 40.5t6 38.5q-44 16 -80.5 41t-61.5 58.5t-36 75.5t-4 93q3 21 12.5 32.5t19.5 11.5t16.5 -11.5t2.5 -35.5q-6 -40 2.5 -73
t28.5 -59.5t49.5 -46t65.5 -32.5q22 64 62 111.5t87.5 82t98.5 56.5t96.5 35.5t81 18t52.5 4.5zM782 1186q-25 -4 -61.5 -27t-75 -59t-74.5 -82.5t-61 -95.5q63 2 124.5 16t111.5 38.5t83 60t40 80.5q4 27 -3 42t-20.5 21.5t-30.5 7t-33 -1.5zM681 1427q0 25 17.5 42
t43.5 17t44 -17t18 -42t-18 -42t-44 -17t-43.5 17t-17.5 42zM865 1427q0 25 17 42t43 17t44 -17t18 -42t-18 -42t-44 -17t-43 17t-17 42zM579 684q-14 0 -38 -11q16 -5 33 -4q27 1 24.5 7t-19.5 8z" />
    <glyph glyph-name="Aacute" unicode="&#xc1;" horiz-adv-x="1266" 
d="M1303 1268q23 3 38.5 -2.5t25.5 -13.5q11 -10 19 -22q-53 -95 -110 -201q-24 -45 -51.5 -97.5t-57 -109.5t-59 -117.5t-58.5 -121.5q68 -34 113 -94t50 -154q66 31 118.5 67.5t87.5 76.5q12 14 24.5 16.5t21.5 -3t11 -18t-8 -29.5q-13 -23 -37.5 -46.5t-58 -46t-74.5 -44
t-87 -40.5q-3 -29 -9 -61q-15 -75 -52.5 -145.5t-85.5 -124.5t-102 -86.5t-102 -32.5q-65 0 -101.5 28t-51 76t-9.5 112.5t23 138.5q-17 2 -32.5 3.5t-30.5 4.5q-33 5 -78 15.5t-91 26.5q-42 -53 -78.5 -99t-65 -81.5t-47 -57.5t-24.5 -27q-14 -12 -34 -33t-44.5 -42
t-53.5 -38t-60 -22t-63.5 7t-64.5 50q-12 13 -18 35t-3 40t17 24.5t41 -9.5q8 -5 15.5 -13t15.5 -16.5t16 -15.5t16 -10q22 -8 58.5 14.5t83.5 68.5t103.5 111.5t118.5 143.5q-28 15 -51 33t-37.5 40t-18.5 48t6 57q13 43 50.5 78t90.5 61t118.5 42t135.5 22
q60 79 119.5 156t116 146t108.5 128.5t98 103.5t83.5 70t65.5 30zM1143 242q-63 -22 -128.5 -38t-131.5 -24q-18 -57 -29 -104.5t-12 -83.5t9 -58.5t33 -27.5q34 -8 73 18t75 71t65 103t41 116zM527 271q33 -17 67 -26t60 -11q20 -2 41 -3t42 -1q24 81 57.5 167t71.5 168
h-12t-12 1q-21 1 -42.5 1t-42.5 -2zM906 244q64 10 125.5 26.5t118.5 38.5q1 87 -34 139t-92 79q-34 -74 -64 -145.5t-54 -137.5zM649 551q-49 -9 -91.5 -23.5t-74 -33t-50 -40.5t-19.5 -46q-2 -29 12.5 -53t37.5 -44zM1084 986q-5 -7 -28.5 -37t-59.5 -77t-83 -107.5
t-100 -128.5q39 -2 76 -6q2 -1 7 -1q33 70 65 132t58 109.5t43.5 77.5t21.5 38zM1373 1490q3 -1 14.5 -1h26t30.5 0.5t29 1t20.5 0.5t5.5 -1q-3 -1 -13.5 -10t-25 -21.5t-31.5 -27t-32 -27t-26 -21t-14 -9.5q-5 -2 -19.5 -2.5t-30 0t-27.5 2t-12 4.5t14.5 21t33 38.5
t35.5 37t22 15.5z" />
    <glyph glyph-name="Ecircumflex" unicode="&#xca;" horiz-adv-x="834" 
d="M790 1259q54 -2 85.5 -14t46.5 -30.5t16.5 -42.5t-4.5 -50q-15 -65 -59 -113.5t-105.5 -81t-135.5 -48.5t-148 -15q-9 -27 -12 -54v-12.5t1.5 -24.5t5.5 -30.5t13 -31.5q78 15 113 9q24 -5 35.5 -21.5t8 -34t-25 -31.5t-63.5 -12q-47 2 -86 9q-39 -30 -82.5 -73.5
t-82.5 -95t-69.5 -108t-43.5 -112t-4 -108t48 -96.5q31 -35 76.5 -42t99 6.5t113 44t118.5 72t115 89.5t103.5 96.5t83.5 94t55 80.5q9 17 19 21t17.5 -1t10 -17t-2.5 -28q-4 -11 -25 -42t-56 -74.5t-82.5 -95.5t-104 -105t-120.5 -103t-132 -89t-138 -63t-139 -26
q-49 -1 -96.5 13t-86.5 43t-65.5 72.5t-32.5 101.5q-9 82 2.5 152.5t39 129t67.5 106t87.5 85.5t98.5 66t101 48q-39 26 -60 62t-19 84q0 21 2 40.5t6 38.5q-44 16 -80.5 41t-61.5 58.5t-36 75.5t-4 93q3 21 12.5 32.5t19.5 11.5t16.5 -11.5t2.5 -35.5q-6 -40 2.5 -73
t28.5 -59.5t49.5 -46t65.5 -32.5q22 64 62 111.5t87.5 82t98.5 56.5t96.5 35.5t81 18t52.5 4.5zM782 1186q-25 -4 -61.5 -27t-75 -59t-74.5 -82.5t-61 -95.5q63 2 124.5 16t111.5 38.5t83 60t40 80.5q4 27 -3 42t-20.5 21.5t-30.5 7t-33 -1.5zM848 1522q0 2 17.5 3.5
t38.5 2.5q25 1 56 0l56 -141l-99 -7l-19 76l-96 -79l-112 -3q44 39 79 71q15 13 29 26.5t25 24t18 17.5t7 9zM579 684q-14 0 -38 -11q16 -5 33 -4q27 1 24.5 7t-19.5 8z" />
    <glyph glyph-name="Acircumflex" unicode="&#xc2;" horiz-adv-x="1266" 
d="M1303 1268q23 3 38.5 -2.5t25.5 -13.5q11 -10 19 -22q-53 -95 -110 -201q-24 -45 -51.5 -97.5t-57 -109.5t-59 -117.5t-58.5 -121.5q68 -34 113 -94t50 -154q66 31 118.5 67.5t87.5 76.5q12 14 24.5 16.5t21.5 -3t11 -18t-8 -29.5q-13 -23 -37.5 -46.5t-58 -46t-74.5 -44
t-87 -40.5q-3 -29 -9 -61q-15 -75 -52.5 -145.5t-85.5 -124.5t-102 -86.5t-102 -32.5q-65 0 -101.5 28t-51 76t-9.5 112.5t23 138.5q-17 2 -32.5 3.5t-30.5 4.5q-33 5 -78 15.5t-91 26.5q-42 -53 -78.5 -99t-65 -81.5t-47 -57.5t-24.5 -27q-14 -12 -34 -33t-44.5 -42
t-53.5 -38t-60 -22t-63.5 7t-64.5 50q-12 13 -18 35t-3 40t17 24.5t41 -9.5q8 -5 15.5 -13t15.5 -16.5t16 -15.5t16 -10q22 -8 58.5 14.5t83.5 68.5t103.5 111.5t118.5 143.5q-28 15 -51 33t-37.5 40t-18.5 48t6 57q13 43 50.5 78t90.5 61t118.5 42t135.5 22
q60 79 119.5 156t116 146t108.5 128.5t98 103.5t83.5 70t65.5 30zM1143 242q-63 -22 -128.5 -38t-131.5 -24q-18 -57 -29 -104.5t-12 -83.5t9 -58.5t33 -27.5q34 -8 73 18t75 71t65 103t41 116zM527 271q33 -17 67 -26t60 -11q20 -2 41 -3t42 -1q24 81 57.5 167t71.5 168
h-12t-12 1q-21 1 -42.5 1t-42.5 -2zM906 244q64 10 125.5 26.5t118.5 38.5q1 87 -34 139t-92 79q-34 -74 -64 -145.5t-54 -137.5zM1348 1522q0 2 17.5 3.5t38.5 2.5q25 1 56 0l56 -141l-99 -7l-19 76l-96 -79l-112 -3q44 39 79 71q15 13 29 26.5t25 24t18 17.5t7 9zM649 551
q-49 -9 -91.5 -23.5t-74 -33t-50 -40.5t-19.5 -46q-2 -29 12.5 -53t37.5 -44zM1084 986q-5 -7 -28.5 -37t-59.5 -77t-83 -107.5t-100 -128.5q39 -2 76 -6q2 -1 7 -1q33 70 65 132t58 109.5t43.5 77.5t21.5 38z" />
    <glyph glyph-name="florin" unicode="&#x192;" horiz-adv-x="500" 
d="M427 846q16 1 27.5 -6.5t17.5 -19.5t5 -26.5t-8 -26.5q-43 -69 -93 -158.5t-101 -191.5q57 -8 117.5 -12t113 1t91.5 21.5t54 49.5q9 19 22.5 25t24.5 1.5t16.5 -16.5t-0.5 -28q-18 -44 -52 -71.5t-76.5 -43t-91 -20.5t-96 -3.5t-89.5 7t-73 11.5q-8 -17 -15.5 -33.5
t-15.5 -33.5q10 -38 21.5 -90t18.5 -114t8 -131t-9 -141q-15 -104 -40 -176.5t-55 -119t-62 -72t-61 -37t-52.5 -13t-36.5 0.5q-40 6 -70 31t-48 64t-23 89t5 106q12 65 38 144.5t61.5 166.5t76.5 176.5t83 173.5q-35 39 -60 41q-16 1 -14 14.5t14 29.5t28.5 29.5t28.5 13.5
q2 0 18.5 -4t42.5 -9q30 59 57.5 110.5t49.5 91.5t37 67l20 36q13 24 33 41.5t41.5 29t40.5 17.5t30 8zM186 -184q10 99 -1 185t-34 156q-39 -87 -74.5 -172t-63 -162t-46 -142.5t-25 -114t1 -77t32.5 -31.5q55 -6 90 26t57.5 85.5t36.5 119t26 127.5z" />
    <glyph glyph-name="ydieresis" unicode="&#xff;" 
d="M560 518q21 0 35 -6t21.5 -15.5t9.5 -20.5t-1 -21q-23 -66 -46 -125.5t-45 -115.5q99 59 183 123t140 141q6 9 16 9.5t18 -4.5t12 -13.5t0 -18.5q-20 -43 -59.5 -84t-92.5 -81.5t-118 -80t-135 -78.5q-66 -159 -127.5 -278.5t-118.5 -205.5t-110 -142.5t-102 -89
t-94.5 -44.5t-87.5 -9q-56 3 -89.5 24.5t-51.5 49t-24 56t-6 46.5q-1 62 23.5 117t69 104.5t105.5 94t133 87t151 83t159 82.5l38 88q-33 -37 -69 -68t-73 -51t-74 -26.5t-72 5.5q-41 13 -53.5 48.5t-6.5 82.5t26.5 100t44.5 101.5t46.5 87.5t33.5 57q16 28 33 40.5t31.5 17
t25 3.5t14.5 -1q18 0 29.5 -7.5t17.5 -17t7.5 -20t0.5 -17.5q-6 -28 -31.5 -67.5t-56 -84.5t-58.5 -92t-39 -89q-3 -11 -3 -21.5t3.5 -18.5t10.5 -11.5t19 -1.5q21 4 59 28t83 68t92 107.5t87 147.5q2 2 3 2q8 11 22.5 18.5t40.5 7.5zM-133 -585q32 0 67 24t71 66t72.5 99.5
t72.5 124t71 138.5t68 145q-100 -54 -193.5 -109.5t-168 -113.5t-122 -119.5t-54.5 -127.5q-2 -20 4.5 -42.5t21 -41t37.5 -31t53 -12.5zM347 713q0 25 17.5 42t43.5 17t44 -17t18 -42t-18 -42t-44 -17t-43.5 17t-17.5 42zM531 713q0 25 17 42t43 17t44 -17t18 -42t-18 -42
t-44 -17t-43 17t-17 42z" />
    <glyph glyph-name="Ydieresis" unicode="&#x178;" horiz-adv-x="1400" 
d="M1382 1159q9 9 29 17t43.5 14.5t48.5 11t44.5 5.5t30 -1.5t6.5 -10.5q-72 -131 -136.5 -267.5t-124 -274t-115 -273.5t-109.5 -266q127 70 244 157.5t217 202.5q15 17 29.5 19t23 -6t9 -23.5t-12.5 -33.5q-49 -65 -110.5 -122.5t-132 -108t-148.5 -95.5t-159 -86
q-57 -135 -115 -259t-119.5 -229.5t-127.5 -190.5t-139.5 -142.5t-156.5 -84.5t-178 -18q-65 6 -109.5 26t-73.5 47t-44.5 58.5t-22 59.5t-7 50.5t0.5 31.5q9 79 49 142t103.5 116.5t147.5 99.5t181.5 89.5t205 88.5t218.5 96q42 103 82.5 206t78.5 204q-31 -41 -70 -84.5
t-82.5 -85t-89.5 -78.5t-92.5 -64.5t-91 -43.5t-84.5 -16q-53 0 -91 13.5t-63.5 35.5t-39.5 51t-20 59t-5 60t6 54q9 46 33.5 107t57 130.5t68.5 142.5t67.5 142.5t54.5 131.5t29 109t-8.5 75t-57.5 30q-30 1 -62.5 -16.5t-61 -39.5t-50.5 -42t-31 -25t-17 -3.5t-12.5 7.5
t-5.5 15t4 20q5 10 31 35.5t65.5 51t89 45.5t101.5 20q64 0 103.5 -18.5t61.5 -47.5t29.5 -64.5t7 -69.5t-5.5 -62.5t-9 -43.5q-12 -48 -39 -108t-61 -126.5t-70 -136t-67.5 -135t-53 -123.5t-26 -102.5t12.5 -72t63 -31.5q28 -2 69.5 17.5t91 55t103.5 84t106.5 105
t101 117.5t86.5 121q38 98 74 186.5t70 160.5t66.5 125t62.5 82zM234 -830q84 -6 163.5 51.5t154.5 160t146 240t137 291.5q-98 -44 -193 -85t-180.5 -82t-159.5 -83.5t-130 -89.5t-90.5 -98.5t-41.5 -110.5q-2 -15 2 -45t24 -61.5t59.5 -57t108.5 -30.5zM970 1413
q0 25 17.5 42t43.5 17t44 -17t18 -42t-18 -42t-44 -17t-43.5 17t-17.5 42zM1154 1413q0 25 17 42t43 17t44 -17t18 -42t-18 -42t-44 -17t-43 17t-17 42z" />
    <glyph glyph-name="Zcaron" unicode="&#x17d;" horiz-adv-x="1200" 
d="M882 1242q49 2 82.5 -8t55.5 -30t35 -48.5t22 -61.5q18 -68 8 -155t-40.5 -179.5t-78 -185.5t-103.5 -173q91 -30 140.5 -95.5t48.5 -178.5q58 36 109.5 73.5t94 77t75 81.5t52.5 87q4 9 13.5 12t18.5 0t14 -11.5t1 -21.5q-20 -57 -57 -107.5t-87 -97.5t-111.5 -90.5
t-129.5 -85.5q-1 -3 -1 -8q-28 -176 -74.5 -316.5t-105 -249.5t-126 -189t-136 -135.5t-135.5 -89t-125 -50t-104 -18.5t-72 7q-47 15 -77.5 40t-47.5 57t-22.5 69.5t-0.5 78.5q9 90 49.5 168.5t103.5 147.5t144.5 130.5t172.5 118t187.5 109.5t190.5 105l2 14
q7 54 1.5 94.5t-19.5 70.5t-35.5 50.5t-46.5 32.5q-60 -64 -119 -101.5t-112 -38.5q-55 -1 -88.5 26.5t-30.5 84.5q1 28 24.5 60t61 58.5t86 43.5t101.5 15l24 -2q35 70 69 150.5t60.5 160t42 152.5t14.5 128.5t-22.5 87t-68.5 28.5q-53 -4 -102.5 -20.5t-93 -39.5
t-80.5 -49.5t-65 -50t-47 -40t-26 -20.5q-11 -5 -22.5 -0.5t-19 14t-9 23t7.5 25.5q6 8 31 30.5t63 51t88 60t107 58t118 45t122 21.5zM180 -933q88 11 166 60.5t145.5 123.5t124.5 164t101.5 182.5t76.5 179t51 153.5q-86 -47 -172.5 -95.5t-168 -100t-153.5 -106.5
t-128.5 -117t-95 -132t-51.5 -149q-5 -27 -0.5 -57.5t17.5 -55t34.5 -39.5t52.5 -11zM936 1368q0 -3 -17.5 -4t-38.5 -2q-25 -1 -56 0l-56 141l99 8l19 -76l96 78l112 3q-45 -39 -79 -71q-15 -14 -29 -27t-25.5 -24t-18 -18t-6.5 -8zM554 202q16 2 40.5 29.5t53.5 74.5
q-38 0 -68 -6.5t-43 -14.5q-20 -12 -29.5 -28t-7.5 -29.5t15 -21.5t39 -4z" />
    <glyph glyph-name="zcaron" unicode="&#x17e;" horiz-adv-x="700" 
d="M420 565q66 3 96.5 -13.5t28.5 -41.5q-3 -29 -17.5 -61t-34.5 -63t-43 -59.5t-43.5 -51t-36 -37t-19.5 -18.5q5 2 33 11t89 10q42 0 69.5 -12t46.5 -31q101 69 183 140.5t124 149.5q7 14 19 20.5t23 5t17 -12t2 -31.5q-8 -38 -37.5 -77.5t-74.5 -80.5t-102.5 -83
t-120.5 -85q10 -26 12.5 -49t1.5 -34q-5 -98 -38 -186t-84 -162t-113 -131.5t-123 -94t-116 -49.5t-92 1q-18 7 -35 18t-30 29t-20 45.5t-5 66.5q4 81 50.5 152.5t119.5 137.5t163.5 127.5t182.5 121.5q-5 13 -12 20.5t-15 11.5t-15.5 5t-12.5 2q-15 1 -48 -6.5t-69.5 -19
t-70 -24.5t-48.5 -23q-7 -4 -15 2.5t-15 18t-11 23.5t-3 20q0 5 18.5 25t45.5 48.5t57 63t52.5 69t33 65.5t-1.5 53q-4 7 -25 2.5t-50 -16t-62.5 -26.5t-62.5 -29t-50 -23.5t-25 -8.5q-6 0 -6 11.5t4.5 26t11 29t14.5 21.5q5 4 26 12t51 17.5t65 19.5t67 18t58 13.5t38 6.5z
M78 -467q46 -1 94.5 28.5t94.5 77t87 107t72.5 118.5t51 112t23.5 87q-84 -56 -164.5 -113.5t-145.5 -116t-107.5 -118t-49.5 -119.5q-2 -17 2 -29t11 -19.5t15.5 -11t15.5 -3.5zM454 674q0 -3 -17.5 -4t-38.5 -2q-25 -1 -56 0l-56 141l99 8l19 -76l96 78l112 3
q-45 -39 -79 -71q-15 -14 -29 -27t-25.5 -24t-18 -18t-6.5 -8z" />
    <glyph glyph-name="yacute" unicode="&#xfd;" 
d="M560 518q21 0 35 -6t21.5 -15.5t9.5 -20.5t-1 -21q-23 -66 -46 -125.5t-45 -115.5q99 59 183 123t140 141q6 9 16 9.5t18 -4.5t12 -13.5t0 -18.5q-20 -43 -59.5 -84t-92.5 -81.5t-118 -80t-135 -78.5q-66 -159 -127.5 -278.5t-118.5 -205.5t-110 -142.5t-102 -89
t-94.5 -44.5t-87.5 -9q-56 3 -89.5 24.5t-51.5 49t-24 56t-6 46.5q-1 62 23.5 117t69 104.5t105.5 94t133 87t151 83t159 82.5l38 88q-33 -37 -69 -68t-73 -51t-74 -26.5t-72 5.5q-41 13 -53.5 48.5t-6.5 82.5t26.5 100t44.5 101.5t46.5 87.5t33.5 57q16 28 33 40.5t31.5 17
t25 3.5t14.5 -1q18 0 29.5 -7.5t17.5 -17t7.5 -20t0.5 -17.5q-6 -28 -31.5 -67.5t-56 -84.5t-58.5 -92t-39 -89q-3 -11 -3 -21.5t3.5 -18.5t10.5 -11.5t19 -1.5q21 4 59 28t83 68t92 107.5t87 147.5q2 2 3 2q8 11 22.5 18.5t40.5 7.5zM-133 -585q32 0 67 24t71 66t72.5 99.5
t72.5 124t71 138.5t68 145q-100 -54 -193.5 -109.5t-168 -113.5t-122 -119.5t-54.5 -127.5q-2 -20 4.5 -42.5t21 -41t37.5 -31t53 -12.5zM509 790q3 -1 14.5 -1h26t30.5 0.5t29 1t20.5 0.5t5.5 -1q-3 -1 -13.5 -10t-25 -21.5t-31.5 -27t-32 -27t-26 -21t-14 -9.5
q-5 -2 -19.5 -2.5t-30 0t-27.5 2t-12 4.5t14.5 21t33 38.5t35.5 37t22 15.5z" />
    <glyph glyph-name="Yacute" unicode="&#xdd;" horiz-adv-x="1400" 
d="M1382 1159q9 9 29 17t43.5 14.5t48.5 11t44.5 5.5t30 -1.5t6.5 -10.5q-72 -131 -136.5 -267.5t-124 -274t-115 -273.5t-109.5 -266q127 70 244 157.5t217 202.5q15 17 29.5 19t23 -6t9 -23.5t-12.5 -33.5q-49 -65 -110.5 -122.5t-132 -108t-148.5 -95.5t-159 -86
q-57 -135 -115 -259t-119.5 -229.5t-127.5 -190.5t-139.5 -142.5t-156.5 -84.5t-178 -18q-65 6 -109.5 26t-73.5 47t-44.5 58.5t-22 59.5t-7 50.5t0.5 31.5q9 79 49 142t103.5 116.5t147.5 99.5t181.5 89.5t205 88.5t218.5 96q42 103 82.5 206t78.5 204q-31 -41 -70 -84.5
t-82.5 -85t-89.5 -78.5t-92.5 -64.5t-91 -43.5t-84.5 -16q-53 0 -91 13.5t-63.5 35.5t-39.5 51t-20 59t-5 60t6 54q9 46 33.5 107t57 130.5t68.5 142.5t67.5 142.5t54.5 131.5t29 109t-8.5 75t-57.5 30q-30 1 -62.5 -16.5t-61 -39.5t-50.5 -42t-31 -25t-17 -3.5t-12.5 7.5
t-5.5 15t4 20q5 10 31 35.5t65.5 51t89 45.5t101.5 20q64 0 103.5 -18.5t61.5 -47.5t29.5 -64.5t7 -69.5t-5.5 -62.5t-9 -43.5q-12 -48 -39 -108t-61 -126.5t-70 -136t-67.5 -135t-53 -123.5t-26 -102.5t12.5 -72t63 -31.5q28 -2 69.5 17.5t91 55t103.5 84t106.5 105
t101 117.5t86.5 121q38 98 74 186.5t70 160.5t66.5 125t62.5 82zM234 -830q84 -6 163.5 51.5t154.5 160t146 240t137 291.5q-98 -44 -193 -85t-180.5 -82t-159.5 -83.5t-130 -89.5t-90.5 -98.5t-41.5 -110.5q-2 -15 2 -45t24 -61.5t59.5 -57t108.5 -30.5zM1164 1504
q3 -1 14.5 -1h26t30.5 0.5t29 1t20.5 0.5t5.5 -1q-3 -1 -13.5 -10t-25 -21.5t-31.5 -27t-32 -27t-26 -21t-14 -9.5q-5 -2 -19.5 -2.5t-30 0t-27.5 2t-12 4.5t14.5 21t33 38.5t35.5 37t22 15.5z" />
    <glyph glyph-name="scaron" unicode="&#x161;" horiz-adv-x="466" 
d="M338 626q13 4 31.5 4t33.5 -3.5t21.5 -11t-2.5 -18.5q-39 -44 -60 -87.5t-31 -84t-10.5 -78.5t2.5 -71q48 18 96 38t92 43.5t82 52t66 63.5q10 13 22.5 16t21 -2t10.5 -17.5t-7 -31.5q-15 -30 -53 -57.5t-89.5 -54t-112 -51.5t-121.5 -50q2 -21 4 -39t0 -32
q-5 -53 -25.5 -97.5t-55 -76.5t-82 -50t-105.5 -17q-35 0 -56.5 14.5t-33 35t-14.5 42t0 35.5q13 59 66 99.5t128 72.5q-5 60 -7 119.5t10 110.5q16 64 41.5 100.5t52 54.5t50 22.5t35.5 6.5zM414 702q0 -3 -17.5 -4t-38.5 -2q-25 -1 -56 0l-56 141l99 8l19 -76l96 78l112 3
q-45 -39 -79 -71q-15 -14 -29 -27t-25.5 -24t-18 -18t-6.5 -8zM75 -25q30 1 47.5 15.5t26.5 38t11 55t0 67.5q-54 -26 -89 -53t-39 -54q-5 -38 8 -54t35 -15z" />
    <glyph glyph-name="Scaron" unicode="&#x160;" horiz-adv-x="766" 
d="M948 1198q21 0 36.5 -5t22 -13t4 -18.5t-17.5 -22.5q-35 -27 -61.5 -52.5t-48 -52t-39 -56t-33.5 -63.5q-7 -16 -17.5 -48.5t-22.5 -77t-26 -98t-28 -110t-28 -113.5t-27 -109q78 15 153.5 43t145.5 84q17 13 29 16t16.5 -2.5t-0.5 -18.5t-23 -31q-32 -33 -70.5 -57
t-81.5 -41.5t-89.5 -30t-94.5 -21.5q-14 -55 -24.5 -95.5t-16.5 -58.5q-35 -95 -91 -165t-120 -114t-129.5 -63t-119.5 -13q-73 9 -112.5 39.5t-51 73.5t1 94t44.5 100q45 70 99 112.5t115.5 67t128 36.5t135.5 21q15 67 29 138.5t29.5 144t35 144.5t45.5 140
q35 92 79 149.5t86.5 90t79.5 44.5t58 12zM178 -121q70 13 120.5 47.5t87 86.5t61.5 118t44 141q-66 -12 -129 -27t-118.5 -39t-101.5 -60.5t-78 -91.5q-9 -14 -16 -35t-8.5 -43t3.5 -43t20.5 -35.5t43.5 -20.5t71 2zM1016 1339q0 -3 -17.5 -4t-38.5 -2q-25 -1 -56 0
l-56 141l99 8l19 -76l96 78l112 3q-45 -39 -79 -71q-15 -14 -29 -27t-25.5 -24t-18 -18t-6.5 -8z" />
    <glyph glyph-name="Euro" unicode="&#x20ac;" horiz-adv-x="900" 
d="M-6 674h19.5t34.5 1q34 108 86.5 214t122 190.5t154.5 138.5t183 60q64 3 112.5 -15.5t82 -52.5t53.5 -79.5t27 -94.5t2 -98.5t-21 -91.5q-10 -37 -27.5 -62.5t-37 -39.5t-36.5 -15.5t-26 10.5t-6 36.5t24 63.5q39 69 44.5 135.5t-15 117t-63 79t-99.5 22.5
q-31 -4 -64.5 -26t-67.5 -58t-68.5 -84.5t-66 -104.5t-60 -118t-51.5 -125q29 1 47.5 1h20.5q7 -1 7 -14t-4.5 -28.5t-13 -28t-18.5 -12.5h-19.5t-46.5 -1q-7 -22 -12 -43l-10 -42q32 1 53.5 1h23.5q7 -1 7 -14t-4.5 -28.5t-13 -28t-18.5 -12.5h-18.5t-43.5 -1
q-3 -27 -4 -52.5t1 -48.5q7 -92 23 -153t38 -96.5t48 -49.5t53 -12q49 4 96 25t85.5 57t64.5 86.5t34 113.5q3 34 15.5 48t26.5 10.5t25 -24.5t11 -55q-16 -74 -42 -129t-58.5 -94.5t-68.5 -65t-71.5 -40t-67.5 -19.5t-57 -4q-95 4 -156.5 43t-98 96.5t-52 127t-18.5 135.5
q-2 46 3 99h-53q-14 -1 -17 11.5t0.5 28t11 28.5t15.5 14h19.5t34.5 1l8 42t9 43h-41q-14 -1 -17 11.5t0.5 28t11 28.5t15.5 14z" />
    <glyph glyph-name="endash" unicode="&#x2013;" horiz-adv-x="710" 
d="M271 336q6 0 30 1t57.5 1.5t70.5 1t69 0.5h53.5h23.5q7 -1 7 -14t-4.5 -28t-13 -27.5t-18.5 -12.5q-1 0 -22.5 -0.5t-52.5 -0.5t-67.5 -1t-68 -1t-52.5 -0.5t-22 -0.5q-14 0 -17.5 12.5t0 27.5t11.5 28t16 14z" />
    <glyph glyph-name="emdash" unicode="&#x2014;" horiz-adv-x="988" 
d="M271 336q4 0 30.5 0.5t66 1.5t89.5 1.5t101 1t100 1t87.5 1t62.5 0.5h26q7 -1 6.5 -14t-5 -28t-13 -27.5t-18.5 -12.5q-1 0 -41 -0.5t-100.5 -1.5t-130 -1.5t-130 -1.5t-100.5 -1.5t-41 -0.5q-14 0 -17.5 12.5t0 27.5t11.5 28t16 14z" />
    <glyph glyph-name="minus" unicode="&#x2212;" horiz-adv-x="710" 
d="M271 336q6 0 30 1t57.5 1.5t70.5 1t69 0.5h53.5h23.5q7 -1 7 -14t-4.5 -28t-13 -27.5t-18.5 -12.5q-1 0 -22.5 -0.5t-52.5 -0.5t-67.5 -1t-68 -1t-52.5 -0.5t-22 -0.5q-14 0 -17.5 12.5t0 27.5t11.5 28t16 14z" />
    <glyph glyph-name="lslash" unicode="&#x142;" horiz-adv-x="533" 
d="M646 1116q27 -1 47 -12t33 -29t19.5 -40.5t6.5 -47.5q1 -54 -21 -122t-60 -140t-90.5 -142t-113 -128t-126.5 -99.5t-131 -54.5q-16 -65 -23 -121t-3.5 -99t19.5 -68.5t46 -28.5q32 -3 68 15t74 49.5t76 73t72.5 86t65.5 87.5t54 78t37.5 57.5t16.5 26.5q9 14 21 17.5
t21 -1.5t13 -17t-2 -29q-2 -5 -17 -30.5t-40 -63.5t-59.5 -85.5t-75.5 -95.5t-86.5 -93.5t-93 -80t-95.5 -54t-94 -16.5q-13 1 -38.5 6t-53 23t-50.5 53.5t-32 98.5q-5 37 -2.5 86.5t13 106.5t27.5 120t40 128q-6 -2 -10.5 -3t-7.5 -2q-4 -1 -7 -1q-14 -4 -20 7.5t-6 27
t4 30t12 17.5q5 2 24.5 7t47.5 12q42 98 95.5 188.5t117.5 159t136.5 108t150.5 35.5zM360 594q-1 0 -16 -4t-38 -10q-23 -54 -43 -107.5t-35 -106.5q57 16 109.5 55.5t99 92.5t86 115t69.5 122.5t50 115t28 92.5q4 19 0.5 29.5t-10.5 15.5t-14.5 5.5t-11.5 0.5
q-33 -3 -69.5 -30t-73 -72t-72.5 -104.5t-69 -126.5q18 5 19 5q7 1 10 -12t2 -29t-6 -30t-15 -17z" />
    <glyph glyph-name="Lslash" unicode="&#x141;" horiz-adv-x="1045" 
d="M1066 1230q52 -1 78.5 -20.5t36.5 -44.5t9 -50t-3 -37q-11 -62 -51 -117t-98.5 -100.5t-131 -80.5t-150.5 -56q-37 -82 -74 -168.5t-75 -173.5q7 2 11 3t5 1q7 1 10 -12t2 -29t-6 -30t-15 -17q-1 0 -15.5 -3.5t-36.5 -9.5q-32 -66 -65 -127t-69 -115q77 -23 140.5 -46.5
t122 -30.5t115 9t118.5 72t134 158.5t161 268.5q4 9 14 11t19 -2t13 -14.5t-3 -27.5q-77 -183 -156 -299.5t-158.5 -182t-159 -88.5t-157.5 -20t-154 24t-148 45q-45 -44 -92 -69.5t-101 -28.5q-17 -1 -40 3.5t-44 17.5t-36 36t-15 59q0 13 4 39t18.5 52t42 45t75.5 18
q37 -2 70.5 -5t65.5 -8q17 34 35 72t37 80l-4.5 -1.5t-3.5 -0.5q-2 -1 -3 -1q-14 -4 -19.5 7.5t-6 27t4 30t12.5 17.5q5 2 22 6.5t42 10.5q39 88 82 181.5t90 185.5q-94 -3 -174.5 19.5t-129.5 76.5q-10 11 -14.5 25t-1.5 23.5t14.5 11t32.5 -11.5q27 -17 63.5 -26t80 -11.5
t93 1t100.5 12.5q49 87 100.5 163.5t106.5 132.5t112.5 88.5t117.5 31.5zM1088 1153q-37 -5 -71.5 -28t-67 -61t-64 -88.5t-61.5 -109.5q57 21 109 47t93 55.5t69 62t38 67.5q3 10 0.5 20t-8.5 18.5t-15.5 13t-21.5 3.5zM144 -99q27 5 63 56q-17 4 -33 7.5t-32 5.5
q-36 6 -58.5 -7t-25 -29t17.5 -28t68 -5z" />
    <glyph glyph-name="Eth" unicode="&#xd0;" horiz-adv-x="1156" 
d="M438 1198q19 8 39 6t36.5 -10.5t29.5 -22.5t19 -30q9 -24 15.5 -49.5t11.5 -52.5q85 96 162.5 154.5t137.5 63.5q86 6 143 -19.5t90.5 -68.5t46 -97t9.5 -105q-2 -28 -15 -98.5t-42 -164t-76 -200.5t-116 -209q64 12 123.5 27t111 35.5t94 47t72.5 60.5q7 7 15.5 3.5
t15 -12.5t9.5 -20t-1 -17q-33 -45 -84.5 -78.5t-116.5 -57.5t-141 -40.5t-157 -27.5q-47 -58 -103.5 -109t-123.5 -91t-144 -66.5t-166 -36.5q-32 -48 -64.5 -80t-64 -45t-60.5 -4t-54 43q-17 23 -25 54t-10 69q-38 22 -63.5 57.5t-19.5 92.5q4 33 37 55.5t90 38.5
q24 76 60 159t79.5 167t94 166.5t103.5 158.5q13 130 15 272q0 26 -5.5 40.5t-11 22.5t-6.5 11.5t10 7.5zM914 1202q-38 -3 -77 -20t-79 -45.5t-80.5 -68t-79.5 -86.5q13 -112 1.5 -239.5t-40.5 -257.5q29 1 47 1h20q7 -1 7 -14t-4.5 -28.5t-13 -28t-18.5 -12.5h-17.5
t-40.5 -1q-11 -41 -22.5 -80t-25.5 -77q58 5 117.5 10t119.5 11q50 74 90 156t70.5 163t52.5 157t36.5 138.5t22.5 107.5t10 64q6 45 -5.5 74.5t-28.5 46.5t-35.5 23t-26.5 6zM322 482q5 0 20.5 0.5t38.5 0.5q13 60 24 122t19 129q-39 -65 -75.5 -132.5t-68 -135t-59 -132.5
t-48.5 -125q32 6 68 10.5t75 9.5q25 80 47 171h-51q-14 -1 -17 11.5t0.5 28t11 28.5t15.5 14zM375 -20q91 27 164.5 82.5t134.5 130.5q-53 -5 -104.5 -8t-102.5 -7q-21 -55 -44 -105t-48 -93zM209 -41q20 37 41.5 88.5t44.5 116.5q-42 -4 -78 -9t-67 -11q-30 -96 -38 -161
q29 -11 55.5 -16.5t41.5 -7.5zM22 64q-2 -17 8.5 -30.5t27.5 -24.5q4 52 21 114q-26 -11 -41 -25.5t-16 -33.5zM139 -125q14 -1 40 35q-14 2 -32 5.5t-38 10.5q2 -22 9 -35.5t21 -15.5z" />
    <glyph glyph-name="Oslash" unicode="&#xd8;" horiz-adv-x="1111" 
d="M902 1334q9 0 27.5 -1t37 -5.5t32 -15t13.5 -29.5q0 -5 -7.5 -25t-21.5 -52q32 -15 63 -43.5t54 -74t36 -111.5t9 -157q-3 -62 -20 -135.5t-46.5 -151t-70 -157t-90.5 -153.5q53 11 105 34t97.5 57t82.5 77.5t61 96.5q4 8 16 10t23 -1.5t17.5 -13t-1.5 -25.5
q-41 -81 -101 -139.5t-125 -97t-128.5 -59t-110.5 -26.5q-54 -67 -114.5 -123.5t-127 -96.5t-137.5 -61t-145 -17q-16 -29 -26.5 -46t-14.5 -19q-16 -8 -24 -10t-13.5 0t-12 7t-19.5 13q-4 2 1.5 21.5t17.5 53.5q-33 13 -69 38.5t-67 69t-53.5 107.5t-28.5 153
q-4 49 7 129.5t38.5 176t71.5 197t106.5 194t144.5 166t185 113.5q14 5 24.5 1t16 -12t6 -17.5t-4.5 -14.5q-67 -67 -126 -146t-108 -164t-88 -174t-66 -176.5t-41.5 -170.5t-15.5 -157q0 -55 8 -95.5t21.5 -69t31 -46.5t35.5 -29q33 85 83.5 204.5t109.5 254.5
q-17 42 -28.5 91t-13.5 106q-1 15 2.5 48.5t13 78.5t25 98t39 106.5t56 105t75 93.5t95.5 71t119 39q25 51 40 79t19 28zM577 330q28 -39 66 -64t83 -38q51 76 94 158.5t75 159t50.5 142.5t20.5 110q5 114 -5.5 185t-26.5 110q-32 -72 -74 -162.5t-88.5 -190t-96.5 -204.5
t-98 -206zM518 594q-2 -20 -2.5 -39t1.5 -37q39 88 78.5 175.5t76.5 169.5t71 155t63 133q-62 -16 -107 -59.5t-76.5 -100.5t-51.5 -120.5t-31.5 -120t-16 -99t-5.5 -57.5zM681 162q-38 16 -73 40t-65 58q-51 -103 -94.5 -192t-78.5 -155q39 6 78.5 27t79 54t78.5 75.5
t75 92.5z" />
    <glyph glyph-name="oslash" unicode="&#xf8;" horiz-adv-x="584" 
d="M402 663q5 0 15.5 -0.5t21 -2.5t18 -7t7.5 -14q0 -4 -12.5 -29.5t-34.5 -66.5q4 -5 4.5 -9.5t-1.5 -4.5l-11 -2l-5 -8q25 9 52 7t48 -17t32 -44t4 -74q-2 -11 -4.5 -22t-5.5 -22q34 3 69.5 13.5t66.5 27t54.5 37t34.5 41.5q13 26 26.5 38.5t23 10.5t12 -18t-5.5 -46
q-8 -31 -39 -61t-74.5 -54.5t-94.5 -40t-100 -18.5q-28 -61 -72 -117.5t-96.5 -98.5t-109.5 -65t-111 -16l-15 3q-20 -32 -32.5 -51t-16.5 -21q-9 -3 -13.5 -4t-8 -0.5t-7 3t-10.5 6.5q-3 2 6.5 24.5t26.5 59.5q-30 16 -47.5 39.5t-26.5 50t-11.5 52t-3.5 46.5
q0 18 9.5 53.5t29.5 78.5t51.5 88t75 81.5t99 59.5t125.5 22q23 42 38.5 67t18.5 25zM398 293q-29 15 -43.5 42.5t-18.5 59.5q-45 -81 -93.5 -167t-90.5 -158q24 2 55.5 23.5t65 53.5t66 70.5t59.5 75.5zM104 159q-2 -8 -3.5 -19.5t0.5 -23.5q37 73 80 155.5t85 158.5
q-30 -30 -57.5 -66t-49 -72t-36.5 -70.5t-19 -62.5zM409 409q-1 -17 1 -26t7 -13.5t11.5 -6t14.5 -4.5q7 11 12.5 20t9.5 17q15 31 9 46.5t-20 17t-29 -11.5t-16 -39z" />
    <glyph glyph-name="ae" unicode="&#xe6;" horiz-adv-x="1156" 
d="M1024 575q30 1 51.5 -4.5t36.5 -14.5t24 -20t13 -21q11 -29 9.5 -50.5t-8.5 -40.5q-17 -46 -49.5 -82t-72 -63.5t-81.5 -47t-79 -32t-64 -19t-36 -6.5q-2 -25 -0.5 -46t9 -36.5t21 -24t35.5 -7.5q62 2 118.5 27t106.5 62.5t93.5 84t80.5 92.5t67 87t53 68q7 9 17 9.5
t17.5 -4t10.5 -13.5t-3 -20q-6 -10 -22 -36.5t-40.5 -63t-57.5 -79t-73 -85.5t-86.5 -83.5t-98.5 -71t-109 -48t-118 -16.5q-46 1 -79.5 13.5t-55 35t-32.5 53t-12 66.5q-52 -52 -104 -92q-8 -5 -23.5 -15.5t-36.5 -20t-45 -15t-47 -2.5q-18 3 -28.5 14t-14.5 29t-2 41.5
t8 50.5q-22 -23 -54 -46.5t-66.5 -42t-67 -31t-55.5 -13.5q-36 -1 -62 10t-42.5 29.5t-24 41.5t-7.5 46q0 32 10 73.5t29.5 86t49 88t69 81t88.5 65t109 38.5q37 7 66 4t50.5 -13.5t35.5 -27.5t21 -36q12 23 21.5 40t15.5 26q16 28 33 40.5t31.5 17t25 3.5t14.5 -1
q18 0 29.5 -7.5t17.5 -17t7.5 -20t0.5 -17.5q-4 -19 -18 -48t-32.5 -64t-40.5 -74.5t-42 -77.5t-36 -74t-23 -64q-6 -23 1.5 -25.5t27.5 11.5q29 20 62 50t66 65q17 54 51.5 111.5t84.5 105.5t115.5 79.5t145.5 34.5zM152 80q17 1 43.5 13.5t55 34t55.5 50t46 61.5
q15 38 32.5 77t34.5 75q6 30 1 47t-14.5 26t-21.5 11.5t-19 2.5q-18 1 -43 -15.5t-53 -44.5t-56 -64t-51 -74t-39 -74.5t-19.5 -64.5t7 -45t41.5 -16zM1040 506q-49 -5 -91 -34.5t-75 -70t-56.5 -85t-35.5 -78.5q32 7 75.5 24t86.5 42t81 56.5t59 69.5q7 12 8.5 25.5
t-3.5 25.5t-17 19t-32 6z" />
    <glyph glyph-name="Amacron" unicode="&#x100;" horiz-adv-x="1266" 
d="M1303 1268q23 3 38.5 -2.5t25.5 -13.5q11 -10 19 -22q-53 -95 -110 -201q-24 -45 -51.5 -97.5t-57 -109.5t-59 -117.5t-58.5 -121.5q68 -34 113 -94t50 -154q66 31 118.5 67.5t87.5 76.5q12 14 24.5 16.5t21.5 -3t11 -18t-8 -29.5q-13 -23 -37.5 -46.5t-58 -46t-74.5 -44
t-87 -40.5q-3 -29 -9 -61q-15 -75 -52.5 -145.5t-85.5 -124.5t-102 -86.5t-102 -32.5q-65 0 -101.5 28t-51 76t-9.5 112.5t23 138.5q-17 2 -32.5 3.5t-30.5 4.5q-33 5 -78 15.5t-91 26.5q-42 -53 -78.5 -99t-65 -81.5t-47 -57.5t-24.5 -27q-14 -12 -34 -33t-44.5 -42
t-53.5 -38t-60 -22t-63.5 7t-64.5 50q-12 13 -18 35t-3 40t17 24.5t41 -9.5q8 -5 15.5 -13t15.5 -16.5t16 -15.5t16 -10q22 -8 58.5 14.5t83.5 68.5t103.5 111.5t118.5 143.5q-28 15 -51 33t-37.5 40t-18.5 48t6 57q13 43 50.5 78t90.5 61t118.5 42t135.5 22
q60 79 119.5 156t116 146t108.5 128.5t98 103.5t83.5 70t65.5 30zM1143 242q-63 -22 -128.5 -38t-131.5 -24q-18 -57 -29 -104.5t-12 -83.5t9 -58.5t33 -27.5q34 -8 73 18t75 71t65 103t41 116zM527 271q33 -17 67 -26t60 -11q20 -2 41 -3t42 -1q24 81 57.5 167t71.5 168
h-12t-12 1q-21 1 -42.5 1t-42.5 -2zM906 244q64 10 125.5 26.5t118.5 38.5q1 87 -34 139t-92 79q-34 -74 -64 -145.5t-54 -137.5zM1243 1465q6 0 30.5 1t57.5 1.5t70.5 1t69 0.5h53h23.5q7 -1 7 -14t-4.5 -28t-13 -27.5t-18.5 -12.5h-22t-52.5 -0.5t-68 -1t-68 -1
t-52.5 -0.5h-22q-14 -1 -17 11.5t0.5 28t11 28.5t15.5 13zM649 551q-49 -9 -91.5 -23.5t-74 -33t-50 -40.5t-19.5 -46q-2 -29 12.5 -53t37.5 -44zM1084 986q-5 -7 -28.5 -37t-59.5 -77t-83 -107.5t-100 -128.5q39 -2 76 -6q2 -1 7 -1q33 70 65 132t58 109.5t43.5 77.5
t21.5 38z" />
    <glyph glyph-name="amacron" unicode="&#x101;" horiz-adv-x="645" 
d="M607 607q18 0 29.5 -7.5t17.5 -17t7.5 -20t0.5 -17.5q-4 -19 -18 -48t-32.5 -64t-40.5 -74.5t-42 -77.5t-36 -74t-23 -64q-6 -23 1.5 -25.5t27.5 11.5q35 23 74 60.5t77.5 80t74 86t63 79t45.5 59t21 25.5q4 3 11.5 3t14 -3.5t10 -9.5t-0.5 -15q-3 -6 -19 -31.5
t-43 -63.5t-63 -84t-77.5 -94t-87.5 -93.5t-93 -81.5q-8 -5 -23.5 -15.5t-36.5 -20t-45 -15t-47 -2.5q-18 3 -28.5 14t-14.5 29t-2 41.5t8 50.5q-22 -23 -54 -46.5t-66.5 -42t-67 -31t-55.5 -13.5q-36 -1 -62 10t-42.5 29.5t-24 41.5t-7.5 46q0 32 10 73.5t29.5 86t49 88
t69 81t88.5 65t109 38.5q37 7 66 4t50.5 -13.5t35.5 -27.5t21 -36q12 23 21.5 40t15.5 26q16 28 33 40.5t31.5 17t25 3.5t14.5 -1zM152 80q17 1 43.5 13.5t55 34t55.5 50t46 61.5q15 38 32.5 77t34.5 75q6 30 1 47t-14.5 26t-21.5 11.5t-19 2.5q-18 1 -43 -15.5t-53 -44.5
t-56 -64t-51 -74t-39 -74.5t-19.5 -64.5t7 -45t41.5 -16zM372 751q6 1 30.5 1.5t57.5 1t70.5 1t69 0.5h53h23.5q7 -1 7 -14t-4.5 -28t-13 -27.5t-18.5 -12.5h-22t-52.5 -0.5t-68 -1t-68 -1t-52.5 -0.5h-22q-14 -1 -17 11.5t0.5 28t11 28.5t15.5 13z" />
    <glyph glyph-name="Abreve" unicode="&#x102;" horiz-adv-x="1266" 
d="M1303 1268q23 3 38.5 -2.5t25.5 -13.5q11 -10 19 -22q-53 -95 -110 -201q-24 -45 -51.5 -97.5t-57 -109.5t-59 -117.5t-58.5 -121.5q68 -34 113 -94t50 -154q66 31 118.5 67.5t87.5 76.5q12 14 24.5 16.5t21.5 -3t11 -18t-8 -29.5q-13 -23 -37.5 -46.5t-58 -46t-74.5 -44
t-87 -40.5q-3 -29 -9 -61q-15 -75 -52.5 -145.5t-85.5 -124.5t-102 -86.5t-102 -32.5q-65 0 -101.5 28t-51 76t-9.5 112.5t23 138.5q-17 2 -32.5 3.5t-30.5 4.5q-33 5 -78 15.5t-91 26.5q-42 -53 -78.5 -99t-65 -81.5t-47 -57.5t-24.5 -27q-14 -12 -34 -33t-44.5 -42
t-53.5 -38t-60 -22t-63.5 7t-64.5 50q-12 13 -18 35t-3 40t17 24.5t41 -9.5q8 -5 15.5 -13t15.5 -16.5t16 -15.5t16 -10q22 -8 58.5 14.5t83.5 68.5t103.5 111.5t118.5 143.5q-28 15 -51 33t-37.5 40t-18.5 48t6 57q13 43 50.5 78t90.5 61t118.5 42t135.5 22
q60 79 119.5 156t116 146t108.5 128.5t98 103.5t83.5 70t65.5 30zM1143 242q-63 -22 -128.5 -38t-131.5 -24q-18 -57 -29 -104.5t-12 -83.5t9 -58.5t33 -27.5q34 -8 73 18t75 71t65 103t41 116zM527 271q33 -17 67 -26t60 -11q20 -2 41 -3t42 -1q24 81 57.5 167t71.5 168
h-12t-12 1q-21 1 -42.5 1t-42.5 -2zM906 244q64 10 125.5 26.5t118.5 38.5q1 87 -34 139t-92 79q-34 -74 -64 -145.5t-54 -137.5zM1327 1363q-51 1 -71.5 20.5t-25 44t0.5 46.5t7 28q4 -1 17.5 1t28.5 4q18 3 39 7q-8 -23 -8 -41q0 -16 7 -28.5t28 -12.5q16 0 28 12t20 27
q9 18 15 40l72 -7q-11 -40 -32 -72q-9 -14 -21 -26.5t-27.5 -22.5t-35 -15.5t-42.5 -4.5zM649 551q-49 -9 -91.5 -23.5t-74 -33t-50 -40.5t-19.5 -46q-2 -29 12.5 -53t37.5 -44zM1084 986q-5 -7 -28.5 -37t-59.5 -77t-83 -107.5t-100 -128.5q39 -2 76 -6q2 -1 7 -1
q33 70 65 132t58 109.5t43.5 77.5t21.5 38zM1238 1504v-2q-1 1 0 2z" />
    <glyph glyph-name="abreve" unicode="&#x103;" horiz-adv-x="645" 
d="M607 607q18 0 29.5 -7.5t17.5 -17t7.5 -20t0.5 -17.5q-4 -19 -18 -48t-32.5 -64t-40.5 -74.5t-42 -77.5t-36 -74t-23 -64q-6 -23 1.5 -25.5t27.5 11.5q35 23 74 60.5t77.5 80t74 86t63 79t45.5 59t21 25.5q4 3 11.5 3t14 -3.5t10 -9.5t-0.5 -15q-3 -6 -19 -31.5
t-43 -63.5t-63 -84t-77.5 -94t-87.5 -93.5t-93 -81.5q-8 -5 -23.5 -15.5t-36.5 -20t-45 -15t-47 -2.5q-18 3 -28.5 14t-14.5 29t-2 41.5t8 50.5q-22 -23 -54 -46.5t-66.5 -42t-67 -31t-55.5 -13.5q-36 -1 -62 10t-42.5 29.5t-24 41.5t-7.5 46q0 32 10 73.5t29.5 86t49 88
t69 81t88.5 65t109 38.5q37 7 66 4t50.5 -13.5t35.5 -27.5t21 -36q12 23 21.5 40t15.5 26q16 28 33 40.5t31.5 17t25 3.5t14.5 -1zM152 80q17 1 43.5 13.5t55 34t55.5 50t46 61.5q15 38 32.5 77t34.5 75q6 30 1 47t-14.5 26t-21.5 11.5t-19 2.5q-18 1 -43 -15.5t-53 -44.5
t-56 -64t-51 -74t-39 -74.5t-19.5 -64.5t7 -45t41.5 -16zM482 649q-51 1 -71.5 20.5t-25 44t0.5 46.5t7 28q4 -1 17.5 1t28.5 4q18 3 39 7q-8 -23 -8 -41q0 -16 7 -28.5t28 -12.5q16 0 28 12t20 27q9 18 15 40l72 -7q-11 -40 -32 -72q-9 -14 -21 -26.5t-27.5 -22.5
t-35 -15.5t-42.5 -4.5zM393 790v-2q-1 1 0 2z" />
    <glyph glyph-name="Aogonek" unicode="&#x104;" horiz-adv-x="1266" 
d="M788 -434q-25 13 -36.5 42t-10 66.5t14.5 78.5t36 77q-40 15 -62 46.5t-29 76.5t-1 101t21 119q-17 2 -32.5 3.5t-30.5 4.5q-33 5 -78 15.5t-91 26.5q-42 -53 -78.5 -99t-65 -81.5t-47 -57.5t-24.5 -27q-14 -12 -34 -33t-44.5 -42t-53.5 -38t-60 -22t-63.5 7t-64.5 50
q-12 13 -18 35t-3 40t17 24.5t41 -9.5q8 -5 15.5 -13t15.5 -16.5t16 -15.5t16 -10q22 -8 58.5 14.5t83.5 68.5t103.5 111.5t118.5 143.5q-28 15 -51 33t-37.5 40t-18.5 48t6 57q13 43 50.5 78t90.5 61t118.5 42t135.5 22q60 79 119.5 156t116 146t108.5 128.5t98 103.5
t83.5 70t65.5 30q23 3 38.5 -2.5t25.5 -13.5q11 -10 19 -22q-53 -95 -110 -201q-24 -45 -51.5 -97.5t-57 -109.5t-59 -117.5t-58.5 -121.5q68 -34 113 -94t50 -154q66 31 118.5 67.5t87.5 76.5q12 14 24.5 16.5t21.5 -3t11 -18t-8 -29.5q-13 -23 -37.5 -46.5t-58 -46
t-74.5 -44t-87 -40.5q-3 -29 -9 -61q-14 -70 -47 -135.5t-76.5 -118t-93 -88t-95.5 -44.5q-12 -18 -27.5 -43t-29 -54t-22 -59.5t-6.5 -58.5q1 -9 4 -19t3 -17.5t-4.5 -9.5t-19.5 6zM1143 242q-63 -22 -128.5 -38t-131.5 -24q-18 -57 -29 -104.5t-12 -83.5t9 -58.5t33 -27.5
q34 -8 73 18t75 71t65 103t41 116zM527 271q33 -17 67 -26t60 -11q20 -2 41 -3t42 -1q24 81 57.5 167t71.5 168h-12t-12 1q-21 1 -42.5 1t-42.5 -2zM906 244q64 10 125.5 26.5t118.5 38.5q1 87 -34 139t-92 79q-34 -74 -64 -145.5t-54 -137.5zM649 551q-49 -9 -91.5 -23.5
t-74 -33t-50 -40.5t-19.5 -46q-2 -29 12.5 -53t37.5 -44zM1084 986q-5 -7 -28.5 -37t-59.5 -77t-83 -107.5t-100 -128.5q39 -2 76 -6q2 -1 7 -1q33 70 65 132t58 109.5t43.5 77.5t21.5 38z" />
    <glyph glyph-name="aogonek" unicode="&#x105;" horiz-adv-x="645" 
d="M314 -244q-25 13 -36.5 42t-10 66t14 77.5t35.5 76.5q-10 18 -9 46.5t9 63.5q-22 -23 -54 -46.5t-66.5 -42t-67 -31t-55.5 -13.5q-36 -1 -62 10t-42.5 29.5t-24 41.5t-7.5 46q0 32 10 73.5t29.5 86t49 88t69 81t88.5 65t109 38.5q37 7 66 4t50.5 -13.5t35.5 -27.5t21 -36
q12 23 21.5 40t15.5 26q16 28 33 40.5t31.5 17t25 3.5t14.5 -1q18 0 29.5 -7.5t17.5 -17t7.5 -20t0.5 -17.5q-4 -19 -18 -48t-32.5 -64t-40.5 -74.5t-42 -77.5t-36 -74t-23 -64q-6 -23 1.5 -25.5t27.5 11.5q35 23 74 60.5t77.5 80t74 86t63 79t45.5 59t21 25.5q4 3 11.5 3
t14 -3.5t10 -9.5t-0.5 -15q-3 -6 -19 -31.5t-43 -63.5t-63 -84t-77.5 -94t-87.5 -93.5t-93 -81.5q-6 -4 -16 -10.5t-23 -13.5t-28.5 -14t-31.5 -11q-12 -19 -26.5 -43t-26 -50.5t-18.5 -54.5t-5 -53q1 -9 4 -19t3 -17.5t-4.5 -9.5t-19.5 6zM152 80q17 1 43.5 13.5t55 34
t55.5 50t46 61.5q15 38 32.5 77t34.5 75q6 30 1 47t-14.5 26t-21.5 11.5t-19 2.5q-18 1 -43 -15.5t-53 -44.5t-56 -64t-51 -74t-39 -74.5t-19.5 -64.5t7 -45t41.5 -16z" />
    <glyph glyph-name="Cacute" unicode="&#x106;" horiz-adv-x="801" 
d="M815 1187q58 4 95 -13.5t57 -47t25.5 -66.5t-0.5 -72q-6 -39 -20.5 -72.5t-31.5 -61.5t-33.5 -50t-27.5 -37q-19 -27 -37.5 -30.5t-29.5 5.5t-12.5 26t14.5 31q5 5 20.5 24.5t32.5 46t31.5 55.5t18.5 53q2 15 5 37t-3.5 41.5t-28.5 30.5t-70 4q-23 -4 -71.5 -36.5
t-110 -92t-130 -144.5t-132 -192.5t-116 -236.5t-81.5 -276q-2 -12 -3 -32.5t1 -45t7.5 -49.5t16.5 -45t28 -32.5t41 -11.5q51 2 108 28t115.5 68t116 94.5t110 107.5t98.5 108t80.5 95t56.5 69.5t26 30.5q8 6 20 8.5t22 -0.5t14.5 -11.5t-1.5 -24.5q-3 -8 -26 -41.5
t-61 -82t-88.5 -107.5t-110.5 -119t-126.5 -115.5t-135.5 -97.5t-138.5 -64.5t-135.5 -16.5q-29 3 -67.5 19t-72.5 51t-56.5 92.5t-18.5 142.5q2 42 20.5 108.5t50.5 146.5t77.5 169t101.5 176t121 167t137 142t149.5 101.5t158.5 45.5zM930 1504q3 -1 14.5 -1h26t30.5 0.5
t29 1t20.5 0.5t5.5 -1q-3 -1 -13.5 -10t-25 -21.5t-31.5 -27t-32 -27t-26 -21t-14 -9.5q-5 -2 -19.5 -2.5t-30 0t-27.5 2t-12 4.5t14.5 21t33 38.5t35.5 37t22 15.5z" />
    <glyph glyph-name="cacute" unicode="&#x107;" horiz-adv-x="558" 
d="M406 575q30 1 50.5 -6t34 -17.5t21.5 -23t12 -22.5q17 -42 8.5 -80t-38.5 -66q-15 -14 -29 -14.5t-22 6.5t-6.5 19t18.5 24q10 7 17 26.5t6 39t-13.5 34t-42.5 11.5q-39 -4 -74 -24.5t-64.5 -50t-53 -64.5t-40.5 -68.5t-26.5 -61.5t-11.5 -43q-3 -29 2 -50t16 -35t25 -21
t29 -7q62 0 118 22.5t105 58t91.5 79.5t78 88.5t65 84.5t52.5 67q7 9 17.5 9.5t18 -4t10.5 -13.5t-4 -20q-8 -14 -32.5 -52.5t-63 -89.5t-90 -106.5t-115 -102.5t-138 -78.5t-157.5 -33.5q-36 -1 -66.5 13.5t-52.5 40t-34.5 59.5t-12.5 72q0 36 11 79.5t32.5 87.5t54 85
t76 73t98 52.5t120.5 22.5zM491 790q3 -1 14.5 -1h26t30.5 0.5t29 1t20.5 0.5t5.5 -1q-3 -1 -13.5 -10t-25 -21.5t-31.5 -27t-32 -27t-26 -21t-14 -9.5q-5 -2 -19.5 -2.5t-30 0t-27.5 2t-12 4.5t14.5 21t33 38.5t35.5 37t22 15.5z" />
    <glyph glyph-name="Ccircumflex" unicode="&#x108;" horiz-adv-x="801" 
d="M815 1187q58 4 95 -13.5t57 -47t25.5 -66.5t-0.5 -72q-6 -39 -20.5 -72.5t-31.5 -61.5t-33.5 -50t-27.5 -37q-19 -27 -37.5 -30.5t-29.5 5.5t-12.5 26t14.5 31q5 5 20.5 24.5t32.5 46t31.5 55.5t18.5 53q2 15 5 37t-3.5 41.5t-28.5 30.5t-70 4q-23 -4 -71.5 -36.5
t-110 -92t-130 -144.5t-132 -192.5t-116 -236.5t-81.5 -276q-2 -12 -3 -32.5t1 -45t7.5 -49.5t16.5 -45t28 -32.5t41 -11.5q51 2 108 28t115.5 68t116 94.5t110 107.5t98.5 108t80.5 95t56.5 69.5t26 30.5q8 6 20 8.5t22 -0.5t14.5 -11.5t-1.5 -24.5q-3 -8 -26 -41.5
t-61 -82t-88.5 -107.5t-110.5 -119t-126.5 -115.5t-135.5 -97.5t-138.5 -64.5t-135.5 -16.5q-29 3 -67.5 19t-72.5 51t-56.5 92.5t-18.5 142.5q2 42 20.5 108.5t50.5 146.5t77.5 169t101.5 176t121 167t137 142t149.5 101.5t158.5 45.5zM876 1522q0 2 17.5 3.5t38.5 2.5
q25 1 56 0l56 -141l-99 -7l-19 76l-96 -79l-112 -3q44 39 79 71q15 13 29 26.5t25 24t18 17.5t7 9z" />
    <glyph glyph-name="ccircumflex" unicode="&#x109;" horiz-adv-x="558" 
d="M406 575q30 1 50.5 -6t34 -17.5t21.5 -23t12 -22.5q17 -42 8.5 -80t-38.5 -66q-15 -14 -29 -14.5t-22 6.5t-6.5 19t18.5 24q10 7 17 26.5t6 39t-13.5 34t-42.5 11.5q-39 -4 -74 -24.5t-64.5 -50t-53 -64.5t-40.5 -68.5t-26.5 -61.5t-11.5 -43q-3 -29 2 -50t16 -35t25 -21
t29 -7q62 0 118 22.5t105 58t91.5 79.5t78 88.5t65 84.5t52.5 67q7 9 17.5 9.5t18 -4t10.5 -13.5t-4 -20q-8 -14 -32.5 -52.5t-63 -89.5t-90 -106.5t-115 -102.5t-138 -78.5t-157.5 -33.5q-36 -1 -66.5 13.5t-52.5 40t-34.5 59.5t-12.5 72q0 36 11 79.5t32.5 87.5t54 85
t76 73t98 52.5t120.5 22.5zM465 808q0 2 17.5 3.5t38.5 2.5q25 1 56 0l56 -141l-99 -7l-19 76l-96 -79l-112 -3q44 39 79 71q15 13 29 26.5t25 24t18 17.5t7 9z" />
    <glyph glyph-name="Cdotaccent" unicode="&#x10a;" horiz-adv-x="801" 
d="M815 1187q58 4 95 -13.5t57 -47t25.5 -66.5t-0.5 -72q-6 -39 -20.5 -72.5t-31.5 -61.5t-33.5 -50t-27.5 -37q-19 -27 -37.5 -30.5t-29.5 5.5t-12.5 26t14.5 31q5 5 20.5 24.5t32.5 46t31.5 55.5t18.5 53q2 15 5 37t-3.5 41.5t-28.5 30.5t-70 4q-23 -4 -71.5 -36.5
t-110 -92t-130 -144.5t-132 -192.5t-116 -236.5t-81.5 -276q-2 -12 -3 -32.5t1 -45t7.5 -49.5t16.5 -45t28 -32.5t41 -11.5q51 2 108 28t115.5 68t116 94.5t110 107.5t98.5 108t80.5 95t56.5 69.5t26 30.5q8 6 20 8.5t22 -0.5t14.5 -11.5t-1.5 -24.5q-3 -8 -26 -41.5
t-61 -82t-88.5 -107.5t-110.5 -119t-126.5 -115.5t-135.5 -97.5t-138.5 -64.5t-135.5 -16.5q-29 3 -67.5 19t-72.5 51t-56.5 92.5t-18.5 142.5q2 42 20.5 108.5t50.5 146.5t77.5 169t101.5 176t121 167t137 142t149.5 101.5t158.5 45.5zM910 1427q0 25 17.5 42t43.5 17
t44 -17t18 -42t-18 -42t-44 -17t-43.5 17t-17.5 42z" />
    <glyph glyph-name="cdotaccent" unicode="&#x10b;" horiz-adv-x="558" 
d="M406 575q30 1 50.5 -6t34 -17.5t21.5 -23t12 -22.5q17 -42 8.5 -80t-38.5 -66q-15 -14 -29 -14.5t-22 6.5t-6.5 19t18.5 24q10 7 17 26.5t6 39t-13.5 34t-42.5 11.5q-39 -4 -74 -24.5t-64.5 -50t-53 -64.5t-40.5 -68.5t-26.5 -61.5t-11.5 -43q-3 -29 2 -50t16 -35t25 -21
t29 -7q62 0 118 22.5t105 58t91.5 79.5t78 88.5t65 84.5t52.5 67q7 9 17.5 9.5t18 -4t10.5 -13.5t-4 -20q-8 -14 -32.5 -52.5t-63 -89.5t-90 -106.5t-115 -102.5t-138 -78.5t-157.5 -33.5q-36 -1 -66.5 13.5t-52.5 40t-34.5 59.5t-12.5 72q0 36 11 79.5t32.5 87.5t54 85
t76 73t98 52.5t120.5 22.5zM451 713q0 25 17.5 42t43.5 17t44 -17t18 -42t-18 -42t-44 -17t-43.5 17t-17.5 42z" />
    <glyph glyph-name="Ccaron" unicode="&#x10c;" horiz-adv-x="801" 
d="M815 1187q58 4 95 -13.5t57 -47t25.5 -66.5t-0.5 -72q-6 -39 -20.5 -72.5t-31.5 -61.5t-33.5 -50t-27.5 -37q-19 -27 -37.5 -30.5t-29.5 5.5t-12.5 26t14.5 31q5 5 20.5 24.5t32.5 46t31.5 55.5t18.5 53q2 15 5 37t-3.5 41.5t-28.5 30.5t-70 4q-23 -4 -71.5 -36.5
t-110 -92t-130 -144.5t-132 -192.5t-116 -236.5t-81.5 -276q-2 -12 -3 -32.5t1 -45t7.5 -49.5t16.5 -45t28 -32.5t41 -11.5q51 2 108 28t115.5 68t116 94.5t110 107.5t98.5 108t80.5 95t56.5 69.5t26 30.5q8 6 20 8.5t22 -0.5t14.5 -11.5t-1.5 -24.5q-3 -8 -26 -41.5
t-61 -82t-88.5 -107.5t-110.5 -119t-126.5 -115.5t-135.5 -97.5t-138.5 -64.5t-135.5 -16.5q-29 3 -67.5 19t-72.5 51t-56.5 92.5t-18.5 142.5q2 42 20.5 108.5t50.5 146.5t77.5 169t101.5 176t121 167t137 142t149.5 101.5t158.5 45.5zM978 1381q0 -3 -17.5 -4t-38.5 -2
q-25 -1 -56 0l-56 141l99 8l19 -76l96 78l112 3q-45 -39 -79 -71q-15 -14 -29 -27t-25.5 -24t-18 -18t-6.5 -8z" />
    <glyph glyph-name="ccaron" unicode="&#x10d;" horiz-adv-x="558" 
d="M406 575q30 1 50.5 -6t34 -17.5t21.5 -23t12 -22.5q17 -42 8.5 -80t-38.5 -66q-15 -14 -29 -14.5t-22 6.5t-6.5 19t18.5 24q10 7 17 26.5t6 39t-13.5 34t-42.5 11.5q-39 -4 -74 -24.5t-64.5 -50t-53 -64.5t-40.5 -68.5t-26.5 -61.5t-11.5 -43q-3 -29 2 -50t16 -35t25 -21
t29 -7q62 0 118 22.5t105 58t91.5 79.5t78 88.5t65 84.5t52.5 67q7 9 17.5 9.5t18 -4t10.5 -13.5t-4 -20q-8 -14 -32.5 -52.5t-63 -89.5t-90 -106.5t-115 -102.5t-138 -78.5t-157.5 -33.5q-36 -1 -66.5 13.5t-52.5 40t-34.5 59.5t-12.5 72q0 36 11 79.5t32.5 87.5t54 85
t76 73t98 52.5t120.5 22.5zM511 667q0 -3 -17.5 -4t-38.5 -2q-25 -1 -56 0l-56 141l99 8l19 -76l96 78l112 3q-45 -39 -79 -71q-15 -14 -29 -27t-25.5 -24t-18 -18t-6.5 -8z" />
    <glyph glyph-name="Dcaron" unicode="&#x10e;" horiz-adv-x="1156" 
d="M438 1198q19 8 39 6t36.5 -10.5t29.5 -22.5t19 -30q9 -24 15.5 -49.5t11.5 -52.5q85 96 162.5 154.5t137.5 63.5q86 6 143 -19.5t90.5 -68.5t46 -97t9.5 -105q-2 -28 -15 -98.5t-42 -164t-76 -200.5t-116 -209q64 12 123.5 27t111 35.5t94 47t72.5 60.5q7 7 15.5 3.5
t15 -12.5t9.5 -20t-1 -17q-33 -45 -84.5 -78.5t-116.5 -57.5t-141 -40.5t-157 -27.5q-47 -58 -103.5 -109t-123.5 -91t-144 -66.5t-166 -36.5q-32 -48 -64.5 -80t-64 -45t-60.5 -4t-54 43q-17 23 -25 54t-10 69q-38 22 -63.5 57.5t-19.5 92.5q4 33 37 55.5t90 38.5
q24 76 60 159t79.5 167t94 166.5t103.5 158.5q13 130 15 272q0 26 -5.5 40.5t-11 22.5t-6.5 11.5t10 7.5zM914 1202q-38 -3 -77 -20t-79 -45.5t-80.5 -68t-79.5 -86.5q9 -83 5 -175.5t-18.5 -188t-38.5 -190.5t-55 -183q58 5 117.5 10t119.5 11q50 74 90 156t70.5 163
t52.5 157t36.5 138.5t22.5 107.5t10 64q6 45 -5.5 74.5t-28.5 46.5t-35.5 23t-26.5 6zM316 229q32 104 60.5 231.5t47.5 273.5q-39 -65 -75.5 -132.5t-68 -135t-59 -132.5t-48.5 -125q32 6 68 10.5t75 9.5zM999 1381q0 -3 -17.5 -4t-38.5 -2q-25 -1 -56 0l-56 141l99 8
l19 -76l96 78l112 3q-45 -39 -79 -71q-15 -14 -29 -27t-25.5 -24t-18 -18t-6.5 -8zM375 -20q91 27 164.5 82.5t134.5 130.5q-53 -5 -104.5 -8t-102.5 -7q-21 -55 -44 -105t-48 -93zM209 -41q20 37 41.5 88.5t44.5 116.5q-42 -4 -78 -9t-67 -11q-30 -96 -38 -161
q29 -11 55.5 -16.5t41.5 -7.5zM22 64q-2 -17 8.5 -30.5t27.5 -24.5q4 52 21 114q-26 -11 -41 -25.5t-16 -33.5zM139 -125q14 -1 40 35q-14 2 -32 5.5t-38 10.5q2 -22 9 -35.5t21 -15.5z" />
    <glyph glyph-name="Emacron" unicode="&#x112;" horiz-adv-x="834" 
d="M790 1259q54 -2 85.5 -14t46.5 -30.5t16.5 -42.5t-4.5 -50q-15 -65 -59 -113.5t-105.5 -81t-135.5 -48.5t-148 -15q-9 -27 -12 -54v-12.5t1.5 -24.5t5.5 -30.5t13 -31.5q78 15 113 9q24 -5 35.5 -21.5t8 -34t-25 -31.5t-63.5 -12q-47 2 -86 9q-39 -30 -82.5 -73.5
t-82.5 -95t-69.5 -108t-43.5 -112t-4 -108t48 -96.5q31 -35 76.5 -42t99 6.5t113 44t118.5 72t115 89.5t103.5 96.5t83.5 94t55 80.5q9 17 19 21t17.5 -1t10 -17t-2.5 -28q-4 -11 -25 -42t-56 -74.5t-82.5 -95.5t-104 -105t-120.5 -103t-132 -89t-138 -63t-139 -26
q-49 -1 -96.5 13t-86.5 43t-65.5 72.5t-32.5 101.5q-9 82 2.5 152.5t39 129t67.5 106t87.5 85.5t98.5 66t101 48q-39 26 -60 62t-19 84q0 21 2 40.5t6 38.5q-44 16 -80.5 41t-61.5 58.5t-36 75.5t-4 93q3 21 12.5 32.5t19.5 11.5t16.5 -11.5t2.5 -35.5q-6 -40 2.5 -73
t28.5 -59.5t49.5 -46t65.5 -32.5q22 64 62 111.5t87.5 82t98.5 56.5t96.5 35.5t81 18t52.5 4.5zM782 1186q-25 -4 -61.5 -27t-75 -59t-74.5 -82.5t-61 -95.5q63 2 124.5 16t111.5 38.5t83 60t40 80.5q4 27 -3 42t-20.5 21.5t-30.5 7t-33 -1.5zM653 1451q6 0 30.5 1t57.5 1.5
t70.5 1t69 0.5h53h23.5q7 -1 7 -14t-4.5 -28t-13 -27.5t-18.5 -12.5h-22t-52.5 -0.5t-68 -1t-68 -1t-52.5 -0.5h-22q-14 -1 -17 11.5t0.5 28t11 28.5t15.5 13zM579 684q-14 0 -38 -11q16 -5 33 -4q27 1 24.5 7t-19.5 8z" />
    <glyph glyph-name="emacron" unicode="&#x113;" horiz-adv-x="511" 
d="M379 575q30 1 51.5 -4.5t36.5 -14.5t24 -20t13 -21q11 -29 9.5 -50.5t-8.5 -40.5q-17 -46 -49.5 -82t-72 -63.5t-81.5 -47t-79 -32t-64 -19t-36 -6.5q-2 -25 -0.5 -46t9 -36.5t21 -24t35.5 -7.5q62 2 118.5 27t106.5 62.5t93.5 84t80.5 92.5t67 87t53 68q7 9 17 9.5
t17.5 -4t10.5 -13.5t-3 -20q-6 -10 -22 -36.5t-40.5 -63t-57.5 -79t-73 -85.5t-86.5 -83.5t-98.5 -71t-109 -48t-118 -16.5q-48 1 -81.5 14.5t-55.5 37t-32 56t-10 70.5q0 36 12.5 81.5t36.5 92.5t59.5 91.5t81.5 79.5t102 57.5t122 24.5zM395 506q-49 -5 -91 -34.5t-75 -70
t-56.5 -85t-35.5 -78.5q32 7 75.5 24t86.5 42t81 56.5t59 69.5q7 12 8.5 25.5t-3.5 25.5t-17 19t-32 6zM316 751q6 1 30.5 1.5t57.5 1t70.5 1t69 0.5h53h23.5q7 -1 7 -14t-4.5 -28t-13 -27.5t-18.5 -12.5h-22t-52.5 -0.5t-68 -1t-68 -1t-52.5 -0.5h-22q-14 -1 -17 11.5
t0.5 28t11 28.5t15.5 13z" />
    <glyph glyph-name="Ebreve" unicode="&#x114;" horiz-adv-x="834" 
d="M790 1259q54 -2 85.5 -14t46.5 -30.5t16.5 -42.5t-4.5 -50q-15 -65 -59 -113.5t-105.5 -81t-135.5 -48.5t-148 -15q-9 -27 -12 -54v-12.5t1.5 -24.5t5.5 -30.5t13 -31.5q78 15 113 9q24 -5 35.5 -21.5t8 -34t-25 -31.5t-63.5 -12q-47 2 -86 9q-39 -30 -82.5 -73.5
t-82.5 -95t-69.5 -108t-43.5 -112t-4 -108t48 -96.5q31 -35 76.5 -42t99 6.5t113 44t118.5 72t115 89.5t103.5 96.5t83.5 94t55 80.5q9 17 19 21t17.5 -1t10 -17t-2.5 -28q-4 -11 -25 -42t-56 -74.5t-82.5 -95.5t-104 -105t-120.5 -103t-132 -89t-138 -63t-139 -26
q-49 -1 -96.5 13t-86.5 43t-65.5 72.5t-32.5 101.5q-9 82 2.5 152.5t39 129t67.5 106t87.5 85.5t98.5 66t101 48q-39 26 -60 62t-19 84q0 21 2 40.5t6 38.5q-44 16 -80.5 41t-61.5 58.5t-36 75.5t-4 93q3 21 12.5 32.5t19.5 11.5t16.5 -11.5t2.5 -35.5q-6 -40 2.5 -73
t28.5 -59.5t49.5 -46t65.5 -32.5q22 64 62 111.5t87.5 82t98.5 56.5t96.5 35.5t81 18t52.5 4.5zM782 1186q-25 -4 -61.5 -27t-75 -59t-74.5 -82.5t-61 -95.5q63 2 124.5 16t111.5 38.5t83 60t40 80.5q4 27 -3 42t-20.5 21.5t-30.5 7t-33 -1.5zM814 1363q-51 1 -71.5 20.5
t-25 44t0.5 46.5t7 28q4 -1 17.5 1t28.5 4q18 3 39 7q-8 -23 -8 -41q0 -16 7 -28.5t28 -12.5q16 0 28 12t20 27q9 18 15 40l72 -7q-11 -40 -32 -72q-9 -14 -21 -26.5t-27.5 -22.5t-35 -15.5t-42.5 -4.5zM579 684q-14 0 -38 -11q16 -5 33 -4q27 1 24.5 7t-19.5 8zM725 1504
v-2q-1 1 0 2z" />
    <glyph glyph-name="ebreve" unicode="&#x115;" horiz-adv-x="511" 
d="M379 575q30 1 51.5 -4.5t36.5 -14.5t24 -20t13 -21q11 -29 9.5 -50.5t-8.5 -40.5q-17 -46 -49.5 -82t-72 -63.5t-81.5 -47t-79 -32t-64 -19t-36 -6.5q-2 -25 -0.5 -46t9 -36.5t21 -24t35.5 -7.5q62 2 118.5 27t106.5 62.5t93.5 84t80.5 92.5t67 87t53 68q7 9 17 9.5
t17.5 -4t10.5 -13.5t-3 -20q-6 -10 -22 -36.5t-40.5 -63t-57.5 -79t-73 -85.5t-86.5 -83.5t-98.5 -71t-109 -48t-118 -16.5q-48 1 -81.5 14.5t-55.5 37t-32 56t-10 70.5q0 36 12.5 81.5t36.5 92.5t59.5 91.5t81.5 79.5t102 57.5t122 24.5zM395 506q-49 -5 -91 -34.5t-75 -70
t-56.5 -85t-35.5 -78.5q32 7 75.5 24t86.5 42t81 56.5t59 69.5q7 12 8.5 25.5t-3.5 25.5t-17 19t-32 6zM456 670q-51 1 -71.5 20.5t-25 44t0.5 46.5t7 28q4 -1 17.5 1t28.5 4q18 3 39 7q-8 -23 -8 -41q0 -16 7 -28.5t28 -12.5q16 0 28 12t20 27q9 18 15 40l72 -7
q-11 -40 -32 -72q-9 -14 -21 -26.5t-27.5 -22.5t-35 -15.5t-42.5 -4.5zM367 811v-2q-1 1 0 2z" />
    <glyph glyph-name="Edotaccent" unicode="&#x116;" horiz-adv-x="834" 
d="M790 1259q54 -2 85.5 -14t46.5 -30.5t16.5 -42.5t-4.5 -50q-15 -65 -59 -113.5t-105.5 -81t-135.5 -48.5t-148 -15q-9 -27 -12 -54v-12.5t1.5 -24.5t5.5 -30.5t13 -31.5q78 15 113 9q24 -5 35.5 -21.5t8 -34t-25 -31.5t-63.5 -12q-47 2 -86 9q-39 -30 -82.5 -73.5
t-82.5 -95t-69.5 -108t-43.5 -112t-4 -108t48 -96.5q31 -35 76.5 -42t99 6.5t113 44t118.5 72t115 89.5t103.5 96.5t83.5 94t55 80.5q9 17 19 21t17.5 -1t10 -17t-2.5 -28q-4 -11 -25 -42t-56 -74.5t-82.5 -95.5t-104 -105t-120.5 -103t-132 -89t-138 -63t-139 -26
q-49 -1 -96.5 13t-86.5 43t-65.5 72.5t-32.5 101.5q-9 82 2.5 152.5t39 129t67.5 106t87.5 85.5t98.5 66t101 48q-39 26 -60 62t-19 84q0 21 2 40.5t6 38.5q-44 16 -80.5 41t-61.5 58.5t-36 75.5t-4 93q3 21 12.5 32.5t19.5 11.5t16.5 -11.5t2.5 -35.5q-6 -40 2.5 -73
t28.5 -59.5t49.5 -46t65.5 -32.5q22 64 62 111.5t87.5 82t98.5 56.5t96.5 35.5t81 18t52.5 4.5zM782 1186q-25 -4 -61.5 -27t-75 -59t-74.5 -82.5t-61 -95.5q63 2 124.5 16t111.5 38.5t83 60t40 80.5q4 27 -3 42t-20.5 21.5t-30.5 7t-33 -1.5zM793 1420q0 25 17.5 42
t43.5 17t44 -17t18 -42t-18 -42t-44 -17t-43.5 17t-17.5 42zM579 684q-14 0 -38 -11q16 -5 33 -4q27 1 24.5 7t-19.5 8z" />
    <glyph glyph-name="edotaccent" unicode="&#x117;" horiz-adv-x="511" 
d="M379 575q30 1 51.5 -4.5t36.5 -14.5t24 -20t13 -21q11 -29 9.5 -50.5t-8.5 -40.5q-17 -46 -49.5 -82t-72 -63.5t-81.5 -47t-79 -32t-64 -19t-36 -6.5q-2 -25 -0.5 -46t9 -36.5t21 -24t35.5 -7.5q62 2 118.5 27t106.5 62.5t93.5 84t80.5 92.5t67 87t53 68q7 9 17 9.5
t17.5 -4t10.5 -13.5t-3 -20q-6 -10 -22 -36.5t-40.5 -63t-57.5 -79t-73 -85.5t-86.5 -83.5t-98.5 -71t-109 -48t-118 -16.5q-48 1 -81.5 14.5t-55.5 37t-32 56t-10 70.5q0 36 12.5 81.5t36.5 92.5t59.5 91.5t81.5 79.5t102 57.5t122 24.5zM395 506q-49 -5 -91 -34.5t-75 -70
t-56.5 -85t-35.5 -78.5q32 7 75.5 24t86.5 42t81 56.5t59 69.5q7 12 8.5 25.5t-3.5 25.5t-17 19t-32 6zM413 720q0 25 17.5 42t43.5 17t44 -17t18 -42t-18 -42t-44 -17t-43.5 17t-17.5 42z" />
    <glyph glyph-name="Eogonek" unicode="&#x118;" horiz-adv-x="834" 
d="M196 -406q-25 13 -36.5 42.5t-10 67t14.5 78t36 76.5q-42 6 -80.5 23.5t-69.5 46t-51.5 68t-26.5 89.5q-9 82 2.5 152.5t39 129t67.5 106t87.5 85.5t98.5 66t101 48q-39 26 -60 62t-19 84q0 21 2 40.5t6 38.5q-44 16 -80.5 41t-61.5 58.5t-36 75.5t-4 93q3 21 12.5 32.5
t19.5 11.5t16.5 -11.5t2.5 -35.5q-6 -40 2.5 -73t28.5 -59.5t49.5 -46t65.5 -32.5q22 64 62 111.5t87.5 82t98.5 56.5t96.5 35.5t81 18t52.5 4.5q54 -2 85.5 -14t46.5 -30.5t16.5 -42.5t-4.5 -50q-15 -65 -59 -113.5t-105.5 -81t-135.5 -48.5t-148 -15q-9 -27 -12 -54v-12.5
t1.5 -24.5t5.5 -30.5t13 -31.5q78 15 113 9q24 -5 35.5 -21.5t8 -34t-25 -31.5t-63.5 -12q-47 2 -86 9q-39 -30 -82.5 -73.5t-82.5 -95t-69.5 -108t-43.5 -112t-4 -108t48 -96.5q31 -35 76.5 -42t99 6.5t113 44t118.5 72t115 89.5t103.5 96.5t83.5 94t55 80.5q9 17 19 21
t17.5 -1t10 -17t-2.5 -28q-3 -10 -22.5 -39t-51.5 -69.5t-76 -89.5t-96.5 -99.5t-112 -99t-123.5 -89t-130.5 -69t-132.5 -38.5q-11 -16 -27.5 -42t-31.5 -57t-25.5 -64t-7.5 -63q1 -9 4 -19t3 -17.5t-4.5 -9.5t-19.5 6zM782 1186q-25 -4 -61.5 -27t-75 -59t-74.5 -82.5
t-61 -95.5q63 2 124.5 16t111.5 38.5t83 60t40 80.5q4 27 -3 42t-20.5 21.5t-30.5 7t-33 -1.5zM579 684q-14 0 -38 -11q16 -5 33 -4q27 1 24.5 7t-19.5 8z" />
    <glyph glyph-name="eogonek" unicode="&#x119;" horiz-adv-x="511" 
d="M109 -279q-24 12 -35.5 40t-11.5 63t11 74.5t32 74.5q-74 11 -107 59t-33 116q0 36 12.5 81.5t36.5 92.5t59.5 91.5t81.5 79.5t102 57.5t122 24.5q30 1 51.5 -4.5t36.5 -14.5t24 -20t13 -21q11 -29 9.5 -50.5t-8.5 -40.5q-17 -46 -49.5 -82t-72 -63.5t-81.5 -47t-79 -32
t-64 -19t-36 -6.5q-2 -25 -0.5 -46t9 -36.5t21 -24t35.5 -7.5q62 2 118.5 27t106.5 62.5t93.5 84t80.5 92.5t67 87t53 68q7 9 17 9.5t17.5 -4t10.5 -13.5t-3 -20q-8 -13 -30.5 -50t-58 -86.5t-83 -104.5t-104.5 -104t-123.5 -85.5t-139.5 -47.5q-12 -18 -27.5 -43.5t-29 -54
t-21.5 -58.5t-6 -58q1 -9 4 -19t3 -17.5t-4.5 -9.5t-19.5 6zM395 506q-49 -5 -91 -34.5t-75 -70t-56.5 -85t-35.5 -78.5q32 7 75.5 24t86.5 42t81 56.5t59 69.5q7 12 8.5 25.5t-3.5 25.5t-17 19t-32 6z" />
    <glyph glyph-name="Ecaron" unicode="&#x11a;" horiz-adv-x="834" 
d="M790 1259q54 -2 85.5 -14t46.5 -30.5t16.5 -42.5t-4.5 -50q-15 -65 -59 -113.5t-105.5 -81t-135.5 -48.5t-148 -15q-9 -27 -12 -54v-12.5t1.5 -24.5t5.5 -30.5t13 -31.5q78 15 113 9q24 -5 35.5 -21.5t8 -34t-25 -31.5t-63.5 -12q-47 2 -86 9q-39 -30 -82.5 -73.5
t-82.5 -95t-69.5 -108t-43.5 -112t-4 -108t48 -96.5q31 -35 76.5 -42t99 6.5t113 44t118.5 72t115 89.5t103.5 96.5t83.5 94t55 80.5q9 17 19 21t17.5 -1t10 -17t-2.5 -28q-4 -11 -25 -42t-56 -74.5t-82.5 -95.5t-104 -105t-120.5 -103t-132 -89t-138 -63t-139 -26
q-49 -1 -96.5 13t-86.5 43t-65.5 72.5t-32.5 101.5q-9 82 2.5 152.5t39 129t67.5 106t87.5 85.5t98.5 66t101 48q-39 26 -60 62t-19 84q0 21 2 40.5t6 38.5q-44 16 -80.5 41t-61.5 58.5t-36 75.5t-4 93q3 21 12.5 32.5t19.5 11.5t16.5 -11.5t2.5 -35.5q-6 -40 2.5 -73
t28.5 -59.5t49.5 -46t65.5 -32.5q22 64 62 111.5t87.5 82t98.5 56.5t96.5 35.5t81 18t52.5 4.5zM782 1186q-25 -4 -61.5 -27t-75 -59t-74.5 -82.5t-61 -95.5q63 2 124.5 16t111.5 38.5t83 60t40 80.5q4 27 -3 42t-20.5 21.5t-30.5 7t-33 -1.5zM845 1325q0 -3 -17.5 -4
t-38.5 -2q-25 -1 -56 0l-56 141l99 8l19 -76l96 78l112 3q-45 -39 -79 -71q-15 -14 -29 -27t-25.5 -24t-18 -18t-6.5 -8zM579 684q-14 0 -38 -11q16 -5 33 -4q27 1 24.5 7t-19.5 8z" />
    <glyph glyph-name="ecaron" unicode="&#x11b;" horiz-adv-x="511" 
d="M379 575q30 1 51.5 -4.5t36.5 -14.5t24 -20t13 -21q11 -29 9.5 -50.5t-8.5 -40.5q-17 -46 -49.5 -82t-72 -63.5t-81.5 -47t-79 -32t-64 -19t-36 -6.5q-2 -25 -0.5 -46t9 -36.5t21 -24t35.5 -7.5q62 2 118.5 27t106.5 62.5t93.5 84t80.5 92.5t67 87t53 68q7 9 17 9.5
t17.5 -4t10.5 -13.5t-3 -20q-6 -10 -22 -36.5t-40.5 -63t-57.5 -79t-73 -85.5t-86.5 -83.5t-98.5 -71t-109 -48t-118 -16.5q-48 1 -81.5 14.5t-55.5 37t-32 56t-10 70.5q0 36 12.5 81.5t36.5 92.5t59.5 91.5t81.5 79.5t102 57.5t122 24.5zM395 506q-49 -5 -91 -34.5t-75 -70
t-56.5 -85t-35.5 -78.5q32 7 75.5 24t86.5 42t81 56.5t59 69.5q7 12 8.5 25.5t-3.5 25.5t-17 19t-32 6zM438 667q0 -3 -17.5 -4t-38.5 -2q-25 -1 -56 0l-56 141l99 8l19 -76l96 78l112 3q-45 -39 -79 -71q-15 -14 -29 -27t-25.5 -24t-18 -18t-6.5 -8z" />
    <glyph glyph-name="Gcircumflex" unicode="&#x11c;" horiz-adv-x="1311" 
d="M1013 520q9 -1 27.5 -16t35.5 -36.5t28.5 -46t7.5 -43.5q-32 -137 -66 -255q62 35 120.5 73.5t111.5 81.5t99 91t84 103q9 13 25.5 15.5t29.5 -5t16 -24t-15 -40.5q-44 -60 -99.5 -113.5t-120 -102t-135.5 -92t-146 -83.5q-57 -173 -122 -306.5t-134.5 -232
t-141.5 -165.5t-144 -108t-141 -58.5t-133 -17.5q-82 0 -133 23t-79.5 55.5t-37.5 68t-6 61.5q9 83 49 151t103.5 125.5t147 107.5t178.5 96.5t198 91.5t206 93q29 81 53 155.5t42 137.5q-36 -44 -80 -92t-94.5 -94t-106 -87t-114 -71t-119 -45t-119.5 -10q-29 3 -69 19.5
t-76 51.5t-62 92.5t-27 142.5q-1 42 12 105t38.5 137.5t62.5 156t84.5 161t105 152t123.5 129t139.5 92.5t154.5 42q57 4 95.5 -13.5t60.5 -47t29.5 -66.5t3.5 -72q-4 -39 -16.5 -72.5t-27.5 -61.5t-30.5 -50t-25.5 -37q-17 -27 -35 -30.5t-30 5.5t-14.5 26t12.5 31
q5 5 19 24.5t29.5 46t28 55.5t15.5 53q1 15 3 37t-6 41.5t-30.5 30.5t-69.5 4q-23 -4 -67 -30.5t-98.5 -77t-113.5 -125t-112.5 -173t-96 -221.5t-62.5 -270q-1 -12 -1 -32.5t3.5 -45t10.5 -49.5t19 -45t29.5 -32.5t41.5 -11.5q62 2 128.5 34.5t130.5 81.5t123.5 107.5
t108.5 114t85 100t53 66.5l6 27q1 7 8.5 11t31.5 0zM192 -778q64 -2 124 25t115.5 75.5t105.5 115t94.5 144t84 162.5t73.5 170q-96 -46 -189.5 -88.5t-177.5 -85.5t-155.5 -86.5t-124.5 -89.5t-83.5 -96.5t-32.5 -107.5q-1 -23 7 -47t27.5 -44t52 -33t79.5 -14zM826 1466
q0 2 17.5 3.5t38.5 2.5q25 1 56 0l56 -141l-99 -7l-19 76l-96 -79l-112 -3q44 39 79 71q15 13 29 26.5t25 24t18 17.5t7 9z" />
    <glyph glyph-name="gcircumflex" unicode="&#x11d;" horiz-adv-x="734" 
d="M575 564q33 -2 53.5 -10t30.5 -20t10.5 -26.5t-6.5 -29.5q-33 -74 -67 -162.5t-69 -185.5q61 37 117 75t104.5 78.5t87.5 83.5t65 91q6 12 17.5 16t21.5 1t15 -12.5t-1 -24.5q-24 -60 -69.5 -113.5t-106 -102.5t-133.5 -94t-151 -88q-36 -99 -75.5 -198t-83 -190
t-91 -169.5t-101 -136.5t-113.5 -91.5t-127 -32.5q-27 0 -58.5 8t-58 29.5t-43 59t-13.5 96.5q5 97 56.5 178.5t132.5 153t184 135t211 125.5q21 52 39 102q-18 -22 -41 -44t-52 -39.5t-66 -28.5t-83 -11q-50 0 -77.5 17t-41 41t-16.5 49.5t-3 42.5q0 21 8.5 60.5t27.5 85.5
t49 95t73.5 89t101 67t131.5 31q27 1 46.5 -6.5t33.5 -21t23 -30.5t15 -35l17 49q7 18 14.5 27.5t16 13.5t19.5 4t26 -1zM-88 -698q37 2 82 56t93.5 141.5t98 198t95.5 225.5q-93 -53 -178 -109t-150 -119t-104.5 -135.5t-42.5 -157.5q-1 -30 7 -49.5t22.5 -31t34 -16
t42.5 -3.5zM171 59q37 0 70.5 17t62.5 44t54.5 60.5t45.5 65.5l48 138q-2 3 0 9q2 10 -0.5 26t-11 30.5t-24 24t-40.5 7.5q-50 -5 -88 -40.5t-65.5 -82.5t-47 -96.5t-31.5 -83.5q-3 -9 -6 -28.5t-2 -39.5t9 -35.5t26 -15.5zM362 808q0 2 17.5 3.5t38.5 2.5q25 1 56 0
l56 -141l-99 -7l-19 76l-96 -79l-112 -3q44 39 79 71q15 13 29 26.5t25 24t18 17.5t7 9z" />
    <glyph glyph-name="Gbreve" unicode="&#x11e;" horiz-adv-x="1311" 
d="M1013 520q9 -1 27.5 -16t35.5 -36.5t28.5 -46t7.5 -43.5q-32 -137 -66 -255q62 35 120.5 73.5t111.5 81.5t99 91t84 103q9 13 25.5 15.5t29.5 -5t16 -24t-15 -40.5q-44 -60 -99.5 -113.5t-120 -102t-135.5 -92t-146 -83.5q-57 -173 -122 -306.5t-134.5 -232
t-141.5 -165.5t-144 -108t-141 -58.5t-133 -17.5q-82 0 -133 23t-79.5 55.5t-37.5 68t-6 61.5q9 83 49 151t103.5 125.5t147 107.5t178.5 96.5t198 91.5t206 93q29 81 53 155.5t42 137.5q-36 -44 -80 -92t-94.5 -94t-106 -87t-114 -71t-119 -45t-119.5 -10q-29 3 -69 19.5
t-76 51.5t-62 92.5t-27 142.5q-1 42 12 105t38.5 137.5t62.5 156t84.5 161t105 152t123.5 129t139.5 92.5t154.5 42q57 4 95.5 -13.5t60.5 -47t29.5 -66.5t3.5 -72q-4 -39 -16.5 -72.5t-27.5 -61.5t-30.5 -50t-25.5 -37q-17 -27 -35 -30.5t-30 5.5t-14.5 26t12.5 31
q5 5 19 24.5t29.5 46t28 55.5t15.5 53q1 15 3 37t-6 41.5t-30.5 30.5t-69.5 4q-23 -4 -67 -30.5t-98.5 -77t-113.5 -125t-112.5 -173t-96 -221.5t-62.5 -270q-1 -12 -1 -32.5t3.5 -45t10.5 -49.5t19 -45t29.5 -32.5t41.5 -11.5q62 2 128.5 34.5t130.5 81.5t123.5 107.5
t108.5 114t85 100t53 66.5l6 27q1 7 8.5 11t31.5 0zM192 -778q64 -2 124 25t115.5 75.5t105.5 115t94.5 144t84 162.5t73.5 170q-96 -46 -189.5 -88.5t-177.5 -85.5t-155.5 -86.5t-124.5 -89.5t-83.5 -96.5t-32.5 -107.5q-1 -23 7 -47t27.5 -44t52 -33t79.5 -14zM835 1350
q-51 1 -71.5 20.5t-25 44t0.5 46.5t7 28q4 -1 17.5 1t28.5 4q18 3 39 7q-8 -23 -8 -41q0 -16 7 -28.5t28 -12.5q16 0 28 12t20 27q9 18 15 40l72 -7q-11 -40 -32 -72q-9 -14 -21 -26.5t-27.5 -22.5t-35 -15.5t-42.5 -4.5zM746 1491v-2q-1 1 0 2z" />
    <glyph glyph-name="gbreve" unicode="&#x11f;" horiz-adv-x="734" 
d="M575 564q33 -2 53.5 -10t30.5 -20t10.5 -26.5t-6.5 -29.5q-33 -74 -67 -162.5t-69 -185.5q61 37 117 75t104.5 78.5t87.5 83.5t65 91q6 12 17.5 16t21.5 1t15 -12.5t-1 -24.5q-24 -60 -69.5 -113.5t-106 -102.5t-133.5 -94t-151 -88q-36 -99 -75.5 -198t-83 -190
t-91 -169.5t-101 -136.5t-113.5 -91.5t-127 -32.5q-27 0 -58.5 8t-58 29.5t-43 59t-13.5 96.5q5 97 56.5 178.5t132.5 153t184 135t211 125.5q21 52 39 102q-18 -22 -41 -44t-52 -39.5t-66 -28.5t-83 -11q-50 0 -77.5 17t-41 41t-16.5 49.5t-3 42.5q0 21 8.5 60.5t27.5 85.5
t49 95t73.5 89t101 67t131.5 31q27 1 46.5 -6.5t33.5 -21t23 -30.5t15 -35l17 49q7 18 14.5 27.5t16 13.5t19.5 4t26 -1zM-88 -698q37 2 82 56t93.5 141.5t98 198t95.5 225.5q-93 -53 -178 -109t-150 -119t-104.5 -135.5t-42.5 -157.5q-1 -30 7 -49.5t22.5 -31t34 -16
t42.5 -3.5zM171 59q37 0 70.5 17t62.5 44t54.5 60.5t45.5 65.5l48 138q-2 3 0 9q2 10 -0.5 26t-11 30.5t-24 24t-40.5 7.5q-50 -5 -88 -40.5t-65.5 -82.5t-47 -96.5t-31.5 -83.5q-3 -9 -6 -28.5t-2 -39.5t9 -35.5t26 -15.5zM461 656q-51 1 -71.5 20.5t-25 44t0.5 46.5t7 28
q4 -1 17.5 1t28.5 4q18 3 39 7q-8 -23 -8 -41q0 -16 7 -28.5t28 -12.5q16 0 28 12t20 27q9 18 15 40l72 -7q-11 -40 -32 -72q-9 -14 -21 -26.5t-27.5 -22.5t-35 -15.5t-42.5 -4.5zM372 797v-2q-1 1 0 2z" />
    <glyph glyph-name="Gdotaccent" unicode="&#x120;" horiz-adv-x="1311" 
d="M1013 520q9 -1 27.5 -16t35.5 -36.5t28.5 -46t7.5 -43.5q-32 -137 -66 -255q62 35 120.5 73.5t111.5 81.5t99 91t84 103q9 13 25.5 15.5t29.5 -5t16 -24t-15 -40.5q-44 -60 -99.5 -113.5t-120 -102t-135.5 -92t-146 -83.5q-57 -173 -122 -306.5t-134.5 -232
t-141.5 -165.5t-144 -108t-141 -58.5t-133 -17.5q-82 0 -133 23t-79.5 55.5t-37.5 68t-6 61.5q9 83 49 151t103.5 125.5t147 107.5t178.5 96.5t198 91.5t206 93q29 81 53 155.5t42 137.5q-36 -44 -80 -92t-94.5 -94t-106 -87t-114 -71t-119 -45t-119.5 -10q-29 3 -69 19.5
t-76 51.5t-62 92.5t-27 142.5q-1 42 12 105t38.5 137.5t62.5 156t84.5 161t105 152t123.5 129t139.5 92.5t154.5 42q57 4 95.5 -13.5t60.5 -47t29.5 -66.5t3.5 -72q-4 -39 -16.5 -72.5t-27.5 -61.5t-30.5 -50t-25.5 -37q-17 -27 -35 -30.5t-30 5.5t-14.5 26t12.5 31
q5 5 19 24.5t29.5 46t28 55.5t15.5 53q1 15 3 37t-6 41.5t-30.5 30.5t-69.5 4q-23 -4 -67 -30.5t-98.5 -77t-113.5 -125t-112.5 -173t-96 -221.5t-62.5 -270q-1 -12 -1 -32.5t3.5 -45t10.5 -49.5t19 -45t29.5 -32.5t41.5 -11.5q62 2 128.5 34.5t130.5 81.5t123.5 107.5
t108.5 114t85 100t53 66.5l6 27q1 7 8.5 11t31.5 0zM192 -778q64 -2 124 25t115.5 75.5t105.5 115t94.5 144t84 162.5t73.5 170q-96 -46 -189.5 -88.5t-177.5 -85.5t-155.5 -86.5t-124.5 -89.5t-83.5 -96.5t-32.5 -107.5q-1 -23 7 -47t27.5 -44t52 -33t79.5 -14zM827 1420
q0 25 17.5 42t43.5 17t44 -17t18 -42t-18 -42t-44 -17t-43.5 17t-17.5 42z" />
    <glyph glyph-name="gdotaccent" unicode="&#x121;" horiz-adv-x="734" 
d="M575 564q33 -2 53.5 -10t30.5 -20t10.5 -26.5t-6.5 -29.5q-33 -74 -67 -162.5t-69 -185.5q61 37 117 75t104.5 78.5t87.5 83.5t65 91q6 12 17.5 16t21.5 1t15 -12.5t-1 -24.5q-24 -60 -69.5 -113.5t-106 -102.5t-133.5 -94t-151 -88q-36 -99 -75.5 -198t-83 -190
t-91 -169.5t-101 -136.5t-113.5 -91.5t-127 -32.5q-27 0 -58.5 8t-58 29.5t-43 59t-13.5 96.5q5 97 56.5 178.5t132.5 153t184 135t211 125.5q21 52 39 102q-18 -22 -41 -44t-52 -39.5t-66 -28.5t-83 -11q-50 0 -77.5 17t-41 41t-16.5 49.5t-3 42.5q0 21 8.5 60.5t27.5 85.5
t49 95t73.5 89t101 67t131.5 31q27 1 46.5 -6.5t33.5 -21t23 -30.5t15 -35l17 49q7 18 14.5 27.5t16 13.5t19.5 4t26 -1zM-88 -698q37 2 82 56t93.5 141.5t98 198t95.5 225.5q-93 -53 -178 -109t-150 -119t-104.5 -135.5t-42.5 -157.5q-1 -30 7 -49.5t22.5 -31t34 -16
t42.5 -3.5zM171 59q37 0 70.5 17t62.5 44t54.5 60.5t45.5 65.5l48 138q-2 3 0 9q2 10 -0.5 26t-11 30.5t-24 24t-40.5 7.5q-50 -5 -88 -40.5t-65.5 -82.5t-47 -96.5t-31.5 -83.5q-3 -9 -6 -28.5t-2 -39.5t9 -35.5t26 -15.5zM411 713q0 25 17.5 42t43.5 17t44 -17t18 -42
t-18 -42t-44 -17t-43.5 17t-17.5 42z" />
    <glyph glyph-name="Hcircumflex" unicode="&#x124;" horiz-adv-x="1511" 
d="M874 1216q21 1 44.5 -1.5t40.5 -13.5t23.5 -33.5t-5.5 -61.5q-56 -171 -123 -332t-138 -307q86 42 173 84t173 84q65 129 142 250t156.5 215.5t156.5 151.5t141 58q42 0 71.5 -17.5t46 -45.5t21 -62t-3.5 -67q-18 -72 -69 -138t-127 -127.5t-171.5 -119.5t-202.5 -113
q-50 -116 -89.5 -229.5t-61 -208t-22 -161.5t27.5 -89q11 -9 47 2.5t88 41t114 75.5t125.5 106t122.5 133t105 156q16 29 29.5 38t22.5 4.5t12 -19t-2 -33.5q-13 -49 -54 -114t-100 -133.5t-131.5 -135t-148 -118.5t-149.5 -84t-137 -32q-51 0 -82.5 25t-48 65t-20 88.5
t2.5 96.5q11 88 45 195.5t86 223.5q-89 -42 -176 -82t-172 -81q-76 -148 -146.5 -267.5t-124.5 -204.5q-28 -44 -69 -73.5t-85.5 -44t-87.5 -13.5t-75.5 18t-50.5 50t-11 83q7 60 45.5 117t100.5 112t143.5 108t175.5 105q41 87 82.5 177t78.5 174.5t68.5 159t54.5 131.5
t35.5 93t11.5 42q-3 15 -33 8t-74 -26.5t-95 -47t-95.5 -53.5t-75.5 -46.5t-36 -25.5q-8 -9 -19.5 -9t-18.5 7.5t-4.5 22.5t21.5 36q36 41 82.5 73.5t96.5 58.5t100.5 44.5t94 30.5t77 18.5t50.5 7.5zM1658 1239q-36 2 -81.5 -37t-95 -106.5t-101 -158t-99.5 -190.5
q87 47 162.5 95t133.5 96.5t96 99t49 102.5q3 13 5 29.5t-3 31.5t-20 25.5t-46 12.5zM231 -118q35 54 83.5 144t102.5 201q-70 -39 -128.5 -78.5t-101.5 -79.5t-69 -81t-30 -84q-3 -25 12 -42.5t38 -22.5t48.5 4.5t44.5 38.5zM1216 1522q0 2 17.5 3.5t38.5 2.5q25 1 56 0
l56 -141l-99 -7l-19 76l-96 -79l-112 -3q44 39 79 71q15 13 29 26.5t25 24t18 17.5t7 9z" />
    <glyph glyph-name="hcircumflex" unicode="&#x125;" 
d="M589 1125q48 5 79 -8t49 -36t25 -52t8 -56.5t-2.5 -50t-6.5 -31.5q-23 -65 -58 -122.5t-89 -101.5t-129.5 -70t-179.5 -28q-19 -42 -36.5 -84t-34.5 -84q39 36 81 64.5t80.5 46.5t69 24t45.5 -2q30 -17 34.5 -55t-6.5 -84.5t-32.5 -97t-43 -94t-38 -74.5t-17.5 -39
q-4 -23 -2 -30t11 -6q35 3 82 34.5t97 78.5t99.5 102t91.5 104t71.5 85.5t39.5 47.5q6 6 14.5 7.5t15 -2.5t9.5 -12.5t-2 -22.5q-3 -7 -20.5 -33.5t-46 -64.5t-66.5 -84.5t-81.5 -93t-91.5 -89t-95.5 -74t-94 -48t-87.5 -10.5q-46 7 -67.5 29t-25.5 52.5t6 68t26.5 76.5
t35.5 77t34 70t22 55t-2 32q-13 13 -37 0t-51.5 -38.5t-54.5 -56t-45 -51.5q-34 -87 -56.5 -151t-30.5 -85q-10 -25 -27.5 -27t-34.5 10t-29.5 32.5t-12.5 41.5q0 10 12.5 58t36 119t56.5 159t74.5 178.5t90.5 177t103.5 155.5t113.5 113.5t121 50.5zM607 1019
q-35 -4 -73 -38t-76 -88.5t-76 -125t-74 -147.5q67 4 120.5 24t96.5 55.5t77 84.5t61 112q8 18 9.5 40.5t-5 41.5t-21 31.5t-39.5 9.5zM858 1591q0 2 17.5 3.5t38.5 2.5q25 1 56 0l56 -141l-99 -7l-19 76l-96 -79l-112 -3q44 39 79 71q15 13 29 26.5t25 24t18 17.5t7 9z" />
    <glyph glyph-name="Hbar" unicode="&#x126;" horiz-adv-x="1511" 
d="M683 915h17t29 1q35 84 55 138.5t19 62.5q-3 15 -33 8t-74 -26.5t-95 -47t-95.5 -53.5t-75.5 -46.5t-36 -25.5q-8 -9 -19.5 -9t-18.5 7.5t-4.5 22.5t21.5 36q36 41 82.5 73.5t96.5 58.5t100.5 44.5t94 30.5t77 18.5t50.5 7.5q21 1 44.5 -1.5t40.5 -13.5t23.5 -33.5
t-5.5 -61.5q-32 -96 -66 -189l315 2q55 83 112 154t113 123.5t108.5 83t98.5 30.5q42 0 71.5 -17.5t46 -45.5t21 -62t-3.5 -67q-18 -72 -69 -138t-127 -127.5t-171.5 -119.5t-202.5 -113q-50 -116 -89.5 -229.5t-61 -208t-22 -161.5t27.5 -89q11 -9 47 2.5t88 41t114 75.5
t125.5 106t122.5 133t105 156q16 29 29.5 38t22.5 4.5t12 -19t-2 -33.5q-13 -49 -54 -114t-100 -133.5t-131.5 -135t-148 -118.5t-149.5 -84t-137 -32q-51 0 -82.5 25t-48 65t-20 88.5t2.5 96.5q11 88 45 195.5t86 223.5q-89 -42 -176 -82t-172 -81q-76 -148 -146.5 -267.5
t-124.5 -204.5q-28 -44 -69 -73.5t-85.5 -44t-87.5 -13.5t-75.5 18t-50.5 50t-11 83q7 60 45.5 117t100.5 112t143.5 108t175.5 105q30 63 59.5 128t58 128t55 123.5t49.5 114.5h-35q-34 -1 -41 11.5t1.5 28t27 28.5t36.5 13zM1062 635q51 101 112 201q-67 0 -144.5 -0.5
t-150.5 -0.5q-78 -193 -163 -368q86 42 173 84t173 84zM1281 747q87 47 162.5 95t133.5 96.5t96 99t49 102.5q3 13 5 29.5t-3 31.5t-20 25.5t-46 12.5q-28 1 -62 -22.5t-71 -66t-76.5 -102t-78.5 -129.5h32q17 -1 17 -14t-11.5 -28t-31.5 -27.5t-43 -12.5h-7zM231 -118
q35 54 83.5 144t102.5 201q-70 -39 -128.5 -78.5t-101.5 -79.5t-69 -81t-30 -84q-3 -25 12 -42.5t38 -22.5t48.5 4.5t44.5 38.5z" />
    <glyph glyph-name="hbar" unicode="&#x127;" 
d="M231 913q6 0 31 1t59 1q61 88 128.5 145t139.5 65q48 5 79 -8t49 -36t25 -52t8 -56.5t-2.5 -50t-6.5 -31.5q-23 -65 -58 -122.5t-89 -101.5t-129.5 -70t-179.5 -28q-19 -42 -36.5 -84t-34.5 -84q39 36 81 64.5t80.5 46.5t69 24t45.5 -2q30 -17 34.5 -55t-6.5 -84.5
t-32.5 -97t-43 -94t-38 -74.5t-17.5 -39q-4 -23 -2 -30t11 -6q35 3 82 34.5t97 78.5t99.5 102t91.5 104t71.5 85.5t39.5 47.5q6 6 14.5 7.5t15 -2.5t9.5 -12.5t-2 -22.5q-3 -7 -20.5 -33.5t-46 -64.5t-66.5 -84.5t-81.5 -93t-91.5 -89t-95.5 -74t-94 -48t-87.5 -10.5
q-46 7 -67.5 29t-25.5 52.5t6 68t26.5 76.5t35.5 77t34 70t22 55t-2 32q-13 13 -37 0t-51.5 -38.5t-54.5 -56t-45 -51.5q-34 -87 -56.5 -151t-30.5 -85q-10 -25 -27.5 -27t-34.5 10t-29.5 32.5t-12.5 41.5q0 9 9.5 46t27 93t42.5 126.5t57 147.5t69.5 155t80.5 150
q-10 -1 -18.5 -0.5t-14.5 0.5h-13q-14 -1 -17 11.5t0.5 28t11 28.5t15.5 13zM420 834q-29 -48 -57 -102t-55 -112q67 4 120.5 24t96.5 55.5t77 84.5t61 112q8 18 9.5 40.5t-5 41.5t-21 31.5t-39.5 9.5q-32 -4 -64.5 -30.5t-66.5 -71.5h59q7 -1 7 -14t-4.5 -28t-13 -27.5
t-18.5 -12.5h-26t-60 -1z" />
    <glyph glyph-name="Itilde" unicode="&#x128;" horiz-adv-x="820" 
d="M993 1200q21 1 39.5 -6t30.5 -20.5t15 -32t-6 -40.5q-7 -18 -29 -67.5t-56 -121.5t-78.5 -161t-96 -185.5t-108.5 -195.5t-116.5 -191t-120 -171.5t-118.5 -138t-112.5 -90t-102.5 -26.5q-15 1 -37.5 7.5t-43.5 21t-36.5 39.5t-16.5 65q0 8 2.5 27t11.5 41.5t27 46
t49 41.5q17 10 28 7t16 -12t4 -20t-7 -16q-24 -21 -37.5 -46.5t-17 -49.5t2 -44t18.5 -31.5t33.5 -11t47.5 18.5q13 8 40.5 48t65.5 102t83.5 141.5t95 167.5t99.5 180t97 179t88 164t71 135.5t48 93t18 36.5q2 10 -6 15.5t-21 1.5q-77 -24 -154.5 -56t-145 -80
t-120.5 -115.5t-83 -162.5q-9 -29 -12.5 -55t-7 -45t-10.5 -29.5t-25 -8.5q-12 1 -17 14.5t-5.5 32.5t2 40t5.5 38q10 67 46 131.5t90 122.5t122.5 107t143.5 85t153.5 57t153.5 23zM871 1368q24 33 47.5 41.5t48 5t50.5 -13.5t55 -14.5t61.5 2.5t70.5 38q8 6 12.5 -0.5
t4 -20.5t-7.5 -32t-23 -35t-42 -29.5t-65 -14.5q-32 -1 -61 9.5t-55.5 20t-51.5 12.5t-50 -13q-4 -3 -4 3t1.5 14t4 16.5t4.5 10.5z" />
    <glyph glyph-name="itilde" unicode="&#x129;" horiz-adv-x="422" 
d="M262 530q18 -1 30 -8t18 -17t7.5 -20.5t0.5 -17.5q-6 -27 -30 -72.5t-53 -97t-55.5 -104.5t-37.5 -95q-6 -23 6.5 -24t32.5 12q34 23 79 61.5t92 83t92.5 89.5t81.5 82.5t59.5 62t26.5 26.5q4 3 11.5 3t14 -3.5t10 -9.5t-0.5 -15q-3 -6 -25 -32.5t-57 -66t-81 -88
t-96 -97.5t-102 -95.5t-99 -82.5q-7 -5 -23 -15.5t-36.5 -20t-44.5 -15.5t-48 -3q-37 5 -45.5 40.5t1.5 87t33.5 112.5t49.5 117t49.5 100t34.5 63q16 27 33 40t31.5 17.5t25 3.5t14.5 -1zM142 668q24 33 47.5 41.5t48 5t50.5 -13.5t55 -14.5t61.5 2.5t70.5 38
q8 6 12.5 -0.5t4 -20.5t-7.5 -32t-23 -35t-42 -29.5t-65 -14.5q-32 -1 -61 9.5t-55.5 20t-51.5 12.5t-50 -13q-4 -3 -4 3t1.5 14t4 16.5t4.5 10.5z" />
    <glyph glyph-name="Imacron" unicode="&#x12a;" horiz-adv-x="820" 
d="M993 1200q21 1 39.5 -6t30.5 -20.5t15 -32t-6 -40.5q-7 -18 -29 -67.5t-56 -121.5t-78.5 -161t-96 -185.5t-108.5 -195.5t-116.5 -191t-120 -171.5t-118.5 -138t-112.5 -90t-102.5 -26.5q-15 1 -37.5 7.5t-43.5 21t-36.5 39.5t-16.5 65q0 8 2.5 27t11.5 41.5t27 46
t49 41.5q17 10 28 7t16 -12t4 -20t-7 -16q-24 -21 -37.5 -46.5t-17 -49.5t2 -44t18.5 -31.5t33.5 -11t47.5 18.5q13 8 40.5 48t65.5 102t83.5 141.5t95 167.5t99.5 180t97 179t88 164t71 135.5t48 93t18 36.5q2 10 -6 15.5t-21 1.5q-77 -24 -154.5 -56t-145 -80
t-120.5 -115.5t-83 -162.5q-9 -29 -12.5 -55t-7 -45t-10.5 -29.5t-25 -8.5q-12 1 -17 14.5t-5.5 32.5t2 40t5.5 38q10 67 46 131.5t90 122.5t122.5 107t143.5 85t153.5 57t153.5 23zM900 1366q6 0 30.5 1t57.5 1.5t70.5 1t69 0.5h53h23.5q7 -1 7 -14t-4.5 -28t-13 -27.5
t-18.5 -12.5h-22t-52.5 -0.5t-68 -1t-68 -1t-52.5 -0.5h-22q-14 -1 -17 11.5t0.5 28t11 28.5t15.5 13z" />
    <glyph glyph-name="imacron" unicode="&#x12b;" horiz-adv-x="422" 
d="M262 530q18 -1 30 -8t18 -17t7.5 -20.5t0.5 -17.5q-6 -27 -30 -72.5t-53 -97t-55.5 -104.5t-37.5 -95q-6 -23 6.5 -24t32.5 12q34 23 79 61.5t92 83t92.5 89.5t81.5 82.5t59.5 62t26.5 26.5q4 3 11.5 3t14 -3.5t10 -9.5t-0.5 -15q-3 -6 -25 -32.5t-57 -66t-81 -88
t-96 -97.5t-102 -95.5t-99 -82.5q-7 -5 -23 -15.5t-36.5 -20t-44.5 -15.5t-48 -3q-37 5 -45.5 40.5t1.5 87t33.5 112.5t49.5 117t49.5 100t34.5 63q16 27 33 40t31.5 17.5t25 3.5t14.5 -1zM180 694q6 0 30.5 1t57.5 1.5t70.5 1t69 0.5h53h23.5q7 -1 7 -14t-4.5 -28
t-13 -27.5t-18.5 -12.5h-22t-52.5 -0.5t-68 -1t-68 -1t-52.5 -0.5h-22q-14 -1 -17 11.5t0.5 28t11 28.5t15.5 13z" />
    <glyph glyph-name="Iogonek" unicode="&#x12e;" horiz-adv-x="820" 
d="M75 -505q-26 13 -37 43.5t-9 68.5t16 80t38 78q-15 6 -29.5 15.5t-26.5 24t-19.5 34.5t-7.5 47q0 8 2.5 27t11.5 41.5t27 46t49 41.5q17 10 28 7t16 -12t4 -20t-7 -16q-24 -21 -37.5 -46.5t-17 -49.5t2 -44t18.5 -31.5t33.5 -11t47.5 18.5q13 8 40.5 48t65.5 102
t83.5 141.5t95 167.5t99.5 180t97 179t88 164t71 135.5t48 93t18 36.5q2 10 -6 15.5t-21 1.5q-77 -24 -154.5 -56t-145 -80t-120.5 -115.5t-83 -162.5q-9 -29 -12.5 -55t-7 -45t-10.5 -29.5t-25 -8.5q-12 1 -17 14.5t-5.5 32.5t2 40t5.5 38q10 67 46 131.5t90 122.5
t122.5 107t143.5 85t153.5 57t153.5 23q21 1 39.5 -6t30.5 -20.5t15 -32t-6 -40.5q-7 -17 -27.5 -63t-51.5 -112t-72 -149t-88.5 -173.5t-101 -185t-109.5 -184.5t-113.5 -171t-114 -144.5t-110.5 -106t-102 -54.5q-11 -17 -27.5 -43t-31.5 -56t-24.5 -62t-6.5 -62
q1 -9 4 -19t3 -17.5t-4.5 -9.5t-19.5 6z" />
    <glyph glyph-name="iogonek" unicode="&#x12f;" horiz-adv-x="422" 
d="M0 -293q-25 13 -36 41.5t-10 65.5t13.5 77t34.5 76q-18 21 -16 62t16 91t36 105t45.5 103.5t44 86.5t30.5 55q16 27 33 40t31.5 17.5t25 3.5t14.5 -1q18 -1 30 -8t18 -17t7.5 -20.5t0.5 -17.5q-6 -27 -30 -72.5t-53 -97t-55.5 -104.5t-37.5 -95q-6 -23 6.5 -24t32.5 12
q34 23 79 61.5t92 83t92.5 89.5t81.5 82.5t59.5 62t26.5 26.5q4 3 11.5 3t14 -3.5t10 -9.5t-0.5 -15q-3 -6 -25 -32.5t-57 -66t-81 -88t-96 -97.5t-102 -95.5t-99 -82.5q-10 -7 -33.5 -21.5t-54.5 -24.5q-12 -18 -27 -43t-28 -53t-21 -58t-6 -57q1 -9 4 -19t3 -17.5
t-4.5 -9.5t-19.5 6zM275 698q9 18 21.5 31t26.5 20t29 8t28 -5q13 -7 21.5 -19.5t11.5 -28t0.5 -33.5t-11.5 -36t-21.5 -31t-26.5 -20t-29 -8t-28 5q-26 13 -32.5 47t10.5 70z" />
    <glyph glyph-name="Idotaccent" unicode="&#x130;" horiz-adv-x="820" 
d="M993 1200q21 1 39.5 -6t30.5 -20.5t15 -32t-6 -40.5q-7 -18 -29 -67.5t-56 -121.5t-78.5 -161t-96 -185.5t-108.5 -195.5t-116.5 -191t-120 -171.5t-118.5 -138t-112.5 -90t-102.5 -26.5q-15 1 -37.5 7.5t-43.5 21t-36.5 39.5t-16.5 65q0 8 2.5 27t11.5 41.5t27 46
t49 41.5q17 10 28 7t16 -12t4 -20t-7 -16q-24 -21 -37.5 -46.5t-17 -49.5t2 -44t18.5 -31.5t33.5 -11t47.5 18.5q13 8 40.5 48t65.5 102t83.5 141.5t95 167.5t99.5 180t97 179t88 164t71 135.5t48 93t18 36.5q2 10 -6 15.5t-21 1.5q-77 -24 -154.5 -56t-145 -80
t-120.5 -115.5t-83 -162.5q-9 -29 -12.5 -55t-7 -45t-10.5 -29.5t-25 -8.5q-12 1 -17 14.5t-5.5 32.5t2 40t5.5 38q10 67 46 131.5t90 122.5t122.5 107t143.5 85t153.5 57t153.5 23zM998 1371q0 25 17.5 42t43.5 17t44 -17t18 -42t-18 -42t-44 -17t-43.5 17t-17.5 42z" />
    <glyph glyph-name="IJ" unicode="&#x132;" horiz-adv-x="1894" 
d="M994 503q14 75 42 160t71.5 169.5t102.5 162t134.5 136t166.5 92t200 30.5q89 -2 149 -44.5t74 -133.5q1 -7 -7 -44.5t-25 -98t-42.5 -139.5t-59.5 -169t-76 -187t-92 -193q77 19 148 42.5t129.5 54.5t102 71t67.5 91q5 10 15.5 17t20 8t15.5 -6t1 -24
q-19 -66 -68.5 -114.5t-119.5 -84t-157 -60.5t-181 -45q-63 -114 -136.5 -218.5t-157.5 -184.5t-178 -128.5t-197 -51.5q-62 -2 -102.5 19.5t-65.5 54t-35.5 69.5t-10.5 67q-1 62 27 109t77 83.5t117 63t147 48t166 39t175 35.5q48 84 91.5 172.5t80 174.5t66 166.5
t49 149.5t29.5 122.5t8 85.5q-1 13 -1 31.5t-4.5 34.5t-16 27t-35.5 11q-103 -2 -200.5 -50.5t-181.5 -137.5t-151 -215t-110 -281q-6 -24 -18 -34t-23 -7.5t-18 16.5t-2 38zM993 1200q21 1 39.5 -6t30.5 -20.5t15 -32t-6 -40.5q-7 -18 -29 -67.5t-56 -121.5t-78.5 -161
t-96 -185.5t-108.5 -195.5t-116.5 -191t-120 -171.5t-118.5 -138t-112.5 -90t-102.5 -26.5q-15 1 -37.5 7.5t-43.5 21t-36.5 39.5t-16.5 65q0 8 2.5 27t11.5 41.5t27 46t49 41.5q17 10 28 7t16 -12t4 -20t-7 -16q-24 -21 -37.5 -46.5t-17 -49.5t2 -44t18.5 -31.5t33.5 -11
t47.5 18.5q13 8 40.5 48t65.5 102t83.5 141.5t95 167.5t99.5 180t97 179t88 164t71 135.5t48 93t18 36.5q2 10 -6 15.5t-21 1.5q-77 -24 -154.5 -56t-145 -80t-120.5 -115.5t-83 -162.5q-9 -29 -12.5 -55t-7 -45t-10.5 -29.5t-25 -8.5q-12 1 -17 14.5t-5.5 32.5t2 40t5.5 38
q10 67 46 131.5t90 122.5t122.5 107t143.5 85t153.5 57t153.5 23zM934 -297q60 7 121 45.5t121 99t117.5 139.5t111.5 168q-76 -14 -150 -29.5t-140.5 -34t-123.5 -42t-99 -54.5t-67.5 -70.5t-29.5 -90.5q-1 -12 5 -36t21.5 -47t43 -38t69.5 -10z" />
    <glyph glyph-name="ij" unicode="&#x133;" horiz-adv-x="922" 
d="M688 518q21 0 35 -6t21.5 -15.5t9.5 -20.5t-1 -21q-29 -80 -56.5 -151.5t-54.5 -137.5q68 34 131.5 70.5t120 75.5t103.5 81t81 89q7 9 16.5 9.5t18 -4.5t12.5 -13.5t0 -18.5q-23 -49 -73.5 -96.5t-119.5 -94t-152.5 -92t-172.5 -90.5q-64 -148 -123.5 -258.5
t-115 -189.5t-107 -131t-99 -82t-92 -42t-85.5 -12q-60 0 -93.5 19.5t-50.5 46t-21.5 55t-4.5 46.5q-1 58 22.5 109.5t66 98t102 89t129 82.5t147.5 78.5t159 76.5q38 87 70.5 165t58.5 140q-35 -39 -81 -88t-97 -99.5t-104 -98t-101 -83.5q-7 -5 -23 -15.5t-36.5 -20
t-44.5 -15.5t-48 -3q-37 5 -45.5 40.5t1.5 87t33.5 112.5t49.5 117t49.5 100t34.5 63q16 27 33 40t31.5 17.5t25 3.5t14.5 -1q18 -1 30 -8t18 -17t7.5 -20.5t0.5 -17.5q-6 -27 -30 -72.5t-53 -97t-55.5 -104.5t-37.5 -95q-6 -23 6.5 -24t32.5 12q34 23 79 61.5t92 83
t92.5 89.5t81.5 82.5t59.5 62t26.5 26.5q4 3 14 3q8 10 22 17t40 7zM-5 -585q46 0 97.5 48.5t104 127.5t104.5 180t100 206q-98 -51 -187.5 -102.5t-160.5 -105.5t-117.5 -110.5t-56.5 -116.5q-4 -21 2.5 -43.5t21.5 -41t38.5 -30.5t53.5 -12zM705 720q17 35 47.5 51t56.5 3
q13 -6 22 -18.5t12 -28.5t0.5 -33.5t-11.5 -35.5t-21.5 -31t-27 -20.5t-29.5 -8.5t-28 5q-26 14 -32.5 47.5t11.5 69.5zM275 698q9 18 21.5 31t26.5 20t29 8t28 -5q13 -7 21.5 -19.5t11.5 -28t0.5 -33.5t-11.5 -36t-21.5 -31t-26.5 -20t-29 -8t-28 5q-26 13 -32.5 47
t10.5 70z" />
    <glyph glyph-name="Jcircumflex" unicode="&#x134;" horiz-adv-x="1074" 
d="M174 503q14 75 42 160t71.5 169.5t102.5 162t134.5 136t166.5 92t200 30.5q89 -2 149 -44.5t74 -133.5q1 -7 -7 -44.5t-25 -98t-42.5 -139.5t-59.5 -169t-76 -187t-92 -193q77 19 148 42.5t129.5 54.5t102 71t67.5 91q5 10 15.5 17t20 8t15.5 -6t1 -24
q-19 -66 -68.5 -114.5t-119.5 -84t-157 -60.5t-181 -45q-63 -114 -136.5 -218.5t-157.5 -184.5t-178 -128.5t-197 -51.5q-62 -2 -102.5 19.5t-65.5 54t-35.5 69.5t-10.5 67q-1 62 27 109t77 83.5t117 63t147 48t166 39t175 35.5q48 84 91.5 172.5t80 174.5t66 166.5
t49 149.5t29.5 122.5t8 85.5q-1 13 -1 31.5t-4.5 34.5t-16 27t-35.5 11q-103 -2 -200.5 -50.5t-181.5 -137.5t-151 -215t-110 -281q-6 -24 -18 -34t-23 -7.5t-18 16.5t-2 38zM114 -297q60 7 121 45.5t121 99t117.5 139.5t111.5 168q-76 -14 -150 -29.5t-140.5 -34t-123 -42
t-99 -54.5t-68 -70.5t-29.5 -90.5q-1 -12 5 -36t21.5 -47t43 -38t69.5 -10zM909 1522q0 2 17.5 3.5t38.5 2.5q25 1 56 0l56 -141l-99 -7l-19 76l-96 -79l-112 -3q44 39 79 71q15 13 29 26.5t25 24t18 17.5t7 9z" />
    <glyph glyph-name="jcircumflex" unicode="&#x135;" horiz-adv-x="500" 
d="M266 518q21 0 35 -6t21.5 -15.5t9.5 -20.5t-2 -21q-29 -80 -56.5 -151.5t-54.5 -137.5q68 34 132 70.5t120.5 75.5t103.5 81t81 89q7 9 16.5 9.5t17.5 -4.5t12 -13.5t0 -18.5q-23 -49 -73.5 -96.5t-119.5 -94t-152.5 -92t-172.5 -91.5q-64 -147 -123.5 -257.5
t-114.5 -190t-106.5 -131t-99 -81.5t-92 -42t-85.5 -12q-60 0 -93.5 19.5t-50.5 46t-21.5 55t-4.5 46.5q-2 87 50.5 160t140.5 137t201.5 122t234.5 115q27 63 52 122t47 111.5t39.5 95t31.5 72.5q3 7 7.5 16t13 16t21.5 12t34 5zM-427 -585q46 0 97.5 48.5t104 127.5
t104.5 180t100 206q-98 -51 -188 -102.5t-161 -105.5t-117 -110.5t-56 -116.5q-4 -21 2.5 -43.5t21.5 -41t38.5 -30.5t53.5 -12zM337 808q0 2 17.5 3.5t38.5 2.5q25 1 56 0l56 -141l-99 -7l-19 76l-96 -79l-112 -3q44 39 79 71q15 13 29 26.5t25 24t18 17.5t7 9z" />
    <glyph glyph-name="kgreenlandic" unicode="&#x138;" horiz-adv-x="777" 
d="M676 1116q48 5 79 -8t49 -36t25.5 -52t8.5 -56.5t-2.5 -50t-6.5 -31.5q-25 -71 -60.5 -121t-89.5 -84.5t-130.5 -57.5t-183.5 -40q-17 -33 -32 -66t-30 -65q16 22 36 43.5t43 39.5t50 29.5t57 13.5q19 1 41 -7t39 -25.5t26.5 -45.5t4.5 -66q-4 -36 -23 -72.5t-45 -70.5
t-55 -63t-53.5 -50.5t-41.5 -34t-19 -12.5q-3 0 1.5 -7.5t21 -15t48.5 -10.5t84 6q53 9 101.5 34.5t91.5 59.5t80 73t66 76t49.5 67.5t31.5 47.5q7 10 17.5 12.5t19 -1t13.5 -10.5t2 -16q-2 -4 -16.5 -31.5t-41.5 -68t-67 -88.5t-92 -93t-116.5 -81t-141.5 -53q-7 -2 -30 -5
t-53.5 -3.5t-64 3.5t-61.5 16t-46.5 34t-18.5 59q0 25 15.5 49.5t39.5 48t52.5 47.5t54.5 49t46 52t26 57q5 23 -10.5 38.5t-39.5 12.5q-19 -3 -40 -19.5t-42 -39.5t-40.5 -49t-35 -48.5t-25.5 -38t-12 -16.5q-1 -1 -2 -1q-18 -44 -33.5 -83t-27.5 -70t-20.5 -53.5
t-12.5 -32.5q-9 -25 -26.5 -27t-35 10t-30 33t-12.5 42q0 10 14 58t40.5 120t63 161t81.5 181t97.5 179.5t109.5 157.5t117.5 115t122.5 51zM695 1010q-34 -3 -71 -34.5t-76 -82.5t-78.5 -118t-76.5 -140q74 18 132 40t102.5 52t75 69t48.5 91q6 18 4.5 40.5t-9 41t-21 30.5
t-30.5 11z" />
    <glyph glyph-name="Lacute" unicode="&#x139;" horiz-adv-x="1045" 
d="M1066 1230q52 -1 78.5 -20.5t36.5 -44.5t9 -50t-3 -37q-11 -62 -51 -117t-98.5 -100.5t-131 -80.5t-150.5 -56q-39 -85 -77.5 -176t-78.5 -180t-83 -172.5t-89 -152.5q77 -23 140.5 -46.5t122 -30.5t115 9t118.5 72t134 158.5t161 268.5q4 9 14 11t19 -2t13 -14.5
t-3 -27.5q-77 -183 -156 -299.5t-158.5 -182t-159 -88.5t-157.5 -20t-154 24t-148 45q-45 -44 -92 -69.5t-101 -28.5q-17 -1 -40 3.5t-44 17.5t-36 36t-15 59q0 13 4 39t18.5 52t42 45t75.5 18q37 -2 70.5 -5t65.5 -8q30 59 63 132t69 153t75 164t81 166q-94 -3 -174.5 19.5
t-129.5 76.5q-10 11 -14.5 25t-1.5 23.5t14.5 11t32.5 -11.5q27 -17 63.5 -26t80 -11.5t93 1t100.5 12.5q49 87 100.5 163.5t106.5 132.5t112.5 88.5t117.5 31.5zM1088 1153q-37 -5 -71.5 -28t-67 -61t-64 -88.5t-61.5 -109.5q57 21 109 47t93 55.5t69 62t38 67.5
q3 10 0.5 20t-8.5 18.5t-15.5 13t-21.5 3.5zM1141 1504q3 -1 14.5 -1h26t30.5 0.5t29 1t20.5 0.5t5.5 -1q-3 -1 -13.5 -10t-25 -21.5t-31.5 -27t-32 -27t-26 -21t-14 -9.5q-5 -2 -19.5 -2.5t-30 0t-27.5 2t-12 4.5t14.5 21t33 38.5t35.5 37t22 15.5zM144 -99q27 5 63 56
q-17 4 -33 7.5t-32 5.5q-36 6 -58.5 -7t-25 -29t17.5 -28t68 -5z" />
    <glyph glyph-name="lacute" unicode="&#x13a;" horiz-adv-x="533" 
d="M646 1116q27 -1 47 -12t33 -29t19.5 -40.5t6.5 -47.5q1 -54 -21 -122t-60 -140t-90.5 -142t-113 -128t-126.5 -99.5t-131 -54.5q-16 -65 -23 -121t-3.5 -99t19.5 -68.5t46 -28.5q32 -3 68 15t74 49.5t76 73t72.5 86t65.5 87.5t54 78t37.5 57.5t16.5 26.5q9 14 21 17.5
t21 -1.5t13 -17t-2 -29q-2 -5 -17 -30.5t-40 -63.5t-59.5 -85.5t-75.5 -95.5t-86.5 -93.5t-93 -80t-95.5 -54t-94 -16.5q-13 1 -38.5 6t-53 23t-50.5 53.5t-32 98.5q-7 50 0.5 122t28 154.5t52.5 171.5t73.5 173.5t92.5 160t109.5 131t123.5 87t135 27.5zM634 1010
q-34 -3 -72 -32t-76 -77t-75 -110.5t-71 -133t-62.5 -145.5t-49.5 -146q57 16 109.5 55.5t99 92.5t86 115t69.5 122.5t50 115t28 92.5q4 19 0.5 29.5t-10.5 15.5t-14.5 5.5t-11.5 0.5zM739 1320q3 -1 14.5 -1h26t30.5 0.5t29 1t20.5 0.5t5.5 -1q-3 -1 -13.5 -10t-25 -21.5
t-31.5 -27t-32 -27t-26 -21t-14 -9.5q-5 -2 -19.5 -2.5t-30 0t-27.5 2t-12 4.5t14.5 21t33 38.5t35.5 37t22 15.5z" />
    <glyph glyph-name="Nacute" unicode="&#x143;" horiz-adv-x="941" 
d="M1016 1006q10 1 19.5 -5t13.5 -19t0.5 -34t-18.5 -51q-5 -9 -25 -42t-50 -83.5t-67 -114t-76.5 -133t-77.5 -142t-70.5 -140t-56 -126.5t-33 -102.5t-2 -68t36.5 -22.5q26 2 60 24.5t71.5 58.5t77 82t77 93.5t71.5 93.5t60.5 83t43.5 61t21 28q8 7 18.5 10t19 0.5t11 -11
t-6.5 -24.5q-9 -17 -31 -53t-53.5 -83t-71 -101t-83.5 -106.5t-91.5 -99t-95 -79.5t-93.5 -48t-87 -3q-66 19 -90 67t-18 114t35.5 144.5t70 158.5t86 155t83 133.5t60.5 95.5t19 41q-3 4 -28 -13.5t-64.5 -50.5t-89.5 -79t-102.5 -99t-105 -111t-96.5 -115.5t-76.5 -111
t-45.5 -98.5q2 -20 4.5 -37t2.5 -30t-5 -22.5t-18 -15.5q-24 -9 -56 -7t-57 26t-35 75.5t10 140.5q4 15 26.5 75.5t81 171.5t160.5 275.5t264 387.5q3 5 -4 3t-20.5 -8t-30.5 -15t-33 -17.5t-29 -15.5t-18 -9q-12 -4 -20.5 -1.5t-12 9t-0.5 16t15 20.5q7 6 36 25t68.5 39.5
t83.5 36t81 14.5t54.5 -13.5t23 -29.5t2.5 -36t-7 -32q-12 -35 -43 -84t-74 -109.5t-94 -130.5t-102.5 -146t-101 -156.5t-88.5 -161.5q36 48 83.5 102.5t101.5 111.5t112.5 113.5t117 108.5t114 97.5t104 79t88 53.5t65.5 22zM950 1384q3 -1 14.5 -1h26t30.5 0.5t29 1
t20.5 0.5t5.5 -1q-3 -1 -13.5 -10t-25 -21.5t-31.5 -27t-32 -27t-26 -21t-14 -9.5q-5 -2 -19.5 -2.5t-30 0t-27.5 2t-12 4.5t14.5 21t33 38.5t35.5 37t22 15.5z" />
    <glyph glyph-name="nacute" unicode="&#x144;" horiz-adv-x="778" 
d="M220 559q53 -2 68 -24.5t6 -53.5q-2 -7 -14.5 -29t-31 -54t-42 -71t-46.5 -80l-29 -52q33 36 72.5 77t81 81t84.5 77t83.5 65.5t77 45.5t65.5 18q34 1 57.5 -7t37.5 -20.5t19.5 -26t5.5 -23.5q-1 -32 -17.5 -73.5t-41 -85t-52.5 -86t-51.5 -76t-38 -53.5t-11.5 -19
q29 6 74.5 36t96.5 72t102.5 90t94 89.5t71 71.5t32.5 35q6 8 14.5 10.5t15.5 -1t9 -15t-5 -31.5q-4 -10 -37 -48.5t-84.5 -90.5t-115 -110.5t-127 -109t-122 -84.5t-99.5 -38q-21 -2 -41.5 2t-36.5 15t-26 29.5t-10 46.5q0 25 17 64.5t43 85t56.5 92t56.5 85.5t43.5 65
t18.5 31q1 7 -2.5 8.5t-8 0t-9.5 -4t-8 -4.5q-31 -22 -75.5 -61t-94.5 -86.5t-100.5 -98.5t-94.5 -95.5t-76 -78.5t-44 -47q-11 -14 -21 -21q-11 -8 -28 -9t-32.5 5t-25.5 20.5t-8 37.5q3 33 22 84t47 108t61.5 114.5t66 103.5t61 74.5t46.5 27.5zM529 811q3 -1 14.5 -1h26
t30.5 0.5t29 1t20.5 0.5t5.5 -1q-3 -1 -13.5 -10t-25 -21.5t-31.5 -27t-32 -27t-26 -21t-14 -9.5q-5 -2 -19.5 -2.5t-30 0t-27.5 2t-12 4.5t14.5 21t33 38.5t35.5 37t22 15.5z" />
    <glyph glyph-name="Ncaron" unicode="&#x147;" horiz-adv-x="941" 
d="M1016 1006q10 1 19.5 -5t13.5 -19t0.5 -34t-18.5 -51q-5 -9 -25 -42t-50 -83.5t-67 -114t-76.5 -133t-77.5 -142t-70.5 -140t-56 -126.5t-33 -102.5t-2 -68t36.5 -22.5q26 2 60 24.5t71.5 58.5t77 82t77 93.5t71.5 93.5t60.5 83t43.5 61t21 28q8 7 18.5 10t19 0.5t11 -11
t-6.5 -24.5q-9 -17 -31 -53t-53.5 -83t-71 -101t-83.5 -106.5t-91.5 -99t-95 -79.5t-93.5 -48t-87 -3q-66 19 -90 67t-18 114t35.5 144.5t70 158.5t86 155t83 133.5t60.5 95.5t19 41q-3 4 -28 -13.5t-64.5 -50.5t-89.5 -79t-102.5 -99t-105 -111t-96.5 -115.5t-76.5 -111
t-45.5 -98.5q2 -20 4.5 -37t2.5 -30t-5 -22.5t-18 -15.5q-24 -9 -56 -7t-57 26t-35 75.5t10 140.5q4 15 26.5 75.5t81 171.5t160.5 275.5t264 387.5q3 5 -4 3t-20.5 -8t-30.5 -15t-33 -17.5t-29 -15.5t-18 -9q-12 -4 -20.5 -1.5t-12 9t-0.5 16t15 20.5q7 6 36 25t68.5 39.5
t83.5 36t81 14.5t54.5 -13.5t23 -29.5t2.5 -36t-7 -32q-12 -35 -43 -84t-74 -109.5t-94 -130.5t-102.5 -146t-101 -156.5t-88.5 -161.5q36 48 83.5 102.5t101.5 111.5t112.5 113.5t117 108.5t114 97.5t104 79t88 53.5t65.5 22zM1004 1333q0 -3 -17.5 -4t-38.5 -2
q-25 -1 -56 0l-56 141l99 8l19 -76l96 78l112 3q-45 -39 -79 -71q-15 -14 -29 -27t-25.5 -24t-18 -18t-6.5 -8z" />
    <glyph glyph-name="ncaron" unicode="&#x148;" horiz-adv-x="778" 
d="M220 559q53 -2 68 -24.5t6 -53.5q-2 -7 -14.5 -29t-31 -54t-42 -71t-46.5 -80l-29 -52q33 36 72.5 77t81 81t84.5 77t83.5 65.5t77 45.5t65.5 18q34 1 57.5 -7t37.5 -20.5t19.5 -26t5.5 -23.5q-1 -32 -17.5 -73.5t-41 -85t-52.5 -86t-51.5 -76t-38 -53.5t-11.5 -19
q29 6 74.5 36t96.5 72t102.5 90t94 89.5t71 71.5t32.5 35q6 8 14.5 10.5t15.5 -1t9 -15t-5 -31.5q-4 -10 -37 -48.5t-84.5 -90.5t-115 -110.5t-127 -109t-122 -84.5t-99.5 -38q-21 -2 -41.5 2t-36.5 15t-26 29.5t-10 46.5q0 25 17 64.5t43 85t56.5 92t56.5 85.5t43.5 65
t18.5 31q1 7 -2.5 8.5t-8 0t-9.5 -4t-8 -4.5q-31 -22 -75.5 -61t-94.5 -86.5t-100.5 -98.5t-94.5 -95.5t-76 -78.5t-44 -47q-11 -14 -21 -21q-11 -8 -28 -9t-32.5 5t-25.5 20.5t-8 37.5q3 33 22 84t47 108t61.5 114.5t66 103.5t61 74.5t46.5 27.5zM514 660q0 -3 -17.5 -4
t-38.5 -2q-25 -1 -56 0l-56 141l99 8l19 -76l96 78l112 3q-45 -39 -79 -71q-15 -14 -29 -27t-25.5 -24t-18 -18t-6.5 -8z" />
    <glyph glyph-name="napostrophe" unicode="&#x149;" horiz-adv-x="778" 
d="M220 559q53 -2 68 -24.5t6 -53.5q-2 -7 -14.5 -29t-31 -54t-42 -71t-46.5 -80l-29 -52q33 36 72.5 77t81 81t84.5 77t83.5 65.5t77 45.5t65.5 18q34 1 57.5 -7t37.5 -20.5t19.5 -26t5.5 -23.5q-1 -32 -17.5 -73.5t-41 -85t-52.5 -86t-51.5 -76t-38 -53.5t-11.5 -19
q29 6 74.5 36t96.5 72t102.5 90t94 89.5t71 71.5t32.5 35q6 8 14.5 10.5t15.5 -1t9 -15t-5 -31.5q-4 -10 -37 -48.5t-84.5 -90.5t-115 -110.5t-127 -109t-122 -84.5t-99.5 -38q-21 -2 -41.5 2t-36.5 15t-26 29.5t-10 46.5q0 25 17 64.5t43 85t56.5 92t56.5 85.5t43.5 65
t18.5 31q1 7 -2.5 8.5t-8 0t-9.5 -4t-8 -4.5q-31 -22 -75.5 -61t-94.5 -86.5t-100.5 -98.5t-94.5 -95.5t-76 -78.5t-44 -47q-11 -14 -21 -21q-11 -8 -28 -9t-32.5 5t-25.5 20.5t-8 37.5q3 33 22 84t47 108t61.5 114.5t66 103.5t61 74.5t46.5 27.5zM202 946q37 0 53.5 -15.5
t20 -37t-1 -45t-9.5 -38.5q-4 -10 -14.5 -28.5t-24.5 -40.5t-29.5 -45t-29.5 -42.5t-24 -33t-13 -16.5q-5 -4 -15 -3t-20 5t-15.5 10.5t-0.5 13.5q6 7 15.5 17.5t20 31.5t20 55t15.5 88q6 64 17 93.5t35 30.5z" />
    <glyph glyph-name="Omacron" unicode="&#x14c;" horiz-adv-x="1111" 
d="M574 1202q14 5 24.5 1t16 -12t6 -17.5t-4.5 -14.5q-67 -67 -126 -146t-108 -164t-88 -174t-66 -176.5t-41.5 -170.5t-15.5 -157q0 -86 19 -137t46 -78.5t55.5 -36t46.5 -9.5q42 -1 86 17.5t87.5 52.5t86.5 80.5t83 101.5q-51 21 -96.5 58t-81.5 90t-58.5 122t-26.5 155
q-1 16 3 50.5t13.5 80.5t26 100t41 108.5t58.5 106.5t78.5 93.5t100 69t124.5 34.5q20 2 49.5 -1.5t62.5 -18t65 -42t57 -73.5t38.5 -113.5t9.5 -161.5q-3 -62 -20 -135.5t-46.5 -151t-70 -157t-90.5 -153.5q53 11 105 34t97.5 57t82.5 77.5t61 96.5q4 8 16 10t23 -1.5
t17.5 -13t-1.5 -25.5q-41 -81 -101 -139.5t-125 -97t-128.5 -59t-110.5 -26.5q-55 -68 -117 -125.5t-130 -98t-140.5 -60.5t-148.5 -14q-18 1 -45.5 8t-58.5 23t-63 43.5t-59 70t-46.5 102.5t-24.5 141q-4 49 7 129.5t38.5 176t71.5 197t106.5 194t144.5 166t185 113.5z
M518 594q-6 -81 7.5 -143t42 -107t69.5 -73.5t89 -42.5q51 76 94 158.5t75 159t50.5 142.5t20.5 110q5 116 -5.5 187t-27.5 110t-37 51.5t-33 12.5q-74 -2 -128.5 -40t-92.5 -95.5t-61.5 -125.5t-37 -130.5t-19 -110t-6.5 -63.5zM764 1452q6 0 30.5 1t57.5 1.5t70.5 1
t69 0.5h53h23.5q7 -1 7 -14t-4.5 -28t-13 -27.5t-18.5 -12.5h-22t-52.5 -0.5t-68 -1t-68 -1t-52.5 -0.5h-22q-14 -1 -17 11.5t0.5 28t11 28.5t15.5 13z" />
    <glyph glyph-name="omacron" unicode="&#x14d;" horiz-adv-x="584" 
d="M369 570q17 -2 28 -8t17 -13.5t7 -13.5t-1 -6q-27 -2 -59.5 -21.5t-66 -50t-66 -69t-58.5 -79t-43.5 -80t-22.5 -70.5q-2 -9 -3 -23.5t1.5 -28t11 -24t27.5 -13.5q24 -3 56 16.5t67.5 52.5t70 74t63.5 80q-19 10 -31 25t-19.5 33.5t-10 38.5t-2.5 40q1 30 18.5 52.5
t43 33.5t54 10.5t51 -15t34 -44t4.5 -76.5q-2 -11 -4.5 -22t-5.5 -22q34 3 69.5 13.5t66.5 27t54.5 37t34.5 41.5q13 26 26.5 38.5t23 10.5t12 -18t-5.5 -46q-8 -31 -39 -61t-74.5 -54.5t-94.5 -40t-100 -18.5q-28 -61 -72 -117.5t-96.5 -98.5t-109.5 -65t-111 -16
q-56 7 -87.5 31t-47 55t-19.5 64t-5 58q0 18 10 55.5t31.5 81.5t54.5 90t79 82.5t105.5 57.5t133.5 15zM296 765q6 0 30.5 1t57.5 1.5t70.5 1t69 0.5h53h23.5q7 -1 7 -14t-4.5 -28t-13 -27.5t-18.5 -12.5h-22t-52.5 -0.5t-68 -1t-68 -1t-52.5 -0.5h-22q-14 -1 -17 11.5
t0.5 28t11 28.5t15.5 13zM409 409q-1 -17 1 -26t7 -13.5t11.5 -6t14.5 -4.5q7 11 12.5 20t9.5 17q15 31 9 46.5t-20 17t-29 -11.5t-16 -39z" />
    <glyph glyph-name="Obreve" unicode="&#x14e;" horiz-adv-x="1111" 
d="M574 1202q14 5 24.5 1t16 -12t6 -17.5t-4.5 -14.5q-67 -67 -126 -146t-108 -164t-88 -174t-66 -176.5t-41.5 -170.5t-15.5 -157q0 -86 19 -137t46 -78.5t55.5 -36t46.5 -9.5q42 -1 86 17.5t87.5 52.5t86.5 80.5t83 101.5q-51 21 -96.5 58t-81.5 90t-58.5 122t-26.5 155
q-1 16 3 50.5t13.5 80.5t26 100t41 108.5t58.5 106.5t78.5 93.5t100 69t124.5 34.5q20 2 49.5 -1.5t62.5 -18t65 -42t57 -73.5t38.5 -113.5t9.5 -161.5q-3 -62 -20 -135.5t-46.5 -151t-70 -157t-90.5 -153.5q53 11 105 34t97.5 57t82.5 77.5t61 96.5q4 8 16 10t23 -1.5
t17.5 -13t-1.5 -25.5q-41 -81 -101 -139.5t-125 -97t-128.5 -59t-110.5 -26.5q-55 -68 -117 -125.5t-130 -98t-140.5 -60.5t-148.5 -14q-18 1 -45.5 8t-58.5 23t-63 43.5t-59 70t-46.5 102.5t-24.5 141q-4 49 7 129.5t38.5 176t71.5 197t106.5 194t144.5 166t185 113.5z
M518 594q-6 -81 7.5 -143t42 -107t69.5 -73.5t89 -42.5q51 76 94 158.5t75 159t50.5 142.5t20.5 110q5 116 -5.5 187t-27.5 110t-37 51.5t-33 12.5q-74 -2 -128.5 -40t-92.5 -95.5t-61.5 -125.5t-37 -130.5t-19 -110t-6.5 -63.5zM840 1356q-51 1 -71.5 20.5t-25 44t0.5 46.5
t7 28q4 -1 17.5 1t28.5 4q18 3 39 7q-8 -23 -8 -41q0 -16 7 -28.5t28 -12.5q16 0 28 12t20 27q9 18 15 40l72 -7q-11 -40 -32 -72q-9 -14 -21 -26.5t-27.5 -22.5t-35 -15.5t-42.5 -4.5zM751 1497v-2q-1 1 0 2z" />
    <glyph glyph-name="obreve" unicode="&#x14f;" horiz-adv-x="584" 
d="M369 570q17 -2 28 -8t17 -13.5t7 -13.5t-1 -6q-27 -2 -59.5 -21.5t-66 -50t-66 -69t-58.5 -79t-43.5 -80t-22.5 -70.5q-2 -9 -3 -23.5t1.5 -28t11 -24t27.5 -13.5q24 -3 56 16.5t67.5 52.5t70 74t63.5 80q-19 10 -31 25t-19.5 33.5t-10 38.5t-2.5 40q1 30 18.5 52.5
t43 33.5t54 10.5t51 -15t34 -44t4.5 -76.5q-2 -11 -4.5 -22t-5.5 -22q34 3 69.5 13.5t66.5 27t54.5 37t34.5 41.5q13 26 26.5 38.5t23 10.5t12 -18t-5.5 -46q-8 -31 -39 -61t-74.5 -54.5t-94.5 -40t-100 -18.5q-28 -61 -72 -117.5t-96.5 -98.5t-109.5 -65t-111 -16
q-56 7 -87.5 31t-47 55t-19.5 64t-5 58q0 18 10 55.5t31.5 81.5t54.5 90t79 82.5t105.5 57.5t133.5 15zM450 635q-51 1 -71.5 20.5t-25 44t0.5 46.5t7 28q4 -1 17.5 1t28.5 4q18 3 39 7q-8 -23 -8 -41q0 -16 7 -28.5t28 -12.5q16 0 28 12t20 27q9 18 15 40l72 -7
q-11 -40 -32 -72q-9 -14 -21 -26.5t-27.5 -22.5t-35 -15.5t-42.5 -4.5zM409 409q-1 -17 1 -26t7 -13.5t11.5 -6t14.5 -4.5q7 11 12.5 20t9.5 17q15 31 9 46.5t-20 17t-29 -11.5t-16 -39zM361 776v-2q-1 1 0 2z" />
    </font>
</defs>
</svg>
